{"glyphs":{"0":{"ha":910,"x_min":57,"x_max":853,"o":"m 457 -14 q 256 48 347 -14 q 111 222 165 110 q 57 488 57 335 q 110 752 57 640 q 254 925 164 864 q 454 986 344 986 q 656 925 565 986 q 799 752 746 864 q 853 486 853 640 q 799 221 853 333 q 656 47 746 108 q 457 -14 567 -14 m 454 136 q 579 175 526 136 q 662 292 632 214 q 692 488 692 369 q 662 682 692 604 q 578 798 632 760 q 454 836 525 836 q 330 798 383 836 q 247 683 276 760 q 218 488 218 606 q 247 292 218 369 q 330 175 276 214 q 454 136 383 136 z "},"1":{"ha":493,"x_min":36,"x_max":388,"o":"m 231 0 l 231 972 l 388 972 l 388 0 l 231 0 m 36 829 l 36 972 l 374 972 l 374 829 l 36 829 z "},"2":{"ha":751,"x_min":39,"x_max":699,"o":"m 39 94 l 397 475 q 469 560 442 522 q 510 631 497 597 q 522 699 522 664 q 480 801 522 764 q 372 838 438 838 q 250 803 303 838 q 156 694 197 768 l 44 786 q 185 935 101 885 q 378 986 268 986 q 536 950 468 986 q 642 849 604 914 q 679 700 679 785 q 665 591 679 639 q 615 495 650 543 q 519 383 581 447 l 244 99 l 39 94 m 39 0 l 39 94 l 176 143 l 699 143 l 699 0 l 39 0 z "},"3":{"ha":750,"x_min":33,"x_max":694,"o":"m 342 -14 q 166 22 244 -14 q 33 125 88 57 l 142 233 q 224 163 171 189 q 339 136 276 136 q 442 158 399 136 q 509 221 485 181 q 533 314 533 261 q 509 408 533 369 q 440 469 485 447 q 331 490 394 490 q 279 487 306 490 q 232 476 253 483 l 303 568 q 365 587 332 579 q 428 594 397 594 q 563 558 503 594 q 659 458 624 522 q 694 306 694 393 q 650 139 694 211 q 526 26 606 67 q 342 -14 447 -14 m 232 476 l 232 571 l 492 874 l 683 878 l 413 567 l 232 476 m 82 829 l 82 972 l 683 972 l 683 878 l 546 829 l 82 829 z "},"4":{"ha":832,"x_min":39,"x_max":793,"o":"m 39 347 l 385 972 l 565 972 l 211 347 l 39 347 m 39 250 l 39 347 l 107 393 l 793 393 l 793 250 l 39 250 m 500 0 l 500 636 l 657 636 l 657 0 l 500 0 z "},"5":{"ha":757,"x_min":29,"x_max":707,"o":"m 343 -14 q 163 22 242 -14 q 29 125 83 57 l 138 233 q 220 163 167 189 q 340 136 274 136 q 447 158 401 136 q 519 222 493 181 q 546 321 546 264 q 520 420 546 381 q 452 480 494 460 q 361 500 410 500 q 262 488 306 500 q 176 443 218 475 l 181 543 q 232 591 203 572 q 300 619 261 610 q 392 629 339 629 q 565 586 494 629 q 671 472 635 543 q 707 313 707 400 q 660 144 707 218 q 532 28 614 71 q 343 -14 450 -14 m 176 443 l 89 531 l 132 972 l 278 972 l 228 513 l 176 443 m 160 829 l 132 972 l 653 972 l 653 829 l 160 829 z "},"6":{"ha":781,"x_min":47,"x_max":735,"o":"m 390 -14 q 215 31 293 -14 q 92 153 138 76 q 47 322 47 229 q 140 592 47 456 l 406 972 l 590 972 l 307 574 l 249 539 q 284 594 263 571 q 341 629 306 617 q 429 642 376 642 q 583 602 514 642 q 693 492 651 563 q 735 328 735 422 q 689 156 735 233 q 565 32 643 78 q 390 -14 486 -14 m 390 136 q 485 161 443 136 q 551 230 526 186 q 575 328 575 274 q 551 425 575 382 q 485 492 526 468 q 390 517 443 517 q 296 492 338 517 q 231 424 254 467 q 207 328 207 382 q 231 230 207 274 q 296 161 254 186 q 390 136 338 136 z "},"7":{"ha":725,"x_min":36,"x_max":688,"o":"m 175 0 l 529 875 l 688 875 l 342 0 l 175 0 m 36 829 l 36 972 l 688 972 l 688 875 l 619 829 l 36 829 z "},"8":{"ha":761,"x_min":51,"x_max":710,"o":"m 381 -14 q 207 22 281 -14 q 92 123 133 58 q 51 269 51 188 q 77 390 51 335 q 152 483 103 444 q 269 539 201 522 l 265 494 q 172 544 210 510 q 114 626 133 579 q 94 725 94 674 q 131 862 94 803 q 233 954 168 921 q 381 988 299 988 q 528 954 464 988 q 630 862 593 921 q 667 725 667 803 q 647 626 667 674 q 590 544 628 579 q 496 494 553 510 l 492 539 q 610 483 561 522 q 684 390 658 444 q 710 269 710 335 q 669 123 710 188 q 555 22 629 58 q 381 -14 481 -14 m 381 131 q 472 151 432 131 q 534 208 511 172 q 557 290 557 244 q 534 373 557 338 q 472 429 511 408 q 381 450 432 450 q 290 429 329 450 q 227 373 250 408 q 204 290 204 338 q 227 208 204 244 q 290 151 250 172 q 381 131 329 131 m 381 575 q 481 614 442 575 q 519 714 519 653 q 481 813 519 775 q 381 851 442 851 q 281 813 321 851 q 242 714 242 775 q 281 614 242 653 q 381 575 321 575 z "},"9":{"ha":781,"x_min":46,"x_max":733,"o":"m 190 0 l 475 399 l 532 433 q 497 379 518 403 q 440 343 475 356 q 351 331 406 331 q 199 370 268 331 q 88 481 129 410 q 46 644 46 551 q 92 817 46 739 q 217 940 139 894 q 390 986 294 986 q 565 941 488 986 q 688 820 643 896 q 733 650 733 744 q 640 381 733 517 l 375 0 l 190 0 m 390 456 q 485 481 443 456 q 550 549 526 506 q 574 644 574 592 q 550 743 574 700 q 485 811 526 786 q 390 836 443 836 q 296 811 338 836 q 230 743 254 786 q 206 644 206 700 q 230 548 206 590 q 297 481 254 506 q 390 456 339 456 z "},"A":{"ha":975,"x_min":33,"x_max":942,"o":"m 33 0 l 433 972 l 544 972 l 942 0 l 769 0 l 458 788 l 517 788 l 203 0 l 33 0 m 231 188 l 231 326 l 746 326 l 746 188 l 231 188 z "},"Á":{"ha":975,"x_min":33,"x_max":942,"o":"m 33 0 l 433 972 l 544 972 l 942 0 l 769 0 l 458 788 l 517 788 l 203 0 l 33 0 m 231 188 l 231 326 l 746 326 l 746 188 l 231 188 m 408 1068 l 339 1138 l 517 1364 l 635 1246 l 408 1068 z "},"Ă":{"ha":975,"x_min":33,"x_max":942,"o":"m 33 0 l 433 972 l 544 972 l 942 0 l 769 0 l 458 788 l 517 788 l 203 0 l 33 0 m 231 188 l 231 326 l 746 326 l 746 188 l 231 188 m 733 1294 q 701 1172 733 1226 q 615 1084 669 1117 q 489 1051 560 1051 q 362 1084 418 1051 q 273 1172 306 1117 q 240 1294 240 1226 l 379 1294 q 409 1215 379 1247 q 489 1183 439 1183 q 544 1198 519 1183 q 582 1238 568 1213 q 596 1294 596 1264 l 733 1294 z "},"Ǎ":{"ha":975,"x_min":33,"x_max":942,"o":"m 33 0 l 433 972 l 544 972 l 942 0 l 769 0 l 458 788 l 517 788 l 203 0 l 33 0 m 231 188 l 231 326 l 746 326 l 746 188 l 231 188 m 664 1350 l 733 1281 l 544 1065 l 429 1065 l 240 1281 l 310 1350 l 538 1165 l 435 1167 l 664 1350 z "},"Â":{"ha":975,"x_min":33,"x_max":942,"o":"m 33 0 l 433 972 l 544 972 l 942 0 l 769 0 l 458 788 l 517 788 l 203 0 l 33 0 m 231 188 l 231 326 l 746 326 l 746 188 l 231 188 m 310 1065 l 240 1135 l 429 1350 l 544 1350 l 733 1135 l 664 1065 l 436 1250 l 539 1249 l 310 1065 z "},"Ä":{"ha":975,"x_min":33,"x_max":942,"o":"m 33 0 l 433 972 l 544 972 l 942 0 l 769 0 l 458 788 l 517 788 l 203 0 l 33 0 m 231 188 l 231 326 l 746 326 l 746 188 l 231 188 m 342 1081 q 277 1107 303 1081 q 251 1172 251 1133 q 277 1238 251 1211 q 342 1264 303 1264 q 407 1238 382 1264 q 432 1172 432 1211 q 407 1107 432 1133 q 342 1081 382 1081 m 633 1081 q 569 1107 594 1081 q 543 1172 543 1133 q 569 1238 543 1211 q 633 1264 594 1264 q 699 1238 674 1264 q 724 1172 724 1211 q 699 1107 724 1133 q 633 1081 674 1081 z "},"À":{"ha":975,"x_min":33,"x_max":942,"o":"m 33 0 l 433 972 l 544 972 l 942 0 l 769 0 l 458 788 l 517 788 l 203 0 l 33 0 m 231 188 l 231 326 l 746 326 l 746 188 l 231 188 m 543 1054 l 317 1232 l 435 1350 l 613 1124 l 543 1054 z "},"Ā":{"ha":975,"x_min":33,"x_max":942,"o":"m 33 0 l 433 972 l 544 972 l 942 0 l 769 0 l 458 788 l 517 788 l 203 0 l 33 0 m 231 188 l 231 326 l 746 326 l 746 188 l 231 188 m 226 1233 l 749 1233 l 749 1108 l 226 1108 l 226 1233 z "},"Ą":{"ha":975,"x_min":33,"x_max":988,"o":"m 33 0 l 433 972 l 544 972 l 942 0 l 769 0 l 458 788 l 517 788 l 203 0 l 33 0 m 231 188 l 231 326 l 746 326 l 746 188 l 231 188 m 867 -292 q 760 -263 807 -292 q 713 -164 713 -235 q 749 -57 713 -106 q 861 28 785 -8 l 942 0 q 860 -62 892 -28 q 829 -140 829 -97 q 843 -178 829 -164 q 885 -193 857 -193 q 922 -186 906 -193 q 949 -174 938 -179 l 988 -258 q 940 -281 968 -269 q 867 -292 911 -292 z "},"Å":{"ha":975,"x_min":33,"x_max":942,"o":"m 33 0 l 433 972 l 544 972 l 942 0 l 769 0 l 458 788 l 517 788 l 203 0 l 33 0 m 231 188 l 231 326 l 746 326 l 746 188 l 231 188 m 489 913 q 398 935 438 913 q 335 997 358 958 q 313 1085 313 1036 q 335 1172 313 1133 q 398 1234 358 1211 q 489 1257 438 1257 q 578 1234 539 1257 q 639 1172 617 1211 q 661 1085 661 1133 q 639 997 661 1036 q 578 935 617 958 q 489 913 539 913 m 489 1021 q 532 1040 514 1021 q 550 1085 550 1058 q 532 1131 550 1113 q 489 1149 514 1149 q 442 1131 460 1149 q 425 1085 425 1113 q 442 1040 425 1058 q 489 1021 460 1021 z "},"Ã":{"ha":975,"x_min":33,"x_max":942,"o":"m 33 0 l 433 972 l 544 972 l 942 0 l 769 0 l 458 788 l 517 788 l 203 0 l 33 0 m 231 188 l 231 326 l 746 326 l 746 188 l 231 188 m 588 1068 q 510 1085 542 1068 q 451 1117 478 1101 q 390 1133 424 1133 q 335 1121 356 1133 q 294 1083 314 1108 l 213 1165 q 293 1238 253 1211 q 388 1265 333 1265 q 465 1249 433 1265 q 525 1217 497 1233 q 585 1200 553 1200 q 642 1213 621 1200 q 681 1250 663 1225 l 763 1168 q 682 1095 722 1122 q 588 1068 642 1068 z "},"Æ":{"ha":1364,"x_min":33,"x_max":1304,"o":"m 33 0 l 433 972 l 822 972 l 822 826 l 532 826 l 203 0 l 33 0 m 231 326 l 231 465 l 746 465 l 746 326 l 231 326 m 796 0 l 796 146 l 1304 146 l 1304 0 l 796 0 m 686 0 l 686 972 l 846 972 l 846 0 l 686 0 m 796 426 l 796 567 l 1257 567 l 1257 426 l 796 426 m 796 826 l 796 972 l 1297 972 l 1297 826 l 796 826 z "},"B":{"ha":864,"x_min":106,"x_max":808,"o":"m 215 0 l 215 139 l 494 139 q 608 185 568 139 q 649 290 649 231 q 631 365 649 331 q 578 421 613 400 q 494 442 543 442 l 215 442 l 215 581 l 471 581 q 571 613 533 581 q 608 707 608 644 q 571 801 608 769 q 471 833 533 833 l 215 833 l 215 972 l 475 972 q 639 936 574 972 q 736 843 704 900 q 768 721 768 786 q 726 586 768 644 q 601 492 683 528 l 614 542 q 757 436 706 504 q 808 276 808 368 q 772 139 808 201 q 663 38 735 76 q 488 0 592 0 l 215 0 m 106 0 l 106 972 l 265 972 l 265 0 l 106 0 z "},"C":{"ha":949,"x_min":57,"x_max":911,"o":"m 547 -14 q 352 24 442 -14 q 196 131 263 63 q 93 291 129 200 q 57 486 57 382 q 93 681 57 590 q 196 840 129 772 q 352 947 263 908 q 547 986 442 986 q 751 947 665 986 q 904 842 838 908 l 796 733 q 691 807 753 781 q 547 833 629 833 q 415 808 475 833 q 312 737 356 783 q 244 626 268 690 q 221 486 221 563 q 244 346 221 410 q 312 235 268 282 q 415 164 356 189 q 547 139 475 139 q 698 166 636 139 q 803 240 760 193 l 911 132 q 754 25 844 64 q 547 -14 664 -14 z "},"Ć":{"ha":949,"x_min":57,"x_max":911,"o":"m 547 -14 q 352 24 442 -14 q 196 131 263 63 q 93 291 129 200 q 57 486 57 382 q 93 681 57 590 q 196 840 129 772 q 352 947 263 908 q 547 986 442 986 q 751 947 665 986 q 904 842 838 908 l 796 733 q 691 807 753 781 q 547 833 629 833 q 415 808 475 833 q 312 737 356 783 q 244 626 268 690 q 221 486 221 563 q 244 346 221 410 q 312 235 268 282 q 415 164 356 189 q 547 139 475 139 q 698 166 636 139 q 803 240 760 193 l 911 132 q 754 25 844 64 q 547 -14 664 -14 m 440 1068 l 371 1138 l 549 1364 l 667 1246 l 440 1068 z "},"Č":{"ha":949,"x_min":57,"x_max":911,"o":"m 547 -14 q 352 24 442 -14 q 196 131 263 63 q 93 291 129 200 q 57 486 57 382 q 93 681 57 590 q 196 840 129 772 q 352 947 263 908 q 547 986 442 986 q 751 947 665 986 q 904 842 838 908 l 796 733 q 691 807 753 781 q 547 833 629 833 q 415 808 475 833 q 312 737 356 783 q 244 626 268 690 q 221 486 221 563 q 244 346 221 410 q 312 235 268 282 q 415 164 356 189 q 547 139 475 139 q 698 166 636 139 q 803 240 760 193 l 911 132 q 754 25 844 64 q 547 -14 664 -14 m 696 1350 l 765 1281 l 576 1065 l 461 1065 l 272 1281 l 342 1350 l 569 1165 l 467 1167 l 696 1350 z "},"Ç":{"ha":949,"x_min":57,"x_max":911,"o":"m 547 -14 q 352 24 442 -14 q 196 131 263 63 q 93 291 129 200 q 57 486 57 382 q 93 681 57 590 q 196 840 129 772 q 352 947 263 908 q 547 986 442 986 q 751 947 665 986 q 904 842 838 908 l 796 733 q 691 807 753 781 q 547 833 629 833 q 415 808 475 833 q 312 737 356 783 q 244 626 268 690 q 221 486 221 563 q 244 346 221 410 q 312 235 268 282 q 415 164 356 189 q 547 139 475 139 q 698 166 636 139 q 803 240 760 193 l 911 132 q 754 25 844 64 q 547 -14 664 -14 m 494 -292 q 404 -279 443 -292 q 329 -243 365 -267 l 392 -164 q 429 -187 407 -178 q 483 -196 451 -196 q 535 -186 519 -196 q 551 -162 551 -176 q 537 -135 551 -147 q 490 -124 522 -124 l 418 -124 l 464 19 l 575 19 l 542 -81 l 486 -39 q 625 -73 572 -36 q 678 -165 678 -110 q 627 -256 678 -219 q 494 -292 576 -292 z "},"Ċ":{"ha":949,"x_min":57,"x_max":911,"o":"m 547 -14 q 352 24 442 -14 q 196 131 263 63 q 93 291 129 200 q 57 486 57 382 q 93 681 57 590 q 196 840 129 772 q 352 947 263 908 q 547 986 442 986 q 751 947 665 986 q 904 842 838 908 l 796 733 q 691 807 753 781 q 547 833 629 833 q 415 808 475 833 q 312 737 356 783 q 244 626 268 690 q 221 486 221 563 q 244 346 221 410 q 312 235 268 282 q 415 164 356 189 q 547 139 475 139 q 698 166 636 139 q 803 240 760 193 l 911 132 q 754 25 844 64 q 547 -14 664 -14 m 519 1081 q 455 1107 481 1081 q 429 1172 429 1133 q 455 1238 429 1211 q 519 1264 481 1264 q 585 1238 560 1264 q 610 1172 610 1211 q 585 1107 610 1133 q 519 1081 560 1081 z "},"D":{"ha":1028,"x_min":106,"x_max":971,"o":"m 215 0 l 215 146 l 471 146 q 647 189 571 146 q 765 309 722 232 q 807 488 807 386 q 764 664 807 588 q 645 783 721 740 q 471 826 569 826 l 215 826 l 215 972 l 475 972 q 671 935 581 972 q 828 833 761 899 q 933 678 896 767 q 971 486 971 590 q 933 294 971 383 q 829 140 896 206 q 672 37 763 74 q 478 0 582 0 l 215 0 m 106 0 l 106 972 l 265 972 l 265 0 l 106 0 z "},"Ð":{"ha":1056,"x_min":33,"x_max":999,"o":"m 33 556 l 564 556 l 564 424 l 33 424 l 33 556 m 243 0 l 243 146 l 499 146 q 674 189 599 146 q 792 309 750 232 q 835 488 835 386 q 792 664 835 588 q 673 783 749 740 q 499 826 597 826 l 243 826 l 243 972 l 503 972 q 699 935 608 972 q 856 833 789 899 q 961 678 924 767 q 999 486 999 590 q 961 294 999 383 q 857 140 924 206 q 700 37 790 74 q 506 0 610 0 l 243 0 m 133 0 l 133 972 l 293 972 l 293 0 l 133 0 z "},"Ď":{"ha":1028,"x_min":106,"x_max":971,"o":"m 215 0 l 215 146 l 471 146 q 647 189 571 146 q 765 309 722 232 q 807 488 807 386 q 764 664 807 588 q 645 783 721 740 q 471 826 569 826 l 215 826 l 215 972 l 475 972 q 671 935 581 972 q 828 833 761 899 q 933 678 896 767 q 971 486 971 590 q 933 294 971 383 q 829 140 896 206 q 672 37 763 74 q 478 0 582 0 l 215 0 m 106 0 l 106 972 l 265 972 l 265 0 l 106 0 m 651 1350 l 721 1281 l 532 1065 l 417 1065 l 228 1281 l 297 1350 l 525 1165 l 422 1167 l 651 1350 z "},"Đ":{"ha":1054,"x_min":0,"x_max":997,"o":"m 0 421 l 0 551 l 599 551 l 599 421 l 0 421 m 242 0 l 242 146 l 497 146 q 673 189 597 146 q 791 309 749 232 q 833 488 833 386 q 790 664 833 588 q 672 783 747 740 q 497 826 596 826 l 242 826 l 242 972 l 501 972 q 697 935 607 972 q 855 833 788 899 q 960 678 922 767 q 997 486 997 590 q 960 294 997 383 q 856 140 922 206 q 699 37 789 74 q 504 0 608 0 l 242 0 m 132 0 l 132 972 l 292 972 l 292 0 l 132 0 z "},"E":{"ha":819,"x_min":106,"x_max":760,"o":"m 106 0 l 106 972 l 265 972 l 265 0 l 106 0 m 215 0 l 215 146 l 760 146 l 760 0 l 215 0 m 215 426 l 215 567 l 713 567 l 713 426 l 215 426 m 215 826 l 215 972 l 753 972 l 753 826 l 215 826 z "},"É":{"ha":819,"x_min":106,"x_max":760,"o":"m 106 0 l 106 972 l 265 972 l 265 0 l 106 0 m 215 0 l 215 146 l 760 146 l 760 0 l 215 0 m 215 426 l 215 567 l 713 567 l 713 426 l 215 426 m 215 826 l 215 972 l 753 972 l 753 826 l 215 826 m 358 1068 l 289 1138 l 467 1364 l 585 1246 l 358 1068 z "},"Ě":{"ha":819,"x_min":106,"x_max":760,"o":"m 106 0 l 106 972 l 265 972 l 265 0 l 106 0 m 215 0 l 215 146 l 760 146 l 760 0 l 215 0 m 215 426 l 215 567 l 713 567 l 713 426 l 215 426 m 215 826 l 215 972 l 753 972 l 753 826 l 215 826 m 614 1350 l 683 1281 l 494 1065 l 379 1065 l 190 1281 l 260 1350 l 488 1165 l 385 1167 l 614 1350 z "},"Ê":{"ha":819,"x_min":106,"x_max":760,"o":"m 106 0 l 106 972 l 265 972 l 265 0 l 106 0 m 215 0 l 215 146 l 760 146 l 760 0 l 215 0 m 215 426 l 215 567 l 713 567 l 713 426 l 215 426 m 215 826 l 215 972 l 753 972 l 753 826 l 215 826 m 260 1065 l 190 1135 l 379 1350 l 494 1350 l 683 1135 l 614 1065 l 386 1250 l 489 1249 l 260 1065 z "},"Ë":{"ha":819,"x_min":106,"x_max":760,"o":"m 106 0 l 106 972 l 265 972 l 265 0 l 106 0 m 215 0 l 215 146 l 760 146 l 760 0 l 215 0 m 215 426 l 215 567 l 713 567 l 713 426 l 215 426 m 215 826 l 215 972 l 753 972 l 753 826 l 215 826 m 292 1081 q 227 1107 253 1081 q 201 1172 201 1133 q 227 1238 201 1211 q 292 1264 253 1264 q 357 1238 332 1264 q 382 1172 382 1211 q 357 1107 382 1133 q 292 1081 332 1081 m 583 1081 q 519 1107 544 1081 q 493 1172 493 1133 q 519 1238 493 1211 q 583 1264 544 1264 q 649 1238 624 1264 q 674 1172 674 1211 q 649 1107 674 1133 q 583 1081 624 1081 z "},"Ė":{"ha":819,"x_min":106,"x_max":760,"o":"m 106 0 l 106 972 l 265 972 l 265 0 l 106 0 m 215 0 l 215 146 l 760 146 l 760 0 l 215 0 m 215 426 l 215 567 l 713 567 l 713 426 l 215 426 m 215 826 l 215 972 l 753 972 l 753 826 l 215 826 m 438 1081 q 373 1107 399 1081 q 347 1172 347 1133 q 373 1238 347 1211 q 438 1264 399 1264 q 503 1238 478 1264 q 528 1172 528 1211 q 503 1107 528 1133 q 438 1081 478 1081 z "},"È":{"ha":819,"x_min":106,"x_max":760,"o":"m 106 0 l 106 972 l 265 972 l 265 0 l 106 0 m 215 0 l 215 146 l 760 146 l 760 0 l 215 0 m 215 426 l 215 567 l 713 567 l 713 426 l 215 426 m 215 826 l 215 972 l 753 972 l 753 826 l 215 826 m 493 1054 l 267 1232 l 385 1350 l 563 1124 l 493 1054 z "},"Ē":{"ha":819,"x_min":106,"x_max":760,"o":"m 106 0 l 106 972 l 265 972 l 265 0 l 106 0 m 215 0 l 215 146 l 760 146 l 760 0 l 215 0 m 215 426 l 215 567 l 713 567 l 713 426 l 215 426 m 215 826 l 215 972 l 753 972 l 753 826 l 215 826 m 176 1233 l 699 1233 l 699 1108 l 176 1108 l 176 1233 z "},"Ę":{"ha":819,"x_min":106,"x_max":806,"o":"m 106 0 l 106 972 l 265 972 l 265 0 l 106 0 m 215 0 l 215 146 l 760 146 l 760 0 l 215 0 m 215 426 l 215 567 l 713 567 l 713 426 l 215 426 m 215 826 l 215 972 l 753 972 l 753 826 l 215 826 m 685 -292 q 578 -263 625 -292 q 531 -164 531 -235 q 567 -57 531 -106 q 679 28 603 -8 l 760 0 q 678 -62 710 -28 q 647 -140 647 -97 q 661 -178 647 -164 q 703 -193 675 -193 q 740 -186 724 -193 q 767 -174 756 -179 l 806 -258 q 758 -281 786 -269 q 685 -292 729 -292 z "},"F":{"ha":786,"x_min":106,"x_max":733,"o":"m 106 0 l 106 972 l 265 972 l 265 0 l 106 0 m 215 417 l 215 563 l 710 563 l 710 417 l 215 417 m 215 826 l 215 972 l 733 972 l 733 826 l 215 826 z "},"G":{"ha":1072,"x_min":57,"x_max":1019,"o":"m 544 -14 q 356 25 444 -14 q 200 133 267 64 q 95 292 133 201 q 57 488 57 383 q 95 682 57 592 q 201 841 133 772 q 359 948 268 910 q 556 986 450 986 q 769 942 671 986 q 935 815 868 897 l 826 707 q 711 801 783 768 q 556 833 639 833 q 380 790 456 833 q 263 668 304 746 q 221 488 221 590 q 263 306 221 385 q 378 183 306 228 q 542 139 450 139 q 709 174 639 139 q 817 280 779 210 q 854 453 854 350 l 954 381 l 539 381 l 539 526 l 1019 526 l 1019 504 q 958 215 1019 331 q 789 43 896 100 q 544 -14 682 -14 z "},"Ğ":{"ha":1072,"x_min":57,"x_max":1019,"o":"m 544 -14 q 356 25 444 -14 q 200 133 267 64 q 95 292 133 201 q 57 488 57 383 q 95 682 57 592 q 201 841 133 772 q 359 948 268 910 q 556 986 450 986 q 769 942 671 986 q 935 815 868 897 l 826 707 q 711 801 783 768 q 556 833 639 833 q 380 790 456 833 q 263 668 304 746 q 221 488 221 590 q 263 306 221 385 q 378 183 306 228 q 542 139 450 139 q 709 174 639 139 q 817 280 779 210 q 854 453 854 350 l 954 381 l 539 381 l 539 526 l 1019 526 l 1019 504 q 958 215 1019 331 q 789 43 896 100 q 544 -14 682 -14 m 797 1294 q 765 1172 797 1226 q 678 1084 733 1117 q 553 1051 624 1051 q 426 1084 482 1051 q 337 1172 369 1117 q 304 1294 304 1226 l 443 1294 q 473 1215 443 1247 q 553 1183 503 1183 q 608 1198 583 1183 q 646 1238 632 1213 q 660 1294 660 1264 l 797 1294 z "},"Ģ":{"ha":1072,"x_min":57,"x_max":1019,"o":"m 544 -14 q 356 25 444 -14 q 200 133 267 64 q 95 292 133 201 q 57 488 57 383 q 95 682 57 592 q 201 841 133 772 q 359 948 268 910 q 556 986 450 986 q 769 942 671 986 q 935 815 868 897 l 826 707 q 711 801 783 768 q 556 833 639 833 q 380 790 456 833 q 263 668 304 746 q 221 488 221 590 q 263 306 221 385 q 378 183 306 228 q 542 139 450 139 q 709 174 639 139 q 817 280 779 210 q 854 453 854 350 l 954 381 l 539 381 l 539 526 l 1019 526 l 1019 504 q 958 215 1019 331 q 789 43 896 100 q 544 -14 682 -14 m 525 -508 l 440 -462 l 535 -286 l 586 -272 q 567 -300 578 -289 q 540 -311 556 -311 q 481 -284 508 -311 q 454 -215 454 -257 q 484 -140 454 -171 q 558 -108 514 -108 q 631 -140 600 -108 q 663 -215 663 -171 q 655 -258 663 -233 q 628 -319 647 -282 l 525 -508 z "},"Ġ":{"ha":1072,"x_min":57,"x_max":1019,"o":"m 544 -14 q 356 25 444 -14 q 200 133 267 64 q 95 292 133 201 q 57 488 57 383 q 95 682 57 592 q 201 841 133 772 q 359 948 268 910 q 556 986 450 986 q 769 942 671 986 q 935 815 868 897 l 826 707 q 711 801 783 768 q 556 833 639 833 q 380 790 456 833 q 263 668 304 746 q 221 488 221 590 q 263 306 221 385 q 378 183 306 228 q 542 139 450 139 q 709 174 639 139 q 817 280 779 210 q 854 453 854 350 l 954 381 l 539 381 l 539 526 l 1019 526 l 1019 504 q 958 215 1019 331 q 789 43 896 100 q 544 -14 682 -14 m 551 1081 q 487 1107 513 1081 q 461 1172 461 1133 q 487 1238 461 1211 q 551 1264 513 1264 q 617 1238 592 1264 q 642 1172 642 1211 q 617 1107 642 1133 q 551 1081 592 1081 z "},"H":{"ha":989,"x_min":106,"x_max":883,"o":"m 106 0 l 106 972 l 265 972 l 265 0 l 106 0 m 724 0 l 724 972 l 883 972 l 883 0 l 724 0 m 215 431 l 215 576 l 758 576 l 758 431 l 215 431 z "},"Ħ":{"ha":989,"x_min":0,"x_max":989,"o":"m 0 714 l 0 839 l 989 839 l 989 714 l 0 714 m 106 0 l 106 972 l 265 972 l 265 0 l 106 0 m 724 0 l 724 972 l 883 972 l 883 0 l 724 0 m 215 431 l 215 576 l 758 576 l 758 431 l 215 431 z "},"I":{"ha":371,"x_min":106,"x_max":265,"o":"m 106 0 l 106 972 l 265 972 l 265 0 l 106 0 z "},"Ĳ":{"ha":846,"x_min":106,"x_max":753,"o":"m 449 -14 q 298 20 364 -14 q 192 111 232 54 l 304 214 q 364 158 328 178 q 443 139 400 139 q 524 158 490 139 q 575 214 557 178 q 593 300 593 250 l 593 972 l 753 972 l 753 313 q 715 142 753 215 q 608 27 676 68 q 449 -14 540 -14 m 106 306 l 106 972 l 258 972 l 258 306 l 106 306 z "},"Í":{"ha":371,"x_min":38,"x_max":333,"o":"m 106 0 l 106 972 l 265 972 l 265 0 l 106 0 m 107 1068 l 38 1138 l 215 1364 l 333 1246 l 107 1068 z "},"Î":{"ha":371,"x_min":-61,"x_max":432,"o":"m 106 0 l 106 972 l 265 972 l 265 0 l 106 0 m 8 1065 l -61 1135 l 128 1350 l 243 1350 l 432 1135 l 363 1065 l 135 1250 l 238 1249 l 8 1065 z "},"Ï":{"ha":371,"x_min":-50,"x_max":422,"o":"m 106 0 l 106 972 l 265 972 l 265 0 l 106 0 m 40 1081 q -24 1107 1 1081 q -50 1172 -50 1133 q -24 1238 -50 1211 q 40 1264 1 1264 q 106 1238 81 1264 q 131 1172 131 1211 q 106 1107 131 1133 q 40 1081 81 1081 m 332 1081 q 267 1107 293 1081 q 242 1172 242 1133 q 267 1238 242 1211 q 332 1264 293 1264 q 397 1238 372 1264 q 422 1172 422 1211 q 397 1107 422 1133 q 332 1081 372 1081 z "},"İ":{"ha":371,"x_min":96,"x_max":276,"o":"m 106 0 l 106 972 l 265 972 l 265 0 l 106 0 m 186 1081 q 122 1107 147 1081 q 96 1172 96 1133 q 122 1238 96 1211 q 186 1264 147 1264 q 251 1238 226 1264 q 276 1172 276 1211 q 251 1107 276 1133 q 186 1081 226 1081 z "},"Ì":{"ha":371,"x_min":15,"x_max":311,"o":"m 106 0 l 106 972 l 265 972 l 265 0 l 106 0 m 242 1054 l 15 1232 l 133 1350 l 311 1124 l 242 1054 z "},"Ī":{"ha":371,"x_min":-50,"x_max":422,"o":"m -50 1233 l 422 1233 l 422 1108 l -50 1108 l -50 1233 m 106 0 l 106 972 l 265 972 l 265 0 l 106 0 z "},"Į":{"ha":371,"x_min":36,"x_max":311,"o":"m 106 0 l 106 972 l 265 972 l 265 0 l 106 0 m 190 -292 q 83 -263 131 -292 q 36 -164 36 -235 q 72 -57 36 -106 q 185 28 108 -8 l 265 0 q 184 -62 215 -28 q 153 -140 153 -97 q 167 -178 153 -164 q 208 -193 181 -193 q 245 -186 229 -193 q 272 -174 261 -179 l 311 -258 q 263 -281 292 -269 q 190 -292 235 -292 z "},"J":{"ha":686,"x_min":32,"x_max":593,"o":"m 289 -14 q 138 20 204 -14 q 32 111 72 54 l 144 214 q 204 158 168 178 q 283 139 240 139 q 364 158 331 139 q 415 214 397 178 q 433 300 433 250 l 433 972 l 593 972 l 593 313 q 555 142 593 215 q 449 27 517 68 q 289 -14 381 -14 z "},"K":{"ha":933,"x_min":106,"x_max":901,"o":"m 693 0 l 243 507 l 683 972 l 888 972 l 401 467 l 401 554 l 901 0 l 693 0 m 106 0 l 106 972 l 265 972 l 265 0 l 106 0 z "},"Ķ":{"ha":933,"x_min":106,"x_max":901,"o":"m 693 0 l 243 507 l 683 972 l 888 972 l 401 467 l 401 554 l 901 0 l 693 0 m 106 0 l 106 972 l 265 972 l 265 0 l 106 0 m 411 -508 l 326 -462 l 421 -286 l 472 -272 q 453 -300 464 -289 q 426 -311 442 -311 q 367 -284 394 -311 q 340 -215 340 -257 q 370 -140 340 -171 q 444 -108 400 -108 q 517 -140 486 -108 q 549 -215 549 -171 q 541 -258 549 -233 q 514 -319 533 -282 l 411 -508 z "},"L":{"ha":764,"x_min":106,"x_max":724,"o":"m 106 0 l 106 972 l 265 972 l 265 0 l 106 0 m 215 0 l 215 146 l 724 146 l 724 0 l 215 0 z "},"Ĺ":{"ha":764,"x_min":106,"x_max":724,"o":"m 106 0 l 106 972 l 265 972 l 265 0 l 106 0 m 215 0 l 215 146 l 724 146 l 724 0 l 215 0 m 336 1068 l 267 1138 l 444 1364 l 563 1246 l 336 1068 z "},"Ľ":{"ha":764,"x_min":106,"x_max":724,"o":"m 106 0 l 106 972 l 265 972 l 265 0 l 106 0 m 215 0 l 215 146 l 724 146 l 724 0 l 215 0 m 449 572 l 364 618 l 458 794 l 510 808 q 490 781 501 792 q 464 769 479 769 q 405 797 432 769 q 378 865 378 824 q 408 941 378 910 q 482 972 438 972 q 555 941 524 972 q 586 865 586 910 q 578 823 586 847 q 551 761 571 799 l 449 572 z "},"Ļ":{"ha":764,"x_min":106,"x_max":724,"o":"m 106 0 l 106 972 l 265 972 l 265 0 l 106 0 m 215 0 l 215 146 l 724 146 l 724 0 l 215 0 m 389 -508 l 304 -462 l 399 -286 l 450 -272 q 431 -300 442 -289 q 404 -311 419 -311 q 345 -284 372 -311 q 318 -215 318 -257 q 348 -140 318 -171 q 422 -108 378 -108 q 495 -140 464 -108 q 526 -215 526 -171 q 519 -258 526 -233 q 492 -319 511 -282 l 389 -508 z "},"Ł":{"ha":861,"x_min":85,"x_max":821,"o":"m 85 461 l 474 686 l 474 542 l 85 317 l 85 461 m 203 0 l 203 972 l 363 972 l 363 0 l 203 0 m 313 0 l 313 146 l 821 146 l 821 0 l 313 0 z "},"M":{"ha":1169,"x_min":106,"x_max":1064,"o":"m 106 0 l 106 972 l 217 972 l 621 307 l 549 307 l 953 972 l 1064 972 l 1064 0 l 904 0 l 904 692 l 940 682 l 640 189 l 529 189 l 229 682 l 265 692 l 265 0 l 106 0 z "},"N":{"ha":996,"x_min":106,"x_max":890,"o":"m 106 0 l 106 972 l 217 972 l 265 789 l 265 0 l 106 0 m 779 0 l 197 760 l 217 972 l 799 213 l 779 0 m 779 0 l 731 171 l 731 972 l 890 972 l 890 0 l 779 0 z "},"Ń":{"ha":996,"x_min":106,"x_max":890,"o":"m 106 0 l 106 972 l 217 972 l 265 789 l 265 0 l 106 0 m 779 0 l 197 760 l 217 972 l 799 213 l 779 0 m 779 0 l 731 171 l 731 972 l 890 972 l 890 0 l 779 0 m 419 1068 l 350 1138 l 528 1364 l 646 1246 l 419 1068 z "},"Ň":{"ha":996,"x_min":106,"x_max":890,"o":"m 106 0 l 106 972 l 217 972 l 265 789 l 265 0 l 106 0 m 779 0 l 197 760 l 217 972 l 799 213 l 779 0 m 779 0 l 731 171 l 731 972 l 890 972 l 890 0 l 779 0 m 675 1350 l 744 1281 l 556 1065 l 440 1065 l 251 1281 l 321 1350 l 549 1165 l 446 1167 l 675 1350 z "},"Ņ":{"ha":996,"x_min":106,"x_max":890,"o":"m 106 0 l 106 972 l 217 972 l 265 789 l 265 0 l 106 0 m 779 0 l 197 760 l 217 972 l 799 213 l 779 0 m 779 0 l 731 171 l 731 972 l 890 972 l 890 0 l 779 0 m 472 -508 l 388 -462 l 482 -286 l 533 -272 q 514 -300 525 -289 q 488 -311 503 -311 q 428 -284 456 -311 q 401 -215 401 -257 q 431 -140 401 -171 q 506 -108 461 -108 q 578 -140 547 -108 q 610 -215 610 -171 q 602 -258 610 -233 q 575 -319 594 -282 l 472 -508 z "},"Ñ":{"ha":996,"x_min":106,"x_max":890,"o":"m 106 0 l 106 972 l 217 972 l 265 789 l 265 0 l 106 0 m 779 0 l 197 760 l 217 972 l 799 213 l 779 0 m 779 0 l 731 171 l 731 972 l 890 972 l 890 0 l 779 0 m 599 1068 q 521 1085 553 1068 q 462 1117 489 1101 q 401 1133 435 1133 q 346 1121 367 1133 q 306 1083 325 1108 l 224 1165 q 304 1238 264 1211 q 399 1265 344 1265 q 476 1249 444 1265 q 536 1217 508 1233 q 596 1200 564 1200 q 653 1213 632 1200 q 692 1250 674 1225 l 774 1168 q 693 1095 733 1122 q 599 1068 653 1068 z "},"Ŋ":{"ha":996,"x_min":106,"x_max":890,"o":"m 106 0 l 106 972 l 217 972 l 265 789 l 265 0 l 106 0 m 779 0 l 197 760 l 217 972 l 799 213 l 779 0 m 779 0 l 731 171 l 731 972 l 890 972 l 890 0 l 779 0 m 657 -292 q 541 -269 586 -292 q 458 -204 496 -247 l 557 -106 q 594 -138 574 -128 q 646 -149 615 -149 q 710 -126 683 -149 q 738 -58 738 -103 l 738 667 l 890 667 l 890 -57 q 858 -185 890 -133 q 772 -265 825 -237 q 657 -292 719 -292 z "},"O":{"ha":1103,"x_min":56,"x_max":1046,"o":"m 553 -14 q 358 25 449 -14 q 200 133 268 64 q 94 292 132 201 q 56 488 56 383 q 94 682 56 592 q 199 841 132 772 q 356 948 267 910 q 550 986 446 986 q 744 948 654 986 q 901 841 833 910 q 1008 681 969 772 q 1046 486 1046 590 q 1008 291 1046 382 q 902 132 969 200 q 745 25 835 64 q 553 -14 656 -14 m 550 139 q 723 183 649 139 q 840 306 797 228 q 882 488 882 385 q 858 627 882 564 q 789 737 833 690 q 684 808 744 783 q 550 833 624 833 q 378 790 453 833 q 262 668 304 746 q 219 488 219 590 q 244 347 219 411 q 312 236 268 282 q 417 165 356 190 q 550 139 478 139 z "},"Ó":{"ha":1103,"x_min":56,"x_max":1046,"o":"m 553 -14 q 358 25 449 -14 q 200 133 268 64 q 94 292 132 201 q 56 488 56 383 q 94 682 56 592 q 199 841 132 772 q 356 948 267 910 q 550 986 446 986 q 744 948 654 986 q 901 841 833 910 q 1008 681 969 772 q 1046 486 1046 590 q 1008 291 1046 382 q 902 132 969 200 q 745 25 835 64 q 553 -14 656 -14 m 550 139 q 723 183 649 139 q 840 306 797 228 q 882 488 882 385 q 858 627 882 564 q 789 737 833 690 q 684 808 744 783 q 550 833 624 833 q 378 790 453 833 q 262 668 304 746 q 219 488 219 590 q 244 347 219 411 q 312 236 268 282 q 417 165 356 190 q 550 139 478 139 m 472 1068 l 403 1138 l 581 1364 l 699 1246 l 472 1068 z "},"Ô":{"ha":1103,"x_min":56,"x_max":1046,"o":"m 553 -14 q 358 25 449 -14 q 200 133 268 64 q 94 292 132 201 q 56 488 56 383 q 94 682 56 592 q 199 841 132 772 q 356 948 267 910 q 550 986 446 986 q 744 948 654 986 q 901 841 833 910 q 1008 681 969 772 q 1046 486 1046 590 q 1008 291 1046 382 q 902 132 969 200 q 745 25 835 64 q 553 -14 656 -14 m 550 139 q 723 183 649 139 q 840 306 797 228 q 882 488 882 385 q 858 627 882 564 q 789 737 833 690 q 684 808 744 783 q 550 833 624 833 q 378 790 453 833 q 262 668 304 746 q 219 488 219 590 q 244 347 219 411 q 312 236 268 282 q 417 165 356 190 q 550 139 478 139 m 374 1065 l 304 1135 l 493 1350 l 608 1350 l 797 1135 l 728 1065 l 500 1250 l 603 1249 l 374 1065 z "},"Ö":{"ha":1103,"x_min":56,"x_max":1046,"o":"m 553 -14 q 358 25 449 -14 q 200 133 268 64 q 94 292 132 201 q 56 488 56 383 q 94 682 56 592 q 199 841 132 772 q 356 948 267 910 q 550 986 446 986 q 744 948 654 986 q 901 841 833 910 q 1008 681 969 772 q 1046 486 1046 590 q 1008 291 1046 382 q 902 132 969 200 q 745 25 835 64 q 553 -14 656 -14 m 550 139 q 723 183 649 139 q 840 306 797 228 q 882 488 882 385 q 858 627 882 564 q 789 737 833 690 q 684 808 744 783 q 550 833 624 833 q 378 790 453 833 q 262 668 304 746 q 219 488 219 590 q 244 347 219 411 q 312 236 268 282 q 417 165 356 190 q 550 139 478 139 m 406 1081 q 341 1107 367 1081 q 315 1172 315 1133 q 341 1238 315 1211 q 406 1264 367 1264 q 471 1238 446 1264 q 496 1172 496 1211 q 471 1107 496 1133 q 406 1081 446 1081 m 697 1081 q 633 1107 658 1081 q 607 1172 607 1133 q 633 1238 607 1211 q 697 1264 658 1264 q 763 1238 738 1264 q 788 1172 788 1211 q 763 1107 788 1133 q 697 1081 738 1081 z "},"Ò":{"ha":1103,"x_min":56,"x_max":1046,"o":"m 553 -14 q 358 25 449 -14 q 200 133 268 64 q 94 292 132 201 q 56 488 56 383 q 94 682 56 592 q 199 841 132 772 q 356 948 267 910 q 550 986 446 986 q 744 948 654 986 q 901 841 833 910 q 1008 681 969 772 q 1046 486 1046 590 q 1008 291 1046 382 q 902 132 969 200 q 745 25 835 64 q 553 -14 656 -14 m 550 139 q 723 183 649 139 q 840 306 797 228 q 882 488 882 385 q 858 627 882 564 q 789 737 833 690 q 684 808 744 783 q 550 833 624 833 q 378 790 453 833 q 262 668 304 746 q 219 488 219 590 q 244 347 219 411 q 312 236 268 282 q 417 165 356 190 q 550 139 478 139 m 607 1054 l 381 1232 l 499 1350 l 676 1124 l 607 1054 z "},"Ő":{"ha":1103,"x_min":56,"x_max":1046,"o":"m 553 -14 q 358 25 449 -14 q 200 133 268 64 q 94 292 132 201 q 56 488 56 383 q 94 682 56 592 q 199 841 132 772 q 356 948 267 910 q 550 986 446 986 q 744 948 654 986 q 901 841 833 910 q 1008 681 969 772 q 1046 486 1046 590 q 1008 291 1046 382 q 902 132 969 200 q 745 25 835 64 q 553 -14 656 -14 m 550 139 q 723 183 649 139 q 840 306 797 228 q 882 488 882 385 q 858 627 882 564 q 789 737 833 690 q 684 808 744 783 q 550 833 624 833 q 378 790 453 833 q 262 668 304 746 q 219 488 219 590 q 244 347 219 411 q 312 236 268 282 q 417 165 356 190 q 550 139 478 139 m 404 1078 l 311 1111 l 376 1392 l 533 1333 l 404 1078 m 668 1078 l 575 1111 l 640 1392 l 797 1333 l 668 1078 z "},"Ō":{"ha":1103,"x_min":56,"x_max":1046,"o":"m 553 -14 q 358 25 449 -14 q 200 133 268 64 q 94 292 132 201 q 56 488 56 383 q 94 682 56 592 q 199 841 132 772 q 356 948 267 910 q 550 986 446 986 q 744 948 654 986 q 901 841 833 910 q 1008 681 969 772 q 1046 486 1046 590 q 1008 291 1046 382 q 902 132 969 200 q 745 25 835 64 q 553 -14 656 -14 m 550 139 q 723 183 649 139 q 840 306 797 228 q 882 488 882 385 q 858 627 882 564 q 789 737 833 690 q 684 808 744 783 q 550 833 624 833 q 378 790 453 833 q 262 668 304 746 q 219 488 219 590 q 244 347 219 411 q 312 236 268 282 q 417 165 356 190 q 550 139 478 139 m 290 1233 l 813 1233 l 813 1108 l 290 1108 l 290 1233 z "},"Ø":{"ha":1103,"x_min":56,"x_max":1046,"o":"m 940 981 l 1046 875 l 163 -8 l 57 97 l 940 981 m 553 -14 q 358 25 449 -14 q 200 133 268 64 q 94 292 132 201 q 56 488 56 383 q 94 682 56 592 q 199 841 132 772 q 356 948 267 910 q 550 986 446 986 q 744 948 654 986 q 901 841 833 910 q 1008 681 969 772 q 1046 486 1046 590 q 1008 291 1046 382 q 902 132 969 200 q 745 25 835 64 q 553 -14 656 -14 m 550 139 q 723 183 649 139 q 840 306 797 228 q 882 488 882 385 q 858 627 882 564 q 789 737 833 690 q 684 808 744 783 q 550 833 624 833 q 378 790 453 833 q 262 668 304 746 q 219 488 219 590 q 244 347 219 411 q 312 236 268 282 q 417 165 356 190 q 550 139 478 139 z "},"Õ":{"ha":1103,"x_min":56,"x_max":1046,"o":"m 553 -14 q 358 25 449 -14 q 200 133 268 64 q 94 292 132 201 q 56 488 56 383 q 94 682 56 592 q 199 841 132 772 q 356 948 267 910 q 550 986 446 986 q 744 948 654 986 q 901 841 833 910 q 1008 681 969 772 q 1046 486 1046 590 q 1008 291 1046 382 q 902 132 969 200 q 745 25 835 64 q 553 -14 656 -14 m 550 139 q 723 183 649 139 q 840 306 797 228 q 882 488 882 385 q 858 627 882 564 q 789 737 833 690 q 684 808 744 783 q 550 833 624 833 q 378 790 453 833 q 262 668 304 746 q 219 488 219 590 q 244 347 219 411 q 312 236 268 282 q 417 165 356 190 q 550 139 478 139 m 651 1068 q 574 1085 606 1068 q 515 1117 542 1101 q 454 1133 488 1133 q 399 1121 419 1133 q 358 1083 378 1108 l 276 1165 q 357 1238 317 1211 q 451 1265 397 1265 q 529 1249 497 1265 q 589 1217 561 1233 q 649 1200 617 1200 q 706 1213 685 1200 q 744 1250 726 1225 l 826 1168 q 746 1095 786 1122 q 651 1068 706 1068 z "},"Œ":{"ha":1596,"x_min":56,"x_max":1536,"o":"m 553 -14 q 358 25 449 -14 q 200 133 268 64 q 94 292 132 201 q 56 488 56 383 q 94 682 56 592 q 199 841 132 772 q 356 948 267 910 q 550 986 446 986 q 738 948 654 986 q 881 841 821 910 q 972 681 940 772 q 1004 486 1004 590 q 972 291 1004 382 q 881 132 940 200 q 739 25 822 64 q 553 -14 656 -14 m 550 139 q 723 183 649 139 q 840 306 797 228 q 882 488 882 385 q 840 667 882 589 q 722 789 797 744 q 550 833 647 833 q 378 790 453 833 q 262 668 304 746 q 219 488 219 590 q 244 347 219 411 q 312 236 268 282 q 417 165 356 190 q 550 139 478 139 m 882 0 l 882 972 l 1042 972 l 1042 0 l 882 0 m 992 0 l 992 146 l 1536 146 l 1536 0 l 992 0 m 992 426 l 992 567 l 1489 567 l 1489 426 l 992 426 m 992 826 l 992 972 l 1529 972 l 1529 826 l 992 826 z "},"P":{"ha":839,"x_min":106,"x_max":789,"o":"m 215 367 l 215 506 l 458 506 q 547 526 508 506 q 607 583 585 546 q 629 669 629 619 q 607 756 629 719 q 547 813 585 793 q 458 833 508 833 l 215 833 l 215 972 l 467 972 q 631 935 558 972 q 747 829 704 897 q 789 669 789 761 q 747 510 789 578 q 631 404 704 442 q 467 367 558 367 l 215 367 m 106 0 l 106 972 l 265 972 l 265 0 l 106 0 z "},"Þ":{"ha":839,"x_min":106,"x_max":789,"o":"m 215 194 l 215 333 l 458 333 q 547 353 508 333 q 607 410 585 374 q 629 497 629 447 q 607 584 629 547 q 547 641 585 621 q 458 661 508 661 l 215 661 l 215 800 l 467 800 q 631 763 558 800 q 747 657 704 725 q 789 497 789 589 q 747 338 789 406 q 631 232 704 269 q 467 194 558 194 l 215 194 m 106 0 l 106 972 l 265 972 l 265 0 l 106 0 z "},"Q":{"ha":1139,"x_min":57,"x_max":1101,"o":"m 554 -14 q 360 25 450 -14 q 201 133 269 64 q 95 292 133 201 q 57 488 57 383 q 95 682 57 592 q 201 841 133 772 q 358 948 268 910 q 551 986 447 986 q 745 948 656 986 q 903 841 835 910 q 1009 681 971 772 q 1047 486 1047 590 q 1009 291 1047 382 q 903 132 971 200 q 747 25 836 64 q 554 -14 657 -14 m 999 -67 l 561 371 l 664 474 l 1101 36 l 999 -67 m 551 139 q 724 183 650 139 q 841 306 799 228 q 883 488 883 385 q 859 627 883 564 q 790 737 835 690 q 685 808 746 783 q 551 833 625 833 q 380 790 454 833 q 263 668 306 746 q 221 488 221 590 q 245 347 221 411 q 313 236 269 282 q 418 165 357 190 q 551 139 479 139 z "},"R":{"ha":872,"x_min":106,"x_max":840,"o":"m 215 413 l 215 544 l 461 544 q 576 583 535 544 q 617 689 617 621 q 576 792 617 750 q 463 833 536 833 l 215 833 l 215 972 l 469 972 q 631 935 561 972 q 738 835 700 899 q 776 692 776 772 q 738 544 776 607 q 631 447 700 482 q 469 413 561 413 l 215 413 m 106 0 l 106 972 l 265 972 l 265 0 l 106 0 m 639 0 l 299 422 l 447 476 l 840 0 l 639 0 z "},"Ŕ":{"ha":872,"x_min":106,"x_max":840,"o":"m 215 413 l 215 544 l 461 544 q 576 583 535 544 q 617 689 617 621 q 576 792 617 750 q 463 833 536 833 l 215 833 l 215 972 l 469 972 q 631 935 561 972 q 738 835 700 899 q 776 692 776 772 q 738 544 776 607 q 631 447 700 482 q 469 413 561 413 l 215 413 m 106 0 l 106 972 l 265 972 l 265 0 l 106 0 m 639 0 l 299 422 l 447 476 l 840 0 l 639 0 m 333 1068 l 264 1138 l 442 1364 l 560 1246 l 333 1068 z "},"Ř":{"ha":872,"x_min":106,"x_max":840,"o":"m 215 413 l 215 544 l 461 544 q 576 583 535 544 q 617 689 617 621 q 576 792 617 750 q 463 833 536 833 l 215 833 l 215 972 l 469 972 q 631 935 561 972 q 738 835 700 899 q 776 692 776 772 q 738 544 776 607 q 631 447 700 482 q 469 413 561 413 l 215 413 m 106 0 l 106 972 l 265 972 l 265 0 l 106 0 m 639 0 l 299 422 l 447 476 l 840 0 l 639 0 m 589 1350 l 658 1281 l 469 1065 l 354 1065 l 165 1281 l 235 1350 l 463 1165 l 360 1167 l 589 1350 z "},"Ŗ":{"ha":872,"x_min":106,"x_max":840,"o":"m 215 413 l 215 544 l 461 544 q 576 583 535 544 q 617 689 617 621 q 576 792 617 750 q 463 833 536 833 l 215 833 l 215 972 l 469 972 q 631 935 561 972 q 738 835 700 899 q 776 692 776 772 q 738 544 776 607 q 631 447 700 482 q 469 413 561 413 l 215 413 m 106 0 l 106 972 l 265 972 l 265 0 l 106 0 m 639 0 l 299 422 l 447 476 l 840 0 l 639 0 m 407 -508 l 322 -462 l 417 -286 l 468 -272 q 449 -300 460 -289 q 422 -311 438 -311 q 363 -284 390 -311 q 336 -215 336 -257 q 366 -140 336 -171 q 440 -108 396 -108 q 513 -140 482 -108 q 544 -215 544 -171 q 537 -258 544 -233 q 510 -319 529 -282 l 407 -508 z "},"S":{"ha":772,"x_min":36,"x_max":718,"o":"m 376 -14 q 181 28 261 -14 q 36 150 100 69 l 144 258 q 240 167 185 200 q 382 135 296 135 q 510 168 463 135 q 558 260 558 201 q 533 339 558 308 q 467 390 508 369 q 377 426 426 410 q 278 462 328 442 q 188 513 229 482 q 122 592 147 543 q 97 715 97 640 q 140 862 97 801 q 254 954 182 922 q 415 986 326 986 q 587 949 511 986 q 710 853 663 911 l 601 744 q 515 815 560 792 q 411 838 469 838 q 298 808 339 838 q 257 726 257 779 q 282 655 257 682 q 348 609 307 628 q 438 574 389 590 q 537 536 488 557 q 627 483 586 515 q 693 399 668 450 q 718 269 718 347 q 626 63 718 139 q 376 -14 533 -14 z "},"Ś":{"ha":772,"x_min":36,"x_max":718,"o":"m 376 -14 q 181 28 261 -14 q 36 150 100 69 l 144 258 q 240 167 185 200 q 382 135 296 135 q 510 168 463 135 q 558 260 558 201 q 533 339 558 308 q 467 390 508 369 q 377 426 426 410 q 278 462 328 442 q 188 513 229 482 q 122 592 147 543 q 97 715 97 640 q 140 862 97 801 q 254 954 182 922 q 415 986 326 986 q 587 949 511 986 q 710 853 663 911 l 601 744 q 515 815 560 792 q 411 838 469 838 q 298 808 339 838 q 257 726 257 779 q 282 655 257 682 q 348 609 307 628 q 438 574 389 590 q 537 536 488 557 q 627 483 586 515 q 693 399 668 450 q 718 269 718 347 q 626 63 718 139 q 376 -14 533 -14 m 336 1068 l 267 1138 l 444 1364 l 563 1246 l 336 1068 z "},"Š":{"ha":772,"x_min":36,"x_max":718,"o":"m 376 -14 q 181 28 261 -14 q 36 150 100 69 l 144 258 q 240 167 185 200 q 382 135 296 135 q 510 168 463 135 q 558 260 558 201 q 533 339 558 308 q 467 390 508 369 q 377 426 426 410 q 278 462 328 442 q 188 513 229 482 q 122 592 147 543 q 97 715 97 640 q 140 862 97 801 q 254 954 182 922 q 415 986 326 986 q 587 949 511 986 q 710 853 663 911 l 601 744 q 515 815 560 792 q 411 838 469 838 q 298 808 339 838 q 257 726 257 779 q 282 655 257 682 q 348 609 307 628 q 438 574 389 590 q 537 536 488 557 q 627 483 586 515 q 693 399 668 450 q 718 269 718 347 q 626 63 718 139 q 376 -14 533 -14 m 592 1350 l 661 1281 l 472 1065 l 357 1065 l 168 1281 l 238 1350 l 465 1165 l 363 1167 l 592 1350 z "},"Ş":{"ha":772,"x_min":36,"x_max":718,"o":"m 376 -14 q 181 28 261 -14 q 36 150 100 69 l 144 258 q 240 167 185 200 q 382 135 296 135 q 510 168 463 135 q 558 260 558 201 q 533 339 558 308 q 467 390 508 369 q 377 426 426 410 q 278 462 328 442 q 188 513 229 482 q 122 592 147 543 q 97 715 97 640 q 140 862 97 801 q 254 954 182 922 q 415 986 326 986 q 587 949 511 986 q 710 853 663 911 l 601 744 q 515 815 560 792 q 411 838 469 838 q 298 808 339 838 q 257 726 257 779 q 282 655 257 682 q 348 609 307 628 q 438 574 389 590 q 537 536 488 557 q 627 483 586 515 q 693 399 668 450 q 718 269 718 347 q 626 63 718 139 q 376 -14 533 -14 m 357 -292 q 267 -279 306 -292 q 192 -243 228 -267 l 254 -164 q 292 -187 269 -178 q 346 -196 314 -196 q 398 -186 382 -196 q 414 -162 414 -176 q 399 -135 414 -147 q 353 -124 385 -124 l 281 -124 l 326 19 l 438 19 l 404 -81 l 349 -39 q 488 -73 435 -36 q 540 -165 540 -110 q 490 -256 540 -219 q 357 -292 439 -292 z "},"Ș":{"ha":772,"x_min":36,"x_max":718,"o":"m 376 -14 q 181 28 261 -14 q 36 150 100 69 l 144 258 q 240 167 185 200 q 382 135 296 135 q 510 168 463 135 q 558 260 558 201 q 533 339 558 308 q 467 390 508 369 q 377 426 426 410 q 278 462 328 442 q 188 513 229 482 q 122 592 147 543 q 97 715 97 640 q 140 862 97 801 q 254 954 182 922 q 415 986 326 986 q 587 949 511 986 q 710 853 663 911 l 601 744 q 515 815 560 792 q 411 838 469 838 q 298 808 339 838 q 257 726 257 779 q 282 655 257 682 q 348 609 307 628 q 438 574 389 590 q 537 536 488 557 q 627 483 586 515 q 693 399 668 450 q 718 269 718 347 q 626 63 718 139 q 376 -14 533 -14 m 356 -508 l 271 -462 l 365 -286 l 417 -272 q 397 -300 408 -289 q 371 -311 386 -311 q 312 -284 339 -311 q 285 -215 285 -257 q 315 -140 285 -171 q 389 -108 344 -108 q 462 -140 431 -108 q 493 -215 493 -171 q 485 -258 493 -233 q 458 -319 478 -282 l 356 -508 z "},"ẞ":{"ha":997,"x_min":106,"x_max":940,"o":"m 478 568 l 731 847 l 882 807 l 658 564 l 478 474 l 478 568 m 588 -17 q 460 -4 506 -17 q 388 31 415 8 l 388 231 q 469 160 417 186 q 585 133 522 133 q 688 156 644 133 q 755 218 731 178 q 779 311 779 258 q 755 406 779 367 q 685 466 731 444 q 576 488 640 488 q 525 484 551 488 q 478 474 499 481 l 549 565 q 610 584 578 576 q 674 592 643 592 q 809 556 749 592 q 905 455 869 519 q 940 303 940 390 q 896 136 940 208 q 772 24 851 64 q 588 -17 693 -17 m 517 1006 q 649 992 583 1006 q 767 959 714 978 q 851 926 819 940 q 882 913 882 913 l 882 807 q 854 813 882 807 q 782 829 826 819 q 688 849 738 839 q 592 865 638 858 q 518 871 547 871 q 381 842 439 871 q 290 767 322 814 q 258 664 258 719 l 258 0 l 106 0 l 106 675 q 163 853 106 779 q 313 966 219 926 q 517 1006 407 1006 z "},"T":{"ha":860,"x_min":33,"x_max":826,"o":"m 350 0 l 350 944 l 510 944 l 510 0 l 350 0 m 33 826 l 33 972 l 826 972 l 826 826 l 33 826 z "},"Ť":{"ha":860,"x_min":33,"x_max":826,"o":"m 350 0 l 350 944 l 510 944 l 510 0 l 350 0 m 33 826 l 33 972 l 826 972 l 826 826 l 33 826 m 607 1350 l 676 1281 l 488 1065 l 372 1065 l 183 1281 l 253 1350 l 481 1165 l 378 1167 l 607 1350 z "},"Ț":{"ha":860,"x_min":33,"x_max":826,"o":"m 350 0 l 350 944 l 510 944 l 510 0 l 350 0 m 33 826 l 33 972 l 826 972 l 826 826 l 33 826 m 404 -508 l 319 -462 l 414 -286 l 465 -272 q 446 -300 457 -289 q 419 -311 435 -311 q 360 -284 388 -311 q 333 -215 333 -257 q 363 -140 333 -171 q 438 -108 393 -108 q 510 -140 479 -108 q 542 -215 542 -171 q 534 -258 542 -233 q 507 -319 526 -282 l 404 -508 z "},"U":{"ha":958,"x_min":94,"x_max":864,"o":"m 481 -14 q 283 36 371 -14 q 145 173 196 86 q 94 369 94 260 l 94 972 l 254 972 l 254 371 q 284 248 254 300 q 365 167 314 196 q 481 139 417 139 q 596 167 546 139 q 675 248 646 196 q 704 369 704 300 l 704 972 l 864 972 l 864 368 q 814 172 864 258 q 678 36 764 86 q 481 -14 592 -14 z "},"Ú":{"ha":958,"x_min":94,"x_max":864,"o":"m 481 -14 q 283 36 371 -14 q 145 173 196 86 q 94 369 94 260 l 94 972 l 254 972 l 254 371 q 284 248 254 300 q 365 167 314 196 q 481 139 417 139 q 596 167 546 139 q 675 248 646 196 q 704 369 704 300 l 704 972 l 864 972 l 864 368 q 814 172 864 258 q 678 36 764 86 q 481 -14 592 -14 m 400 1068 l 331 1138 l 508 1364 l 626 1246 l 400 1068 z "},"Ŭ":{"ha":958,"x_min":94,"x_max":864,"o":"m 481 -14 q 283 36 371 -14 q 145 173 196 86 q 94 369 94 260 l 94 972 l 254 972 l 254 371 q 284 248 254 300 q 365 167 314 196 q 481 139 417 139 q 596 167 546 139 q 675 248 646 196 q 704 369 704 300 l 704 972 l 864 972 l 864 368 q 814 172 864 258 q 678 36 764 86 q 481 -14 592 -14 m 725 1294 q 693 1172 725 1226 q 606 1084 661 1117 q 481 1051 551 1051 q 353 1084 410 1051 q 265 1172 297 1117 q 232 1294 232 1226 l 371 1294 q 401 1215 371 1247 q 481 1183 431 1183 q 535 1198 511 1183 q 574 1238 560 1213 q 588 1294 588 1264 l 725 1294 z "},"Û":{"ha":958,"x_min":94,"x_max":864,"o":"m 481 -14 q 283 36 371 -14 q 145 173 196 86 q 94 369 94 260 l 94 972 l 254 972 l 254 371 q 284 248 254 300 q 365 167 314 196 q 481 139 417 139 q 596 167 546 139 q 675 248 646 196 q 704 369 704 300 l 704 972 l 864 972 l 864 368 q 814 172 864 258 q 678 36 764 86 q 481 -14 592 -14 m 301 1065 l 232 1135 l 421 1350 l 536 1350 l 725 1135 l 656 1065 l 428 1250 l 531 1249 l 301 1065 z "},"Ü":{"ha":958,"x_min":94,"x_max":864,"o":"m 481 -14 q 283 36 371 -14 q 145 173 196 86 q 94 369 94 260 l 94 972 l 254 972 l 254 371 q 284 248 254 300 q 365 167 314 196 q 481 139 417 139 q 596 167 546 139 q 675 248 646 196 q 704 369 704 300 l 704 972 l 864 972 l 864 368 q 814 172 864 258 q 678 36 764 86 q 481 -14 592 -14 m 333 1081 q 269 1107 294 1081 q 243 1172 243 1133 q 269 1238 243 1211 q 333 1264 294 1264 q 399 1238 374 1264 q 424 1172 424 1211 q 399 1107 424 1133 q 333 1081 374 1081 m 625 1081 q 560 1107 586 1081 q 535 1172 535 1133 q 560 1238 535 1211 q 625 1264 586 1264 q 690 1238 665 1264 q 715 1172 715 1211 q 690 1107 715 1133 q 625 1081 665 1081 z "},"Ù":{"ha":958,"x_min":94,"x_max":864,"o":"m 481 -14 q 283 36 371 -14 q 145 173 196 86 q 94 369 94 260 l 94 972 l 254 972 l 254 371 q 284 248 254 300 q 365 167 314 196 q 481 139 417 139 q 596 167 546 139 q 675 248 646 196 q 704 369 704 300 l 704 972 l 864 972 l 864 368 q 814 172 864 258 q 678 36 764 86 q 481 -14 592 -14 m 535 1054 l 308 1232 l 426 1350 l 604 1124 l 535 1054 z "},"Ű":{"ha":958,"x_min":94,"x_max":864,"o":"m 481 -14 q 283 36 371 -14 q 145 173 196 86 q 94 369 94 260 l 94 972 l 254 972 l 254 371 q 284 248 254 300 q 365 167 314 196 q 481 139 417 139 q 596 167 546 139 q 675 248 646 196 q 704 369 704 300 l 704 972 l 864 972 l 864 368 q 814 172 864 258 q 678 36 764 86 q 481 -14 592 -14 m 332 1078 l 239 1111 l 304 1392 l 461 1333 l 332 1078 m 596 1078 l 503 1111 l 568 1392 l 725 1333 l 596 1078 z "},"Ū":{"ha":958,"x_min":94,"x_max":864,"o":"m 481 -14 q 283 36 371 -14 q 145 173 196 86 q 94 369 94 260 l 94 972 l 254 972 l 254 371 q 284 248 254 300 q 365 167 314 196 q 481 139 417 139 q 596 167 546 139 q 675 248 646 196 q 704 369 704 300 l 704 972 l 864 972 l 864 368 q 814 172 864 258 q 678 36 764 86 q 481 -14 592 -14 m 218 1233 l 740 1233 l 740 1108 l 218 1108 l 218 1233 z "},"Ų":{"ha":958,"x_min":94,"x_max":864,"o":"m 481 -14 q 283 36 371 -14 q 145 173 196 86 q 94 369 94 260 l 94 972 l 254 972 l 254 371 q 284 248 254 300 q 365 167 314 196 q 481 139 417 139 q 596 167 546 139 q 675 248 646 196 q 704 369 704 300 l 704 972 l 864 972 l 864 368 q 814 172 864 258 q 678 36 764 86 q 481 -14 592 -14 m 554 -278 q 447 -249 494 -278 q 400 -150 400 -221 q 436 -43 400 -92 q 549 42 472 6 l 629 14 q 548 -49 579 -14 q 517 -126 517 -83 q 531 -165 517 -150 q 572 -179 544 -179 q 609 -172 593 -179 q 636 -160 625 -165 l 675 -244 q 627 -267 656 -256 q 554 -278 599 -278 z "},"Ů":{"ha":958,"x_min":94,"x_max":864,"o":"m 481 -14 q 283 36 371 -14 q 145 173 196 86 q 94 369 94 260 l 94 972 l 254 972 l 254 371 q 284 248 254 300 q 365 167 314 196 q 481 139 417 139 q 596 167 546 139 q 675 248 646 196 q 704 369 704 300 l 704 972 l 864 972 l 864 368 q 814 172 864 258 q 678 36 764 86 q 481 -14 592 -14 m 481 1051 q 390 1074 429 1051 q 327 1136 350 1097 q 304 1224 304 1175 q 327 1311 304 1272 q 390 1373 350 1350 q 481 1396 429 1396 q 569 1373 531 1396 q 631 1311 608 1350 q 653 1224 653 1272 q 631 1136 653 1175 q 569 1074 608 1097 q 481 1051 531 1051 m 481 1160 q 524 1178 506 1160 q 542 1224 542 1197 q 524 1269 542 1251 q 481 1288 506 1288 q 434 1269 451 1288 q 417 1224 417 1251 q 434 1178 417 1197 q 481 1160 451 1160 z "},"V":{"ha":967,"x_min":33,"x_max":933,"o":"m 426 0 l 33 972 l 207 972 l 514 185 l 453 185 l 763 972 l 933 972 l 538 0 l 426 0 z "},"W":{"ha":1364,"x_min":36,"x_max":1328,"o":"m 356 0 l 36 972 l 193 972 l 433 224 l 392 224 l 626 972 l 738 972 l 972 224 l 931 224 l 1171 972 l 1328 972 l 1008 0 l 897 0 l 661 747 l 703 747 l 467 0 l 356 0 z "},"Ẃ":{"ha":1364,"x_min":36,"x_max":1328,"o":"m 356 0 l 36 972 l 193 972 l 433 224 l 392 224 l 626 972 l 738 972 l 972 224 l 931 224 l 1171 972 l 1328 972 l 1008 0 l 897 0 l 661 747 l 703 747 l 467 0 l 356 0 m 603 1068 l 533 1138 l 711 1364 l 829 1246 l 603 1068 z "},"Ŵ":{"ha":1364,"x_min":36,"x_max":1328,"o":"m 356 0 l 36 972 l 193 972 l 433 224 l 392 224 l 626 972 l 738 972 l 972 224 l 931 224 l 1171 972 l 1328 972 l 1008 0 l 897 0 l 661 747 l 703 747 l 467 0 l 356 0 m 504 1065 l 435 1135 l 624 1350 l 739 1350 l 928 1135 l 858 1065 l 631 1250 l 733 1249 l 504 1065 z "},"Ẅ":{"ha":1364,"x_min":36,"x_max":1328,"o":"m 356 0 l 36 972 l 193 972 l 433 224 l 392 224 l 626 972 l 738 972 l 972 224 l 931 224 l 1171 972 l 1328 972 l 1008 0 l 897 0 l 661 747 l 703 747 l 467 0 l 356 0 m 536 1081 q 472 1107 497 1081 q 446 1172 446 1133 q 472 1238 446 1211 q 536 1264 497 1264 q 601 1238 576 1264 q 626 1172 626 1211 q 601 1107 626 1133 q 536 1081 576 1081 m 828 1081 q 763 1107 789 1081 q 738 1172 738 1133 q 763 1238 738 1211 q 828 1264 789 1264 q 893 1238 868 1264 q 918 1172 918 1211 q 893 1107 918 1133 q 828 1081 868 1081 z "},"Ẁ":{"ha":1364,"x_min":36,"x_max":1328,"o":"m 356 0 l 36 972 l 193 972 l 433 224 l 392 224 l 626 972 l 738 972 l 972 224 l 931 224 l 1171 972 l 1328 972 l 1008 0 l 897 0 l 661 747 l 703 747 l 467 0 l 356 0 m 738 1054 l 511 1232 l 629 1350 l 807 1124 l 738 1054 z "},"X":{"ha":969,"x_min":33,"x_max":936,"o":"m 750 0 l 464 433 l 435 433 l 50 972 l 239 972 l 526 564 l 556 564 l 936 0 l 750 0 m 33 0 l 403 519 l 513 426 l 213 0 l 33 0 m 567 465 l 457 558 l 740 972 l 919 972 l 567 465 z "},"Y":{"ha":933,"x_min":31,"x_max":903,"o":"m 410 389 l 31 972 l 215 972 l 511 507 l 425 507 l 721 972 l 903 972 l 521 389 l 410 389 m 388 0 l 388 489 l 547 489 l 547 0 l 388 0 z "},"Ý":{"ha":933,"x_min":31,"x_max":903,"o":"m 410 389 l 31 972 l 215 972 l 511 507 l 425 507 l 721 972 l 903 972 l 521 389 l 410 389 m 388 0 l 388 489 l 547 489 l 547 0 l 388 0 m 388 1068 l 318 1138 l 496 1364 l 614 1246 l 388 1068 z "},"Ŷ":{"ha":933,"x_min":31,"x_max":903,"o":"m 410 389 l 31 972 l 215 972 l 511 507 l 425 507 l 721 972 l 903 972 l 521 389 l 410 389 m 388 0 l 388 489 l 547 489 l 547 0 l 388 0 m 289 1065 l 219 1135 l 408 1350 l 524 1350 l 713 1135 l 643 1065 l 415 1250 l 518 1249 l 289 1065 z "},"Ÿ":{"ha":933,"x_min":31,"x_max":903,"o":"m 410 389 l 31 972 l 215 972 l 511 507 l 425 507 l 721 972 l 903 972 l 521 389 l 410 389 m 388 0 l 388 489 l 547 489 l 547 0 l 388 0 m 321 1081 q 256 1107 282 1081 q 231 1172 231 1133 q 256 1238 231 1211 q 321 1264 282 1264 q 386 1238 361 1264 q 411 1172 411 1211 q 386 1107 411 1133 q 321 1081 361 1081 m 613 1081 q 548 1107 574 1081 q 522 1172 522 1133 q 548 1238 522 1211 q 613 1264 574 1264 q 678 1238 653 1264 q 703 1172 703 1211 q 678 1107 703 1133 q 613 1081 653 1081 z "},"Ỳ":{"ha":933,"x_min":31,"x_max":903,"o":"m 410 389 l 31 972 l 215 972 l 511 507 l 425 507 l 721 972 l 903 972 l 521 389 l 410 389 m 388 0 l 388 489 l 547 489 l 547 0 l 388 0 m 522 1054 l 296 1232 l 414 1350 l 592 1124 l 522 1054 z "},"Z":{"ha":818,"x_min":47,"x_max":765,"o":"m 47 111 l 578 861 l 765 861 l 235 111 l 47 111 m 47 0 l 47 111 l 185 146 l 754 146 l 754 0 l 47 0 m 79 826 l 79 972 l 765 972 l 765 861 l 626 826 l 79 826 z "},"Ź":{"ha":818,"x_min":47,"x_max":765,"o":"m 47 111 l 578 861 l 765 861 l 235 111 l 47 111 m 47 0 l 47 111 l 185 146 l 754 146 l 754 0 l 47 0 m 79 826 l 79 972 l 765 972 l 765 861 l 626 826 l 79 826 m 325 1068 l 256 1138 l 433 1364 l 551 1246 l 325 1068 z "},"Ž":{"ha":818,"x_min":47,"x_max":765,"o":"m 47 111 l 578 861 l 765 861 l 235 111 l 47 111 m 47 0 l 47 111 l 185 146 l 754 146 l 754 0 l 47 0 m 79 826 l 79 972 l 765 972 l 765 861 l 626 826 l 79 826 m 581 1350 l 650 1281 l 461 1065 l 346 1065 l 157 1281 l 226 1350 l 454 1165 l 351 1167 l 581 1350 z "},"Ż":{"ha":818,"x_min":47,"x_max":765,"o":"m 47 111 l 578 861 l 765 861 l 235 111 l 47 111 m 47 0 l 47 111 l 185 146 l 754 146 l 754 0 l 47 0 m 79 826 l 79 972 l 765 972 l 765 861 l 626 826 l 79 826 m 404 1081 q 340 1107 365 1081 q 314 1172 314 1133 q 340 1238 314 1211 q 404 1264 365 1264 q 469 1238 444 1264 q 494 1172 494 1211 q 469 1107 494 1133 q 404 1081 444 1081 z "},"a":{"ha":806,"x_min":43,"x_max":721,"o":"m 364 -14 q 201 32 274 -14 q 85 156 128 78 q 43 332 43 235 q 85 509 43 431 q 201 634 128 588 q 364 681 274 681 q 499 648 440 681 q 593 558 558 615 q 628 429 628 501 l 628 238 q 594 108 628 165 q 500 19 560 51 q 364 -14 440 -14 m 389 131 q 526 188 474 131 q 578 333 578 244 q 554 439 578 393 q 488 510 531 485 q 389 536 446 536 q 291 510 333 536 q 224 439 249 485 q 200 333 200 393 q 224 228 200 274 q 291 156 249 182 q 389 131 333 131 m 568 0 l 568 179 l 594 342 l 568 503 l 568 667 l 721 667 l 721 0 l 568 0 z "},"á":{"ha":806,"x_min":43,"x_max":721,"o":"m 364 -14 q 201 32 274 -14 q 85 156 128 78 q 43 332 43 235 q 85 509 43 431 q 201 634 128 588 q 364 681 274 681 q 499 648 440 681 q 593 558 558 615 q 628 429 628 501 l 628 238 q 594 108 628 165 q 500 19 560 51 q 364 -14 440 -14 m 389 131 q 526 188 474 131 q 578 333 578 244 q 554 439 578 393 q 488 510 531 485 q 389 536 446 536 q 291 510 333 536 q 224 439 249 485 q 200 333 200 393 q 224 228 200 274 q 291 156 249 182 q 389 131 333 131 m 568 0 l 568 179 l 594 342 l 568 503 l 568 667 l 721 667 l 721 0 l 568 0 m 324 763 l 254 832 l 432 1058 l 550 940 l 324 763 z "},"ă":{"ha":806,"x_min":43,"x_max":721,"o":"m 364 -14 q 201 32 274 -14 q 85 156 128 78 q 43 332 43 235 q 85 509 43 431 q 201 634 128 588 q 364 681 274 681 q 499 648 440 681 q 593 558 558 615 q 628 429 628 501 l 628 238 q 594 108 628 165 q 500 19 560 51 q 364 -14 440 -14 m 389 131 q 526 188 474 131 q 578 333 578 244 q 554 439 578 393 q 488 510 531 485 q 389 536 446 536 q 291 510 333 536 q 224 439 249 485 q 200 333 200 393 q 224 228 200 274 q 291 156 249 182 q 389 131 333 131 m 568 0 l 568 179 l 594 342 l 568 503 l 568 667 l 721 667 l 721 0 l 568 0 m 649 989 q 617 866 649 921 q 530 778 585 811 q 404 746 475 746 q 277 778 333 746 q 188 866 221 811 q 156 989 156 921 l 294 989 q 324 910 294 942 q 404 878 354 878 q 459 892 435 878 q 497 933 483 907 q 511 989 511 958 l 649 989 z "},"ǎ":{"ha":806,"x_min":43,"x_max":721,"o":"m 364 -14 q 201 32 274 -14 q 85 156 128 78 q 43 332 43 235 q 85 509 43 431 q 201 634 128 588 q 364 681 274 681 q 499 648 440 681 q 593 558 558 615 q 628 429 628 501 l 628 238 q 594 108 628 165 q 500 19 560 51 q 364 -14 440 -14 m 389 131 q 526 188 474 131 q 578 333 578 244 q 554 439 578 393 q 488 510 531 485 q 389 536 446 536 q 291 510 333 536 q 224 439 249 485 q 200 333 200 393 q 224 228 200 274 q 291 156 249 182 q 389 131 333 131 m 568 0 l 568 179 l 594 342 l 568 503 l 568 667 l 721 667 l 721 0 l 568 0 m 579 1044 l 649 975 l 460 760 l 344 760 l 156 975 l 225 1044 l 453 860 l 350 861 l 579 1044 z "},"â":{"ha":806,"x_min":43,"x_max":721,"o":"m 364 -14 q 201 32 274 -14 q 85 156 128 78 q 43 332 43 235 q 85 509 43 431 q 201 634 128 588 q 364 681 274 681 q 499 648 440 681 q 593 558 558 615 q 628 429 628 501 l 628 238 q 594 108 628 165 q 500 19 560 51 q 364 -14 440 -14 m 389 131 q 526 188 474 131 q 578 333 578 244 q 554 439 578 393 q 488 510 531 485 q 389 536 446 536 q 291 510 333 536 q 224 439 249 485 q 200 333 200 393 q 224 228 200 274 q 291 156 249 182 q 389 131 333 131 m 568 0 l 568 179 l 594 342 l 568 503 l 568 667 l 721 667 l 721 0 l 568 0 m 225 760 l 156 829 l 344 1044 l 460 1044 l 649 829 l 579 760 l 351 944 l 454 943 l 225 760 z "},"ä":{"ha":806,"x_min":43,"x_max":721,"o":"m 364 -14 q 201 32 274 -14 q 85 156 128 78 q 43 332 43 235 q 85 509 43 431 q 201 634 128 588 q 364 681 274 681 q 499 648 440 681 q 593 558 558 615 q 628 429 628 501 l 628 238 q 594 108 628 165 q 500 19 560 51 q 364 -14 440 -14 m 389 131 q 526 188 474 131 q 578 333 578 244 q 554 439 578 393 q 488 510 531 485 q 389 536 446 536 q 291 510 333 536 q 224 439 249 485 q 200 333 200 393 q 224 228 200 274 q 291 156 249 182 q 389 131 333 131 m 568 0 l 568 179 l 594 342 l 568 503 l 568 667 l 721 667 l 721 0 l 568 0 m 257 775 q 192 801 218 775 q 167 867 167 828 q 192 932 167 906 q 257 958 218 958 q 322 932 297 958 q 347 867 347 906 q 322 801 347 828 q 257 775 297 775 m 549 775 q 484 801 510 775 q 458 867 458 828 q 484 932 458 906 q 549 958 510 958 q 614 932 589 958 q 639 867 639 906 q 614 801 639 828 q 549 775 589 775 z "},"à":{"ha":806,"x_min":43,"x_max":721,"o":"m 364 -14 q 201 32 274 -14 q 85 156 128 78 q 43 332 43 235 q 85 509 43 431 q 201 634 128 588 q 364 681 274 681 q 499 648 440 681 q 593 558 558 615 q 628 429 628 501 l 628 238 q 594 108 628 165 q 500 19 560 51 q 364 -14 440 -14 m 389 131 q 526 188 474 131 q 578 333 578 244 q 554 439 578 393 q 488 510 531 485 q 389 536 446 536 q 291 510 333 536 q 224 439 249 485 q 200 333 200 393 q 224 228 200 274 q 291 156 249 182 q 389 131 333 131 m 568 0 l 568 179 l 594 342 l 568 503 l 568 667 l 721 667 l 721 0 l 568 0 m 458 749 l 232 926 l 350 1044 l 528 818 l 458 749 z "},"ā":{"ha":806,"x_min":43,"x_max":721,"o":"m 364 -14 q 201 32 274 -14 q 85 156 128 78 q 43 332 43 235 q 85 509 43 431 q 201 634 128 588 q 364 681 274 681 q 499 648 440 681 q 593 558 558 615 q 628 429 628 501 l 628 238 q 594 108 628 165 q 500 19 560 51 q 364 -14 440 -14 m 389 131 q 526 188 474 131 q 578 333 578 244 q 554 439 578 393 q 488 510 531 485 q 389 536 446 536 q 291 510 333 536 q 224 439 249 485 q 200 333 200 393 q 224 228 200 274 q 291 156 249 182 q 389 131 333 131 m 568 0 l 568 179 l 594 342 l 568 503 l 568 667 l 721 667 l 721 0 l 568 0 m 142 928 l 664 928 l 664 803 l 142 803 l 142 928 z "},"ą":{"ha":806,"x_min":43,"x_max":767,"o":"m 364 -14 q 201 32 274 -14 q 85 156 128 78 q 43 332 43 235 q 85 509 43 431 q 201 634 128 588 q 364 681 274 681 q 499 648 440 681 q 593 558 558 615 q 628 429 628 501 l 628 238 q 594 108 628 165 q 500 19 560 51 q 364 -14 440 -14 m 389 131 q 526 188 474 131 q 578 333 578 244 q 554 439 578 393 q 488 510 531 485 q 389 536 446 536 q 291 510 333 536 q 224 439 249 485 q 200 333 200 393 q 224 228 200 274 q 291 156 249 182 q 389 131 333 131 m 568 0 l 568 179 l 594 342 l 568 503 l 568 667 l 721 667 l 721 0 l 568 0 m 646 -292 q 539 -263 586 -292 q 492 -164 492 -235 q 528 -57 492 -106 q 640 28 564 -8 l 721 0 q 640 -62 671 -28 q 608 -140 608 -97 q 622 -178 608 -164 q 664 -193 636 -193 q 701 -186 685 -193 q 728 -174 717 -179 l 767 -258 q 719 -281 747 -269 q 646 -292 690 -292 z "},"å":{"ha":806,"x_min":43,"x_max":721,"o":"m 364 -14 q 201 32 274 -14 q 85 156 128 78 q 43 332 43 235 q 85 509 43 431 q 201 634 128 588 q 364 681 274 681 q 499 648 440 681 q 593 558 558 615 q 628 429 628 501 l 628 238 q 594 108 628 165 q 500 19 560 51 q 364 -14 440 -14 m 389 131 q 526 188 474 131 q 578 333 578 244 q 554 439 578 393 q 488 510 531 485 q 389 536 446 536 q 291 510 333 536 q 224 439 249 485 q 200 333 200 393 q 224 228 200 274 q 291 156 249 182 q 389 131 333 131 m 568 0 l 568 179 l 594 342 l 568 503 l 568 667 l 721 667 l 721 0 l 568 0 m 404 746 q 313 769 353 746 q 251 831 274 792 q 228 918 228 869 q 251 1006 228 967 q 313 1067 274 1044 q 404 1090 353 1090 q 493 1067 454 1090 q 554 1006 532 1044 q 576 918 576 967 q 554 831 576 869 q 493 769 532 792 q 404 746 454 746 m 404 854 q 447 873 429 854 q 465 918 465 892 q 447 964 465 946 q 404 982 429 982 q 358 964 375 982 q 340 918 340 946 q 358 873 340 892 q 404 854 375 854 z "},"ã":{"ha":806,"x_min":43,"x_max":721,"o":"m 364 -14 q 201 32 274 -14 q 85 156 128 78 q 43 332 43 235 q 85 509 43 431 q 201 634 128 588 q 364 681 274 681 q 499 648 440 681 q 593 558 558 615 q 628 429 628 501 l 628 238 q 594 108 628 165 q 500 19 560 51 q 364 -14 440 -14 m 389 131 q 526 188 474 131 q 578 333 578 244 q 554 439 578 393 q 488 510 531 485 q 389 536 446 536 q 291 510 333 536 q 224 439 249 485 q 200 333 200 393 q 224 228 200 274 q 291 156 249 182 q 389 131 333 131 m 568 0 l 568 179 l 594 342 l 568 503 l 568 667 l 721 667 l 721 0 l 568 0 m 503 763 q 425 779 457 763 q 366 812 393 796 q 306 828 339 828 q 250 815 271 828 q 210 778 229 803 l 128 860 q 208 933 168 906 q 303 960 249 960 q 381 944 349 960 q 440 911 413 928 q 500 894 468 894 q 557 907 536 894 q 596 944 578 919 l 678 863 q 597 790 638 817 q 503 763 557 763 z "},"æ":{"ha":1278,"x_min":43,"x_max":1240,"o":"m 931 -14 q 751 31 831 -14 q 624 156 671 76 q 578 333 578 235 q 624 510 578 432 q 748 635 669 589 q 922 681 826 681 q 1087 638 1015 681 q 1199 519 1158 594 q 1240 349 1240 444 q 1238 315 1240 332 q 1232 276 1236 297 l 685 276 l 685 401 l 1153 401 l 1096 351 q 1072 454 1093 413 q 1013 518 1051 496 q 919 540 975 540 q 818 515 861 540 q 751 445 775 490 q 728 338 728 400 q 753 228 728 275 q 824 155 778 181 q 929 129 869 129 q 1024 147 981 129 q 1099 200 1068 165 l 1196 101 q 1078 15 1147 44 q 931 -14 1008 -14 m 364 -14 q 201 32 274 -14 q 85 156 128 78 q 43 332 43 235 q 85 509 43 431 q 201 634 128 588 q 364 681 274 681 q 499 648 440 681 q 593 558 558 615 q 628 429 628 501 l 628 238 q 594 108 628 165 q 500 19 560 51 q 364 -14 440 -14 m 389 131 q 526 188 474 131 q 578 333 578 244 q 554 439 578 393 q 488 510 531 485 q 389 536 446 536 q 291 510 333 536 q 224 439 249 485 q 200 333 200 393 q 224 228 200 274 q 291 156 249 182 q 389 131 333 131 m 568 0 l 568 179 l 594 342 l 568 503 l 568 667 l 721 667 l 721 0 l 568 0 z "},"b":{"ha":806,"x_min":85,"x_max":763,"o":"m 442 -14 q 306 19 365 -14 q 212 108 246 51 q 178 238 178 165 l 178 429 q 213 558 178 501 q 307 648 247 615 q 442 681 367 681 q 605 634 532 681 q 720 509 678 588 q 763 332 763 431 q 720 156 763 235 q 605 32 678 78 q 442 -14 532 -14 m 85 0 l 85 1000 l 238 1000 l 238 503 l 211 342 l 238 179 l 238 0 l 85 0 m 417 131 q 515 156 472 131 q 581 228 557 182 q 606 333 606 274 q 581 439 606 393 q 515 510 557 485 q 417 536 472 536 q 318 510 361 536 q 251 439 275 485 q 228 333 228 393 q 251 228 228 274 q 318 156 275 182 q 417 131 361 131 z "},"c":{"ha":676,"x_min":42,"x_max":651,"o":"m 392 -14 q 213 32 293 -14 q 88 157 133 78 q 42 333 42 236 q 88 510 42 432 q 213 635 133 589 q 392 681 293 681 q 537 651 469 681 q 651 565 604 621 l 551 464 q 481 516 522 499 q 392 533 440 533 q 291 508 335 533 q 223 438 247 482 q 199 333 199 393 q 223 230 199 275 q 291 159 247 185 q 392 133 335 133 q 481 151 440 133 q 551 203 522 168 l 651 101 q 537 16 604 46 q 392 -14 469 -14 z "},"ć":{"ha":676,"x_min":42,"x_max":651,"o":"m 392 -14 q 213 32 293 -14 q 88 157 133 78 q 42 333 42 236 q 88 510 42 432 q 213 635 133 589 q 392 681 293 681 q 537 651 469 681 q 651 565 604 621 l 551 464 q 481 516 522 499 q 392 533 440 533 q 291 508 335 533 q 223 438 247 482 q 199 333 199 393 q 223 230 199 275 q 291 159 247 185 q 392 133 335 133 q 481 151 440 133 q 551 203 522 168 l 651 101 q 537 16 604 46 q 392 -14 469 -14 m 308 763 l 239 832 l 417 1058 l 535 940 l 308 763 z "},"č":{"ha":676,"x_min":42,"x_max":651,"o":"m 392 -14 q 213 32 293 -14 q 88 157 133 78 q 42 333 42 236 q 88 510 42 432 q 213 635 133 589 q 392 681 293 681 q 537 651 469 681 q 651 565 604 621 l 551 464 q 481 516 522 499 q 392 533 440 533 q 291 508 335 533 q 223 438 247 482 q 199 333 199 393 q 223 230 199 275 q 291 159 247 185 q 392 133 335 133 q 481 151 440 133 q 551 203 522 168 l 651 101 q 537 16 604 46 q 392 -14 469 -14 m 564 1044 l 633 975 l 444 760 l 329 760 l 140 975 l 210 1044 l 438 860 l 335 861 l 564 1044 z "},"ç":{"ha":676,"x_min":42,"x_max":651,"o":"m 392 -14 q 213 32 293 -14 q 88 157 133 78 q 42 333 42 236 q 88 510 42 432 q 213 635 133 589 q 392 681 293 681 q 537 651 469 681 q 651 565 604 621 l 551 464 q 481 516 522 499 q 392 533 440 533 q 291 508 335 533 q 223 438 247 482 q 199 333 199 393 q 223 230 199 275 q 291 159 247 185 q 392 133 335 133 q 481 151 440 133 q 551 203 522 168 l 651 101 q 537 16 604 46 q 392 -14 469 -14 m 349 -292 q 258 -279 297 -292 q 183 -243 219 -267 l 246 -164 q 283 -187 261 -178 q 338 -196 306 -196 q 390 -186 374 -196 q 406 -162 406 -176 q 391 -135 406 -147 q 344 -124 376 -124 l 272 -124 l 318 19 l 429 19 l 396 -81 l 340 -39 q 479 -73 426 -36 q 532 -165 532 -110 q 481 -256 532 -219 q 349 -292 431 -292 z "},"ċ":{"ha":676,"x_min":42,"x_max":651,"o":"m 392 -14 q 213 32 293 -14 q 88 157 133 78 q 42 333 42 236 q 88 510 42 432 q 213 635 133 589 q 392 681 293 681 q 537 651 469 681 q 651 565 604 621 l 551 464 q 481 516 522 499 q 392 533 440 533 q 291 508 335 533 q 223 438 247 482 q 199 333 199 393 q 223 230 199 275 q 291 159 247 185 q 392 133 335 133 q 481 151 440 133 q 551 203 522 168 l 651 101 q 537 16 604 46 q 392 -14 469 -14 m 388 775 q 323 801 349 775 q 297 867 297 828 q 323 932 297 906 q 388 958 349 958 q 453 932 428 958 q 478 867 478 906 q 453 801 478 828 q 388 775 428 775 z "},"d":{"ha":806,"x_min":43,"x_max":721,"o":"m 364 -14 q 201 32 274 -14 q 85 156 128 78 q 43 332 43 235 q 85 509 43 431 q 201 634 128 588 q 364 681 274 681 q 499 648 440 681 q 593 558 558 615 q 628 429 628 501 l 628 238 q 594 108 628 165 q 500 19 560 51 q 364 -14 440 -14 m 389 131 q 488 156 446 131 q 554 228 531 182 q 578 333 578 274 q 554 439 578 393 q 488 510 531 485 q 390 536 446 536 q 291 510 333 536 q 224 439 249 485 q 200 333 200 393 q 224 228 200 274 q 291 156 249 182 q 389 131 333 131 m 721 0 l 568 0 l 568 179 l 594 342 l 568 503 l 568 1000 l 721 1000 l 721 0 z "},"ð":{"ha":781,"x_min":47,"x_max":735,"o":"m 392 -14 q 218 32 296 -14 q 94 156 140 78 q 47 328 47 233 q 89 492 47 422 q 200 602 131 563 q 353 642 269 642 q 442 629 407 642 q 498 594 476 617 q 533 539 519 571 l 475 574 l 192 972 l 376 972 l 642 592 q 735 322 735 456 q 690 153 735 229 q 567 31 644 76 q 392 -14 489 -14 m 392 136 q 486 161 444 136 q 551 230 528 186 q 575 328 575 274 q 551 424 575 382 q 486 492 528 467 q 392 517 444 517 q 298 492 340 517 q 231 425 256 468 q 207 328 207 382 q 231 230 207 274 q 297 161 256 186 q 392 136 339 136 m 151 683 l 108 793 l 593 972 l 636 863 l 151 683 z "},"ď":{"ha":1069,"x_min":43,"x_max":993,"o":"m 364 -14 q 201 32 274 -14 q 85 156 128 78 q 43 332 43 235 q 85 509 43 431 q 201 634 128 588 q 364 681 274 681 q 499 648 440 681 q 593 558 558 615 q 628 429 628 501 l 628 238 q 594 108 628 165 q 500 19 560 51 q 364 -14 440 -14 m 389 131 q 488 156 446 131 q 554 228 531 182 q 578 333 578 274 q 554 439 578 393 q 488 510 531 485 q 390 536 446 536 q 291 510 333 536 q 224 439 249 485 q 200 333 200 393 q 224 228 200 274 q 291 156 249 182 q 389 131 333 131 m 721 0 l 568 0 l 568 179 l 594 342 l 568 503 l 568 1000 l 721 1000 l 721 0 m 856 571 l 771 617 l 865 793 l 917 807 q 897 779 908 790 q 871 768 886 768 q 812 795 839 768 q 785 864 785 822 q 815 940 785 908 q 889 971 844 971 q 962 940 931 971 q 993 864 993 908 q 985 822 993 846 q 958 760 978 797 l 856 571 z "},"đ":{"ha":833,"x_min":43,"x_max":833,"o":"m 363 757 l 363 901 l 833 901 l 833 757 l 363 757 m 364 -14 q 201 32 274 -14 q 85 156 128 78 q 43 332 43 235 q 85 509 43 431 q 201 634 128 588 q 364 681 274 681 q 499 648 440 681 q 593 558 558 615 q 628 429 628 501 l 628 238 q 594 108 628 165 q 500 19 560 51 q 364 -14 440 -14 m 389 131 q 488 156 446 131 q 554 228 531 182 q 578 333 578 274 q 554 439 578 393 q 488 510 531 485 q 390 536 446 536 q 291 510 333 536 q 224 439 249 485 q 200 333 200 393 q 224 228 200 274 q 291 156 249 182 q 389 131 333 131 m 721 0 l 568 0 l 568 179 l 594 342 l 568 503 l 568 1000 l 721 1000 l 721 0 z "},"e":{"ha":742,"x_min":42,"x_max":704,"o":"m 394 -14 q 215 31 294 -14 q 88 156 135 76 q 42 333 42 235 q 88 510 42 432 q 212 635 133 589 q 386 681 290 681 q 551 638 479 681 q 663 519 622 594 q 704 349 704 444 q 702 315 704 332 q 696 276 700 297 l 149 276 l 149 401 l 617 401 l 560 351 q 536 454 557 413 q 477 518 515 496 q 383 540 439 540 q 282 515 325 540 q 215 445 239 490 q 192 338 192 400 q 217 228 192 275 q 288 155 242 181 q 393 129 333 129 q 488 147 444 129 q 563 200 532 165 l 660 101 q 542 15 611 44 q 394 -14 472 -14 z "},"é":{"ha":742,"x_min":42,"x_max":704,"o":"m 394 -14 q 215 31 294 -14 q 88 156 135 76 q 42 333 42 235 q 88 510 42 432 q 212 635 133 589 q 386 681 290 681 q 551 638 479 681 q 663 519 622 594 q 704 349 704 444 q 702 315 704 332 q 696 276 700 297 l 149 276 l 149 401 l 617 401 l 560 351 q 536 454 557 413 q 477 518 515 496 q 383 540 439 540 q 282 515 325 540 q 215 445 239 490 q 192 338 192 400 q 217 228 192 275 q 288 155 242 181 q 393 129 333 129 q 488 147 444 129 q 563 200 532 165 l 660 101 q 542 15 611 44 q 394 -14 472 -14 m 306 763 l 236 832 l 414 1058 l 532 940 l 306 763 z "},"ě":{"ha":742,"x_min":42,"x_max":704,"o":"m 394 -14 q 215 31 294 -14 q 88 156 135 76 q 42 333 42 235 q 88 510 42 432 q 212 635 133 589 q 386 681 290 681 q 551 638 479 681 q 663 519 622 594 q 704 349 704 444 q 702 315 704 332 q 696 276 700 297 l 149 276 l 149 401 l 617 401 l 560 351 q 536 454 557 413 q 477 518 515 496 q 383 540 439 540 q 282 515 325 540 q 215 445 239 490 q 192 338 192 400 q 217 228 192 275 q 288 155 242 181 q 393 129 333 129 q 488 147 444 129 q 563 200 532 165 l 660 101 q 542 15 611 44 q 394 -14 472 -14 m 561 1044 l 631 975 l 442 760 l 326 760 l 138 975 l 207 1044 l 435 860 l 332 861 l 561 1044 z "},"ê":{"ha":742,"x_min":42,"x_max":704,"o":"m 394 -14 q 215 31 294 -14 q 88 156 135 76 q 42 333 42 235 q 88 510 42 432 q 212 635 133 589 q 386 681 290 681 q 551 638 479 681 q 663 519 622 594 q 704 349 704 444 q 702 315 704 332 q 696 276 700 297 l 149 276 l 149 401 l 617 401 l 560 351 q 536 454 557 413 q 477 518 515 496 q 383 540 439 540 q 282 515 325 540 q 215 445 239 490 q 192 338 192 400 q 217 228 192 275 q 288 155 242 181 q 393 129 333 129 q 488 147 444 129 q 563 200 532 165 l 660 101 q 542 15 611 44 q 394 -14 472 -14 m 207 760 l 138 829 l 326 1044 l 442 1044 l 631 829 l 561 760 l 333 944 l 436 943 l 207 760 z "},"ë":{"ha":742,"x_min":42,"x_max":704,"o":"m 394 -14 q 215 31 294 -14 q 88 156 135 76 q 42 333 42 235 q 88 510 42 432 q 212 635 133 589 q 386 681 290 681 q 551 638 479 681 q 663 519 622 594 q 704 349 704 444 q 702 315 704 332 q 696 276 700 297 l 149 276 l 149 401 l 617 401 l 560 351 q 536 454 557 413 q 477 518 515 496 q 383 540 439 540 q 282 515 325 540 q 215 445 239 490 q 192 338 192 400 q 217 228 192 275 q 288 155 242 181 q 393 129 333 129 q 488 147 444 129 q 563 200 532 165 l 660 101 q 542 15 611 44 q 394 -14 472 -14 m 239 775 q 174 801 200 775 q 149 867 149 828 q 174 932 149 906 q 239 958 200 958 q 304 932 279 958 q 329 867 329 906 q 304 801 329 828 q 239 775 279 775 m 531 775 q 466 801 492 775 q 440 867 440 828 q 466 932 440 906 q 531 958 492 958 q 596 932 571 958 q 621 867 621 906 q 596 801 621 828 q 531 775 571 775 z "},"ė":{"ha":742,"x_min":42,"x_max":704,"o":"m 394 -14 q 215 31 294 -14 q 88 156 135 76 q 42 333 42 235 q 88 510 42 432 q 212 635 133 589 q 386 681 290 681 q 551 638 479 681 q 663 519 622 594 q 704 349 704 444 q 702 315 704 332 q 696 276 700 297 l 149 276 l 149 401 l 617 401 l 560 351 q 536 454 557 413 q 477 518 515 496 q 383 540 439 540 q 282 515 325 540 q 215 445 239 490 q 192 338 192 400 q 217 228 192 275 q 288 155 242 181 q 393 129 333 129 q 488 147 444 129 q 563 200 532 165 l 660 101 q 542 15 611 44 q 394 -14 472 -14 m 385 775 q 320 801 346 775 q 294 867 294 828 q 320 932 294 906 q 385 958 346 958 q 450 932 425 958 q 475 867 475 906 q 450 801 475 828 q 385 775 425 775 z "},"è":{"ha":742,"x_min":42,"x_max":704,"o":"m 394 -14 q 215 31 294 -14 q 88 156 135 76 q 42 333 42 235 q 88 510 42 432 q 212 635 133 589 q 386 681 290 681 q 551 638 479 681 q 663 519 622 594 q 704 349 704 444 q 702 315 704 332 q 696 276 700 297 l 149 276 l 149 401 l 617 401 l 560 351 q 536 454 557 413 q 477 518 515 496 q 383 540 439 540 q 282 515 325 540 q 215 445 239 490 q 192 338 192 400 q 217 228 192 275 q 288 155 242 181 q 393 129 333 129 q 488 147 444 129 q 563 200 532 165 l 660 101 q 542 15 611 44 q 394 -14 472 -14 m 440 749 l 214 926 l 332 1044 l 510 818 l 440 749 z "},"ē":{"ha":742,"x_min":42,"x_max":704,"o":"m 394 -14 q 215 31 294 -14 q 88 156 135 76 q 42 333 42 235 q 88 510 42 432 q 212 635 133 589 q 386 681 290 681 q 551 638 479 681 q 663 519 622 594 q 704 349 704 444 q 702 315 704 332 q 696 276 700 297 l 149 276 l 149 401 l 617 401 l 560 351 q 536 454 557 413 q 477 518 515 496 q 383 540 439 540 q 282 515 325 540 q 215 445 239 490 q 192 338 192 400 q 217 228 192 275 q 288 155 242 181 q 393 129 333 129 q 488 147 444 129 q 563 200 532 165 l 660 101 q 542 15 611 44 q 394 -14 472 -14 m 124 928 l 646 928 l 646 803 l 124 803 l 124 928 z "},"ę":{"ha":742,"x_min":42,"x_max":704,"o":"m 394 -14 q 215 31 294 -14 q 88 156 135 76 q 42 333 42 235 q 88 510 42 432 q 212 635 133 589 q 386 681 290 681 q 551 638 479 681 q 663 519 622 594 q 704 349 704 444 q 702 315 704 332 q 696 276 700 297 l 149 276 l 149 401 l 617 401 l 560 351 q 536 454 557 413 q 477 518 515 496 q 383 540 439 540 q 282 515 325 540 q 215 445 239 490 q 192 338 192 400 q 217 228 192 275 q 288 155 242 181 q 393 129 333 129 q 488 147 444 129 q 563 200 532 165 l 660 101 q 542 15 611 44 q 394 -14 472 -14 m 461 -278 q 354 -249 401 -278 q 307 -150 307 -221 q 343 -43 307 -92 q 456 42 379 6 l 536 14 q 455 -49 486 -14 q 424 -126 424 -83 q 438 -165 424 -150 q 479 -179 451 -179 q 516 -172 500 -179 q 543 -160 532 -165 l 582 -244 q 534 -267 563 -256 q 461 -278 506 -278 z "},"f":{"ha":560,"x_min":17,"x_max":629,"o":"m 176 0 l 176 754 q 210 889 176 831 q 305 981 244 947 q 444 1014 365 1014 q 549 993 506 1014 q 629 933 592 972 l 531 835 q 494 861 514 851 q 444 871 475 871 q 359 841 389 871 q 329 756 329 811 l 329 0 l 176 0 m 17 528 l 17 667 l 531 667 l 531 528 l 17 528 z "},"g":{"ha":799,"x_min":42,"x_max":714,"o":"m 363 -292 q 178 -253 257 -292 q 50 -146 99 -215 l 150 -46 q 242 -121 190 -96 q 365 -146 293 -146 q 508 -99 456 -146 q 561 28 561 -53 l 561 192 l 588 339 l 561 488 l 561 667 l 714 667 l 714 28 q 669 -140 714 -68 q 546 -251 625 -211 q 363 -292 467 -292 m 356 14 q 195 58 267 14 q 83 178 124 101 q 42 349 42 254 q 83 518 42 443 q 195 637 124 593 q 356 681 267 681 q 494 649 435 681 q 588 560 554 617 q 621 429 621 504 l 621 265 q 587 135 621 192 q 493 46 553 78 q 356 14 433 14 m 386 158 q 483 182 442 158 q 548 248 525 206 q 571 347 571 290 q 548 447 571 404 q 483 513 525 489 q 386 536 442 536 q 288 513 331 536 q 222 447 246 489 q 199 347 199 404 q 222 249 199 292 q 288 182 246 206 q 386 158 331 158 z "},"ğ":{"ha":799,"x_min":42,"x_max":714,"o":"m 363 -292 q 178 -253 257 -292 q 50 -146 99 -215 l 150 -46 q 242 -121 190 -96 q 365 -146 293 -146 q 508 -99 456 -146 q 561 28 561 -53 l 561 192 l 588 339 l 561 488 l 561 667 l 714 667 l 714 28 q 669 -140 714 -68 q 546 -251 625 -211 q 363 -292 467 -292 m 356 14 q 195 58 267 14 q 83 178 124 101 q 42 349 42 254 q 83 518 42 443 q 195 637 124 593 q 356 681 267 681 q 494 649 435 681 q 588 560 554 617 q 621 429 621 504 l 621 265 q 587 135 621 192 q 493 46 553 78 q 356 14 433 14 m 386 158 q 483 182 442 158 q 548 248 525 206 q 571 347 571 290 q 548 447 571 404 q 483 513 525 489 q 386 536 442 536 q 288 513 331 536 q 222 447 246 489 q 199 347 199 404 q 222 249 199 292 q 288 182 246 206 q 386 158 331 158 m 649 989 q 617 866 649 921 q 530 778 585 811 q 404 746 475 746 q 277 778 333 746 q 188 866 221 811 q 156 989 156 921 l 294 989 q 324 910 294 942 q 404 878 354 878 q 459 892 435 878 q 497 933 483 907 q 511 989 511 958 l 649 989 z "},"ģ":{"ha":799,"x_min":42,"x_max":714,"o":"m 363 -292 q 178 -253 257 -292 q 50 -146 99 -215 l 150 -46 q 242 -121 190 -96 q 365 -146 293 -146 q 508 -99 456 -146 q 561 28 561 -53 l 561 192 l 588 339 l 561 488 l 561 667 l 714 667 l 714 28 q 669 -140 714 -68 q 546 -251 625 -211 q 363 -292 467 -292 m 356 14 q 195 58 267 14 q 83 178 124 101 q 42 349 42 254 q 83 518 42 443 q 195 637 124 593 q 356 681 267 681 q 494 649 435 681 q 588 560 554 617 q 621 429 621 504 l 621 265 q 587 135 621 192 q 493 46 553 78 q 356 14 433 14 m 386 158 q 483 182 442 158 q 548 248 525 206 q 571 347 571 290 q 548 447 571 404 q 483 513 525 489 q 386 536 442 536 q 288 513 331 536 q 222 447 246 489 q 199 347 199 404 q 222 249 199 292 q 288 182 246 206 q 386 158 331 158 m 514 1072 l 419 896 l 368 882 q 388 910 376 899 q 414 921 400 921 q 473 894 446 921 q 500 825 500 867 q 470 750 500 782 q 396 718 440 718 q 323 749 354 718 q 292 825 292 781 q 299 867 292 843 q 326 929 307 892 l 429 1118 l 514 1072 z "},"ġ":{"ha":799,"x_min":42,"x_max":714,"o":"m 363 -292 q 178 -253 257 -292 q 50 -146 99 -215 l 150 -46 q 242 -121 190 -96 q 365 -146 293 -146 q 508 -99 456 -146 q 561 28 561 -53 l 561 192 l 588 339 l 561 488 l 561 667 l 714 667 l 714 28 q 669 -140 714 -68 q 546 -251 625 -211 q 363 -292 467 -292 m 356 14 q 195 58 267 14 q 83 178 124 101 q 42 349 42 254 q 83 518 42 443 q 195 637 124 593 q 356 681 267 681 q 494 649 435 681 q 588 560 554 617 q 621 429 621 504 l 621 265 q 587 135 621 192 q 493 46 553 78 q 356 14 433 14 m 386 158 q 483 182 442 158 q 548 248 525 206 q 571 347 571 290 q 548 447 571 404 q 483 513 525 489 q 386 536 442 536 q 288 513 331 536 q 222 447 246 489 q 199 347 199 404 q 222 249 199 292 q 288 182 246 206 q 386 158 331 158 m 403 775 q 338 801 364 775 q 313 867 313 828 q 338 932 313 906 q 403 958 364 958 q 468 932 443 958 q 493 867 493 906 q 468 801 493 828 q 403 775 443 775 z "},"h":{"ha":765,"x_min":85,"x_max":694,"o":"m 542 0 l 542 385 q 499 494 542 451 q 390 538 457 538 q 311 518 346 538 q 257 464 276 499 q 238 385 238 429 l 178 418 q 211 553 178 494 q 303 647 244 613 q 436 681 363 681 q 569 647 511 681 q 661 555 628 614 q 694 418 694 496 l 694 0 l 542 0 m 85 0 l 85 1000 l 238 1000 l 238 0 l 85 0 z "},"ħ":{"ha":765,"x_min":0,"x_max":694,"o":"m 0 757 l 0 901 l 471 901 l 471 757 l 0 757 m 542 0 l 542 385 q 499 494 542 451 q 390 538 457 538 q 311 518 346 538 q 257 464 276 499 q 238 385 238 429 l 178 418 q 211 553 178 494 q 303 647 244 613 q 436 681 363 681 q 569 647 511 681 q 661 555 628 614 q 694 418 694 496 l 694 0 l 542 0 m 85 0 l 85 1000 l 238 1000 l 238 0 l 85 0 z "},"i":{"ha":325,"x_min":72,"x_max":253,"o":"m 86 0 l 86 667 l 239 667 l 239 0 l 86 0 m 163 789 q 98 815 124 789 q 72 881 72 842 q 98 946 72 919 q 163 972 124 972 q 228 946 203 972 q 253 881 253 919 q 228 815 253 842 q 163 789 203 789 z "},"ı":{"ha":322,"x_min":85,"x_max":238,"o":"m 85 0 l 85 667 l 238 667 l 238 0 l 85 0 z "},"í":{"ha":322,"x_min":13,"x_max":308,"o":"m 85 0 l 85 667 l 238 667 l 238 0 l 85 0 m 82 763 l 13 832 l 190 1058 l 308 940 l 82 763 z "},"î":{"ha":322,"x_min":-86,"x_max":407,"o":"m 85 0 l 85 667 l 238 667 l 238 0 l 85 0 m -17 760 l -86 829 l 103 1044 l 218 1044 l 407 829 l 338 760 l 110 944 l 213 943 l -17 760 z "},"ï":{"ha":322,"x_min":-75,"x_max":397,"o":"m 85 0 l 85 667 l 238 667 l 238 0 l 85 0 m 15 775 q -49 801 -24 775 q -75 867 -75 828 q -49 932 -75 906 q 15 958 -24 958 q 81 932 56 958 q 106 867 106 906 q 81 801 106 828 q 15 775 56 775 m 307 775 q 242 801 268 775 q 217 867 217 828 q 242 932 217 906 q 307 958 268 958 q 372 932 347 958 q 397 867 397 906 q 372 801 397 828 q 307 775 347 775 z "},"ì":{"ha":322,"x_min":-10,"x_max":286,"o":"m 85 0 l 85 667 l 238 667 l 238 0 l 85 0 m 217 749 l -10 926 l 108 1044 l 286 818 l 217 749 z "},"ĳ":{"ha":661,"x_min":72,"x_max":593,"o":"m 86 0 l 86 667 l 239 667 l 239 0 l 86 0 m 163 789 q 98 815 124 789 q 72 881 72 842 q 98 946 72 919 q 163 972 124 972 q 228 946 203 972 q 253 881 253 919 q 228 815 253 842 q 163 789 203 789 m 343 -292 q 227 -269 272 -292 q 144 -204 182 -247 l 243 -106 q 281 -138 260 -128 q 332 -149 301 -149 q 397 -126 369 -149 q 424 -58 424 -103 l 424 667 l 576 667 l 576 -57 q 544 -185 576 -133 q 458 -265 511 -237 q 343 -292 406 -292 m 503 789 q 438 815 464 789 q 413 881 413 842 q 438 946 413 919 q 503 972 464 972 q 568 946 543 972 q 593 881 593 919 q 568 815 593 842 q 503 789 543 789 z "},"ī":{"ha":322,"x_min":-75,"x_max":397,"o":"m -75 928 l 397 928 l 397 803 l -75 803 l -75 928 m 85 0 l 85 667 l 238 667 l 238 0 l 85 0 z "},"į":{"ha":325,"x_min":8,"x_max":283,"o":"m 86 0 l 86 667 l 239 667 l 239 0 l 86 0 m 163 789 q 98 815 124 789 q 72 881 72 842 q 98 946 72 919 q 163 972 124 972 q 228 946 203 972 q 253 881 253 919 q 228 815 253 842 q 163 789 203 789 m 163 -292 q 56 -263 103 -292 q 8 -164 8 -235 q 44 -57 8 -106 q 157 28 81 -8 l 238 0 q 156 -62 188 -28 q 125 -140 125 -97 q 139 -178 125 -164 q 181 -193 153 -193 q 217 -186 201 -193 q 244 -174 233 -179 l 283 -258 q 235 -281 264 -269 q 163 -292 207 -292 z "},"j":{"ha":336,"x_min":-181,"x_max":268,"o":"m 18 -292 q -98 -269 -53 -292 q -181 -204 -143 -247 l -82 -106 q -44 -138 -65 -128 q 7 -149 -24 -149 q 72 -126 44 -149 q 99 -58 99 -103 l 99 667 l 251 667 l 251 -57 q 219 -185 251 -133 q 133 -265 186 -237 q 18 -292 81 -292 m 178 789 q 113 815 139 789 q 88 881 88 842 q 113 946 88 919 q 178 972 139 972 q 243 946 218 972 q 268 881 268 919 q 243 815 268 842 q 178 789 218 789 z "},"ȷ":{"ha":336,"x_min":-181,"x_max":251,"o":"m 18 -292 q -98 -269 -53 -292 q -181 -204 -143 -247 l -82 -106 q -44 -138 -65 -128 q 7 -149 -24 -149 q 72 -126 44 -149 q 99 -58 99 -103 l 99 667 l 251 667 l 251 -57 q 219 -185 251 -133 q 133 -265 186 -237 q 18 -292 81 -292 z "},"k":{"ha":710,"x_min":85,"x_max":703,"o":"m 508 0 l 226 340 l 507 667 l 689 667 l 367 300 l 374 388 l 703 0 l 508 0 m 85 0 l 85 1000 l 238 1000 l 238 0 l 85 0 z "},"ķ":{"ha":710,"x_min":85,"x_max":703,"o":"m 508 0 l 226 340 l 507 667 l 689 667 l 367 300 l 374 388 l 703 0 l 508 0 m 85 0 l 85 1000 l 238 1000 l 238 0 l 85 0 m 347 -508 l 263 -462 l 357 -286 l 408 -272 q 389 -300 400 -289 q 363 -311 378 -311 q 303 -284 331 -311 q 276 -215 276 -257 q 306 -140 276 -171 q 381 -108 336 -108 q 453 -140 422 -108 q 485 -215 485 -171 q 477 -258 485 -233 q 450 -319 469 -282 l 347 -508 z "},"l":{"ha":322,"x_min":85,"x_max":238,"o":"m 85 0 l 85 1000 l 238 1000 l 238 0 l 85 0 z "},"ĺ":{"ha":322,"x_min":13,"x_max":308,"o":"m 85 0 l 85 1000 l 238 1000 l 238 0 l 85 0 m 82 1068 l 13 1138 l 190 1364 l 308 1246 l 82 1068 z "},"ľ":{"ha":586,"x_min":85,"x_max":510,"o":"m 85 0 l 85 1000 l 238 1000 l 238 0 l 85 0 m 372 572 l 288 618 l 382 794 l 433 808 q 414 781 425 792 q 388 769 403 769 q 328 797 356 769 q 301 865 301 824 q 331 941 301 910 q 406 972 361 972 q 478 941 447 972 q 510 865 510 910 q 502 823 510 847 q 475 761 494 799 l 372 572 z "},"ļ":{"ha":322,"x_min":50,"x_max":272,"o":"m 85 0 l 85 1000 l 238 1000 l 238 0 l 85 0 m 135 -508 l 50 -462 l 144 -286 l 196 -272 q 176 -300 188 -289 q 150 -311 165 -311 q 91 -284 118 -311 q 64 -215 64 -257 q 94 -140 64 -171 q 168 -108 124 -108 q 241 -140 210 -108 q 272 -215 272 -171 q 265 -258 272 -233 q 238 -319 257 -282 l 135 -508 z "},"ł":{"ha":558,"x_min":85,"x_max":474,"o":"m 85 461 l 474 686 l 474 542 l 85 317 l 85 461 m 203 0 l 203 1000 l 356 1000 l 356 0 l 203 0 z "},"m":{"ha":1196,"x_min":85,"x_max":1124,"o":"m 85 0 l 85 667 l 238 667 l 238 0 l 85 0 m 528 0 l 528 397 q 486 501 528 464 q 383 538 444 538 q 309 521 342 538 q 257 473 276 504 q 238 397 238 442 l 178 431 q 211 563 178 507 q 301 649 244 618 q 429 681 358 681 q 557 650 500 681 q 647 564 614 619 q 681 431 681 508 l 681 0 l 528 0 m 971 0 l 971 397 q 929 501 971 464 q 826 538 888 538 q 753 521 786 538 q 700 473 719 504 q 681 397 681 442 l 594 431 q 639 563 601 507 q 735 649 676 618 q 865 681 794 681 q 996 650 938 681 q 1089 564 1054 619 q 1124 431 1124 508 l 1124 0 l 971 0 z "},"n":{"ha":765,"x_min":85,"x_max":694,"o":"m 542 0 l 542 385 q 499 494 542 451 q 390 538 457 538 q 311 518 346 538 q 257 464 276 499 q 238 385 238 429 l 178 418 q 211 553 178 494 q 303 647 244 613 q 436 681 363 681 q 569 642 511 681 q 661 544 628 604 q 694 418 694 483 l 694 0 l 542 0 m 85 0 l 85 667 l 238 667 l 238 0 l 85 0 z "},"ń":{"ha":765,"x_min":85,"x_max":694,"o":"m 542 0 l 542 385 q 499 494 542 451 q 390 538 457 538 q 311 518 346 538 q 257 464 276 499 q 238 385 238 429 l 178 418 q 211 553 178 494 q 303 647 244 613 q 436 681 363 681 q 569 642 511 681 q 661 544 628 604 q 694 418 694 483 l 694 0 l 542 0 m 85 0 l 85 667 l 238 667 l 238 0 l 85 0 m 304 763 l 235 832 l 413 1058 l 531 940 l 304 763 z "},"ň":{"ha":765,"x_min":85,"x_max":694,"o":"m 542 0 l 542 385 q 499 494 542 451 q 390 538 457 538 q 311 518 346 538 q 257 464 276 499 q 238 385 238 429 l 178 418 q 211 553 178 494 q 303 647 244 613 q 436 681 363 681 q 569 642 511 681 q 661 544 628 604 q 694 418 694 483 l 694 0 l 542 0 m 85 0 l 85 667 l 238 667 l 238 0 l 85 0 m 560 1044 l 629 975 l 440 760 l 325 760 l 136 975 l 206 1044 l 433 860 l 331 861 l 560 1044 z "},"ņ":{"ha":765,"x_min":85,"x_max":694,"o":"m 542 0 l 542 385 q 499 494 542 451 q 390 538 457 538 q 311 518 346 538 q 257 464 276 499 q 238 385 238 429 l 178 418 q 211 553 178 494 q 303 647 244 613 q 436 681 363 681 q 569 642 511 681 q 661 544 628 604 q 694 418 694 483 l 694 0 l 542 0 m 85 0 l 85 667 l 238 667 l 238 0 l 85 0 m 357 -508 l 272 -462 l 367 -286 l 418 -272 q 399 -300 410 -289 q 372 -311 388 -311 q 313 -284 340 -311 q 286 -215 286 -257 q 316 -140 286 -171 q 390 -108 346 -108 q 463 -140 432 -108 q 494 -215 494 -171 q 487 -258 494 -233 q 460 -319 479 -282 l 357 -508 z "},"ñ":{"ha":765,"x_min":85,"x_max":694,"o":"m 542 0 l 542 385 q 499 494 542 451 q 390 538 457 538 q 311 518 346 538 q 257 464 276 499 q 238 385 238 429 l 178 418 q 211 553 178 494 q 303 647 244 613 q 436 681 363 681 q 569 642 511 681 q 661 544 628 604 q 694 418 694 483 l 694 0 l 542 0 m 85 0 l 85 667 l 238 667 l 238 0 l 85 0 m 483 763 q 406 779 438 763 q 347 812 374 796 q 286 828 319 828 q 231 815 251 828 q 190 778 210 803 l 108 860 q 189 933 149 906 q 283 960 229 960 q 361 944 329 960 q 421 911 393 928 q 481 894 449 894 q 538 907 517 894 q 576 944 558 919 l 658 863 q 578 790 618 817 q 483 763 538 763 z "},"ŋ":{"ha":765,"x_min":85,"x_max":694,"o":"m 461 -292 q 345 -269 390 -292 q 263 -204 300 -247 l 361 -106 q 399 -138 378 -128 q 450 -149 419 -149 q 515 -126 488 -149 q 542 -58 542 -103 l 542 254 l 694 254 l 694 -57 q 662 -185 694 -133 q 576 -265 629 -237 q 461 -292 524 -292 m 542 0 l 542 385 q 499 494 542 451 q 390 538 457 538 q 311 518 346 538 q 257 464 276 499 q 238 385 238 429 l 178 418 q 211 553 178 494 q 303 647 244 613 q 436 681 363 681 q 569 642 511 681 q 661 544 628 604 q 694 418 694 483 l 694 0 l 542 0 m 85 0 l 85 667 l 238 667 l 238 0 l 85 0 z "},"o":{"ha":782,"x_min":42,"x_max":740,"o":"m 390 -14 q 214 33 293 -14 q 88 158 135 79 q 42 335 42 238 q 88 510 42 432 q 214 634 135 588 q 390 681 293 681 q 568 635 489 681 q 694 510 647 589 q 740 335 740 432 q 694 158 740 238 q 568 33 647 79 q 390 -14 489 -14 m 390 133 q 491 159 447 133 q 559 231 535 185 q 583 335 583 276 q 558 438 583 393 q 490 508 533 482 q 390 533 447 533 q 291 508 335 533 q 223 438 247 482 q 199 335 199 393 q 223 231 199 276 q 291 159 247 185 q 390 133 335 133 z "},"ó":{"ha":782,"x_min":42,"x_max":740,"o":"m 390 -14 q 214 33 293 -14 q 88 158 135 79 q 42 335 42 238 q 88 510 42 432 q 214 634 135 588 q 390 681 293 681 q 568 635 489 681 q 694 510 647 589 q 740 335 740 432 q 694 158 740 238 q 568 33 647 79 q 390 -14 489 -14 m 390 133 q 491 159 447 133 q 559 231 535 185 q 583 335 583 276 q 558 438 583 393 q 490 508 533 482 q 390 533 447 533 q 291 508 335 533 q 223 438 247 482 q 199 335 199 393 q 223 231 199 276 q 291 159 247 185 q 390 133 335 133 m 313 763 l 243 832 l 421 1058 l 539 940 l 313 763 z "},"ô":{"ha":782,"x_min":42,"x_max":740,"o":"m 390 -14 q 214 33 293 -14 q 88 158 135 79 q 42 335 42 238 q 88 510 42 432 q 214 634 135 588 q 390 681 293 681 q 568 635 489 681 q 694 510 647 589 q 740 335 740 432 q 694 158 740 238 q 568 33 647 79 q 390 -14 489 -14 m 390 133 q 491 159 447 133 q 559 231 535 185 q 583 335 583 276 q 558 438 583 393 q 490 508 533 482 q 390 533 447 533 q 291 508 335 533 q 223 438 247 482 q 199 335 199 393 q 223 231 199 276 q 291 159 247 185 q 390 133 335 133 m 214 760 l 144 829 l 333 1044 l 449 1044 l 638 829 l 568 760 l 340 944 l 443 943 l 214 760 z "},"ö":{"ha":782,"x_min":42,"x_max":740,"o":"m 390 -14 q 214 33 293 -14 q 88 158 135 79 q 42 335 42 238 q 88 510 42 432 q 214 634 135 588 q 390 681 293 681 q 568 635 489 681 q 694 510 647 589 q 740 335 740 432 q 694 158 740 238 q 568 33 647 79 q 390 -14 489 -14 m 390 133 q 491 159 447 133 q 559 231 535 185 q 583 335 583 276 q 558 438 583 393 q 490 508 533 482 q 390 533 447 533 q 291 508 335 533 q 223 438 247 482 q 199 335 199 393 q 223 231 199 276 q 291 159 247 185 q 390 133 335 133 m 246 775 q 181 801 207 775 q 156 867 156 828 q 181 932 156 906 q 246 958 207 958 q 311 932 286 958 q 336 867 336 906 q 311 801 336 828 q 246 775 286 775 m 538 775 q 473 801 499 775 q 447 867 447 828 q 473 932 447 906 q 538 958 499 958 q 603 932 578 958 q 628 867 628 906 q 603 801 628 828 q 538 775 578 775 z "},"ò":{"ha":782,"x_min":42,"x_max":740,"o":"m 390 -14 q 214 33 293 -14 q 88 158 135 79 q 42 335 42 238 q 88 510 42 432 q 214 634 135 588 q 390 681 293 681 q 568 635 489 681 q 694 510 647 589 q 740 335 740 432 q 694 158 740 238 q 568 33 647 79 q 390 -14 489 -14 m 390 133 q 491 159 447 133 q 559 231 535 185 q 583 335 583 276 q 558 438 583 393 q 490 508 533 482 q 390 533 447 533 q 291 508 335 533 q 223 438 247 482 q 199 335 199 393 q 223 231 199 276 q 291 159 247 185 q 390 133 335 133 m 447 749 l 221 926 l 339 1044 l 517 818 l 447 749 z "},"ő":{"ha":782,"x_min":42,"x_max":740,"o":"m 390 -14 q 214 33 293 -14 q 88 158 135 79 q 42 335 42 238 q 88 510 42 432 q 214 634 135 588 q 390 681 293 681 q 568 635 489 681 q 694 510 647 589 q 740 335 740 432 q 694 158 740 238 q 568 33 647 79 q 390 -14 489 -14 m 390 133 q 491 159 447 133 q 559 231 535 185 q 583 335 583 276 q 558 438 583 393 q 490 508 533 482 q 390 533 447 533 q 291 508 335 533 q 223 438 247 482 q 199 335 199 393 q 223 231 199 276 q 291 159 247 185 q 390 133 335 133 m 244 772 l 151 806 l 217 1086 l 374 1028 l 244 772 m 508 772 l 415 806 l 481 1086 l 638 1028 l 508 772 z "},"ō":{"ha":782,"x_min":42,"x_max":740,"o":"m 390 -14 q 214 33 293 -14 q 88 158 135 79 q 42 335 42 238 q 88 510 42 432 q 214 634 135 588 q 390 681 293 681 q 568 635 489 681 q 694 510 647 589 q 740 335 740 432 q 694 158 740 238 q 568 33 647 79 q 390 -14 489 -14 m 390 133 q 491 159 447 133 q 559 231 535 185 q 583 335 583 276 q 558 438 583 393 q 490 508 533 482 q 390 533 447 533 q 291 508 335 533 q 223 438 247 482 q 199 335 199 393 q 223 231 199 276 q 291 159 247 185 q 390 133 335 133 m 131 928 l 653 928 l 653 803 l 131 803 l 131 928 z "},"ø":{"ha":782,"x_min":18,"x_max":765,"o":"m 118 -40 l 18 60 l 665 707 l 765 607 l 118 -40 m 390 -14 q 214 33 293 -14 q 88 158 135 79 q 42 335 42 238 q 88 510 42 432 q 214 634 135 588 q 390 681 293 681 q 568 635 489 681 q 694 510 647 589 q 740 335 740 432 q 694 158 740 238 q 568 33 647 79 q 390 -14 489 -14 m 390 133 q 491 159 447 133 q 559 231 535 185 q 583 335 583 276 q 558 438 583 393 q 490 508 533 482 q 390 533 447 533 q 291 508 335 533 q 223 438 247 482 q 199 335 199 393 q 223 231 199 276 q 291 159 247 185 q 390 133 335 133 z "},"õ":{"ha":782,"x_min":42,"x_max":740,"o":"m 390 -14 q 214 33 293 -14 q 88 158 135 79 q 42 335 42 238 q 88 510 42 432 q 214 634 135 588 q 390 681 293 681 q 568 635 489 681 q 694 510 647 589 q 740 335 740 432 q 694 158 740 238 q 568 33 647 79 q 390 -14 489 -14 m 390 133 q 491 159 447 133 q 559 231 535 185 q 583 335 583 276 q 558 438 583 393 q 490 508 533 482 q 390 533 447 533 q 291 508 335 533 q 223 438 247 482 q 199 335 199 393 q 223 231 199 276 q 291 159 247 185 q 390 133 335 133 m 492 763 q 414 779 446 763 q 355 812 382 796 q 294 828 328 828 q 239 815 260 828 q 199 778 218 803 l 117 860 q 197 933 157 906 q 292 960 238 960 q 369 944 338 960 q 429 911 401 928 q 489 894 457 894 q 546 907 525 894 q 585 944 567 919 l 667 863 q 586 790 626 817 q 492 763 546 763 z "},"œ":{"ha":1290,"x_min":42,"x_max":1253,"o":"m 390 -14 q 214 33 293 -14 q 88 158 135 79 q 42 335 42 238 q 88 510 42 432 q 214 634 135 588 q 390 681 293 681 q 568 635 489 681 q 694 510 647 589 q 740 335 740 432 q 694 158 740 238 q 568 33 647 79 q 390 -14 489 -14 m 390 133 q 491 159 447 133 q 559 231 535 185 q 583 335 583 276 q 558 438 583 393 q 490 508 533 482 q 390 533 447 533 q 291 508 335 533 q 223 438 247 482 q 199 335 199 393 q 223 231 199 276 q 291 159 247 185 q 390 133 335 133 m 943 -14 q 763 31 843 -14 q 637 156 683 76 q 590 333 590 235 q 636 510 590 432 q 760 635 682 589 q 935 681 839 681 q 1099 638 1028 681 q 1212 519 1171 594 q 1253 349 1253 444 q 1251 315 1253 332 q 1244 276 1249 297 l 697 276 l 697 401 l 1165 401 l 1108 351 q 1085 454 1106 413 q 1026 518 1064 496 q 932 540 988 540 q 831 515 874 540 q 764 445 788 490 q 740 338 740 400 q 765 228 740 275 q 836 155 790 181 q 942 129 882 129 q 1037 147 993 129 q 1111 200 1081 165 l 1208 101 q 1090 15 1160 44 q 943 -14 1021 -14 z "},"p":{"ha":806,"x_min":85,"x_max":763,"o":"m 442 -14 q 306 19 365 -14 q 212 108 246 51 q 178 238 178 165 l 178 429 q 213 558 178 501 q 307 648 247 615 q 442 681 367 681 q 605 634 532 681 q 720 509 678 588 q 763 332 763 431 q 720 156 763 235 q 605 32 678 78 q 442 -14 532 -14 m 85 -278 l 85 667 l 238 667 l 238 488 l 211 325 l 238 164 l 238 -278 l 85 -278 m 417 131 q 515 156 472 131 q 581 228 557 182 q 606 333 606 274 q 581 439 606 393 q 515 510 557 485 q 417 536 472 536 q 318 510 361 536 q 251 439 275 485 q 228 333 228 393 q 251 228 228 274 q 318 156 275 182 q 417 131 361 131 z "},"þ":{"ha":806,"x_min":85,"x_max":763,"o":"m 442 -14 q 306 19 365 -14 q 212 108 246 51 q 178 238 178 165 l 178 429 q 213 558 178 501 q 307 648 247 615 q 442 681 367 681 q 605 634 532 681 q 720 509 678 588 q 763 332 763 431 q 720 156 763 235 q 605 32 678 78 q 442 -14 532 -14 m 85 -278 l 85 1000 l 238 1000 l 238 488 l 211 325 l 238 164 l 238 -278 l 85 -278 m 417 131 q 515 156 472 131 q 581 228 557 182 q 606 333 606 274 q 581 439 606 393 q 515 510 557 485 q 417 536 472 536 q 318 510 361 536 q 251 439 275 485 q 228 333 228 393 q 251 228 228 274 q 318 156 275 182 q 417 131 361 131 z "},"q":{"ha":806,"x_min":43,"x_max":721,"o":"m 364 -14 q 201 32 274 -14 q 85 156 128 78 q 43 332 43 235 q 85 509 43 431 q 201 634 128 588 q 364 681 274 681 q 499 648 440 681 q 593 558 558 615 q 628 429 628 501 l 628 238 q 594 108 628 165 q 500 19 560 51 q 364 -14 440 -14 m 389 131 q 526 188 474 131 q 578 333 578 244 q 554 439 578 393 q 488 510 531 485 q 389 536 446 536 q 291 510 333 536 q 224 439 249 485 q 200 333 200 393 q 224 228 200 274 q 291 156 249 182 q 389 131 333 131 m 568 -278 l 568 164 l 594 325 l 568 488 l 568 667 l 721 667 l 721 -278 l 568 -278 z "},"r":{"ha":590,"x_min":85,"x_max":576,"o":"m 85 0 l 85 667 l 238 667 l 238 0 l 85 0 m 238 371 l 185 397 q 241 602 185 524 q 411 681 297 681 q 501 663 461 681 q 576 604 542 644 l 476 501 q 436 529 458 521 q 385 538 414 538 q 279 497 321 538 q 238 371 238 457 z "},"ŕ":{"ha":590,"x_min":85,"x_max":576,"o":"m 85 0 l 85 667 l 238 667 l 238 0 l 85 0 m 238 371 l 185 397 q 241 602 185 524 q 411 681 297 681 q 501 663 461 681 q 576 604 542 644 l 476 501 q 436 529 458 521 q 385 538 414 538 q 279 497 321 538 q 238 371 238 457 m 219 763 l 150 832 l 328 1058 l 446 940 l 219 763 z "},"ř":{"ha":590,"x_min":51,"x_max":576,"o":"m 85 0 l 85 667 l 238 667 l 238 0 l 85 0 m 238 371 l 185 397 q 241 602 185 524 q 411 681 297 681 q 501 663 461 681 q 576 604 542 644 l 476 501 q 436 529 458 521 q 385 538 414 538 q 279 497 321 538 q 238 371 238 457 m 475 1044 l 544 975 l 356 760 l 240 760 l 51 975 l 121 1044 l 349 860 l 246 861 l 475 1044 z "},"ŗ":{"ha":590,"x_min":50,"x_max":576,"o":"m 85 0 l 85 667 l 238 667 l 238 0 l 85 0 m 238 371 l 185 397 q 241 602 185 524 q 411 681 297 681 q 501 663 461 681 q 576 604 542 644 l 476 501 q 436 529 458 521 q 385 538 414 538 q 279 497 321 538 q 238 371 238 457 m 135 -508 l 50 -462 l 144 -286 l 196 -272 q 176 -300 188 -289 q 150 -311 165 -311 q 91 -284 118 -311 q 64 -215 64 -257 q 94 -140 64 -171 q 168 -108 124 -108 q 241 -140 210 -108 q 272 -215 272 -171 q 265 -258 272 -233 q 238 -319 257 -282 l 135 -508 z "},"s":{"ha":597,"x_min":26,"x_max":556,"o":"m 303 -14 q 196 1 247 -14 q 101 42 144 15 q 26 108 58 69 l 124 206 q 203 145 158 165 q 306 125 249 125 q 383 140 357 125 q 410 185 410 156 q 385 232 410 215 q 320 260 360 249 q 237 285 281 272 q 153 319 193 297 q 89 378 114 340 q 64 475 64 415 q 94 585 64 539 q 178 656 124 631 q 310 681 233 681 q 452 652 390 681 q 556 567 514 624 l 458 469 q 392 524 429 506 q 306 542 354 542 q 235 528 260 542 q 210 488 210 514 q 235 444 210 460 q 299 418 260 429 q 383 394 339 407 q 466 358 426 381 q 531 297 506 335 q 556 197 556 258 q 488 43 556 100 q 303 -14 419 -14 z "},"ś":{"ha":597,"x_min":26,"x_max":556,"o":"m 303 -14 q 196 1 247 -14 q 101 42 144 15 q 26 108 58 69 l 124 206 q 203 145 158 165 q 306 125 249 125 q 383 140 357 125 q 410 185 410 156 q 385 232 410 215 q 320 260 360 249 q 237 285 281 272 q 153 319 193 297 q 89 378 114 340 q 64 475 64 415 q 94 585 64 539 q 178 656 124 631 q 310 681 233 681 q 452 652 390 681 q 556 567 514 624 l 458 469 q 392 524 429 506 q 306 542 354 542 q 235 528 260 542 q 210 488 210 514 q 235 444 210 460 q 299 418 260 429 q 383 394 339 407 q 466 358 426 381 q 531 297 506 335 q 556 197 556 258 q 488 43 556 100 q 303 -14 419 -14 m 231 763 l 161 832 l 339 1058 l 457 940 l 231 763 z "},"š":{"ha":597,"x_min":26,"x_max":556,"o":"m 303 -14 q 196 1 247 -14 q 101 42 144 15 q 26 108 58 69 l 124 206 q 203 145 158 165 q 306 125 249 125 q 383 140 357 125 q 410 185 410 156 q 385 232 410 215 q 320 260 360 249 q 237 285 281 272 q 153 319 193 297 q 89 378 114 340 q 64 475 64 415 q 94 585 64 539 q 178 656 124 631 q 310 681 233 681 q 452 652 390 681 q 556 567 514 624 l 458 469 q 392 524 429 506 q 306 542 354 542 q 235 528 260 542 q 210 488 210 514 q 235 444 210 460 q 299 418 260 429 q 383 394 339 407 q 466 358 426 381 q 531 297 506 335 q 556 197 556 258 q 488 43 556 100 q 303 -14 419 -14 m 486 1044 l 556 975 l 367 760 l 251 760 l 63 975 l 132 1044 l 360 860 l 257 861 l 486 1044 z "},"ş":{"ha":597,"x_min":26,"x_max":556,"o":"m 303 -14 q 196 1 247 -14 q 101 42 144 15 q 26 108 58 69 l 124 206 q 203 145 158 165 q 306 125 249 125 q 383 140 357 125 q 410 185 410 156 q 385 232 410 215 q 320 260 360 249 q 237 285 281 272 q 153 319 193 297 q 89 378 114 340 q 64 475 64 415 q 94 585 64 539 q 178 656 124 631 q 310 681 233 681 q 452 652 390 681 q 556 567 514 624 l 458 469 q 392 524 429 506 q 306 542 354 542 q 235 528 260 542 q 210 488 210 514 q 235 444 210 460 q 299 418 260 429 q 383 394 339 407 q 466 358 426 381 q 531 297 506 335 q 556 197 556 258 q 488 43 556 100 q 303 -14 419 -14 m 285 -292 q 194 -279 233 -292 q 119 -243 156 -267 l 182 -164 q 219 -187 197 -178 q 274 -196 242 -196 q 326 -186 310 -196 q 342 -162 342 -176 q 327 -135 342 -147 q 281 -124 313 -124 l 208 -124 l 254 19 l 365 19 l 332 -81 l 276 -39 q 415 -73 363 -36 q 468 -165 468 -110 q 417 -256 468 -219 q 285 -292 367 -292 z "},"ș":{"ha":597,"x_min":26,"x_max":556,"o":"m 303 -14 q 196 1 247 -14 q 101 42 144 15 q 26 108 58 69 l 124 206 q 203 145 158 165 q 306 125 249 125 q 383 140 357 125 q 410 185 410 156 q 385 232 410 215 q 320 260 360 249 q 237 285 281 272 q 153 319 193 297 q 89 378 114 340 q 64 475 64 415 q 94 585 64 539 q 178 656 124 631 q 310 681 233 681 q 452 652 390 681 q 556 567 514 624 l 458 469 q 392 524 429 506 q 306 542 354 542 q 235 528 260 542 q 210 488 210 514 q 235 444 210 460 q 299 418 260 429 q 383 394 339 407 q 466 358 426 381 q 531 297 506 335 q 556 197 556 258 q 488 43 556 100 q 303 -14 419 -14 m 283 -508 l 199 -462 l 293 -286 l 344 -272 q 325 -300 336 -289 q 299 -311 314 -311 q 240 -284 267 -311 q 213 -215 213 -257 q 242 -140 213 -171 q 317 -108 272 -108 q 390 -140 358 -108 q 421 -215 421 -171 q 413 -258 421 -233 q 386 -319 406 -282 l 283 -508 z "},"ß":{"ha":803,"x_min":85,"x_max":764,"o":"m 456 -14 q 347 1 388 -14 q 272 47 306 17 l 363 164 q 400 140 378 150 q 461 131 422 131 q 528 149 497 131 q 577 201 558 167 q 596 282 596 235 q 574 364 596 328 q 516 422 553 400 q 435 443 479 443 l 351 443 l 351 578 l 403 578 q 471 596 442 578 q 516 647 500 614 q 532 726 532 681 q 515 800 532 768 q 465 851 497 832 q 390 869 433 869 q 281 830 324 869 q 238 726 238 790 l 238 0 l 85 0 l 85 726 q 124 871 85 806 q 231 975 163 936 q 390 1014 300 1014 q 544 976 479 1014 q 647 876 610 939 q 683 738 683 814 q 634 587 683 649 q 504 503 585 525 l 518 564 q 646 517 590 554 q 733 419 701 479 q 764 278 764 358 q 740 160 764 214 q 675 68 717 107 q 577 8 633 29 q 456 -14 521 -14 z "},"t":{"ha":525,"x_min":26,"x_max":499,"o":"m 186 0 l 186 944 l 339 944 l 339 0 l 186 0 m 26 528 l 26 667 l 499 667 l 499 528 l 26 528 z "},"ť":{"ha":671,"x_min":26,"x_max":594,"o":"m 186 0 l 186 944 l 339 944 l 339 0 l 186 0 m 26 528 l 26 667 l 499 667 l 499 528 l 26 528 m 457 706 l 372 751 l 467 928 l 518 942 q 499 914 510 925 q 472 903 488 903 q 413 930 440 903 q 386 999 386 957 q 416 1074 386 1043 q 490 1106 446 1106 q 563 1074 532 1106 q 594 999 594 1043 q 587 956 594 981 q 560 894 579 932 l 457 706 z "},"ț":{"ha":525,"x_min":26,"x_max":499,"o":"m 186 0 l 186 944 l 339 944 l 339 0 l 186 0 m 26 528 l 26 667 l 499 667 l 499 528 l 26 528 m 236 -508 l 151 -462 l 246 -286 l 297 -272 q 278 -300 289 -289 q 251 -311 267 -311 q 192 -284 219 -311 q 165 -215 165 -257 q 195 -140 165 -171 q 269 -108 225 -108 q 342 -140 311 -108 q 374 -215 374 -171 q 366 -258 374 -233 q 339 -319 358 -282 l 236 -508 z "},"u":{"ha":718,"x_min":68,"x_max":649,"o":"m 358 -14 q 208 24 274 -14 q 105 127 142 61 q 68 279 68 193 l 68 667 l 221 667 l 221 286 q 237 203 221 238 q 284 151 253 169 q 358 133 315 133 q 460 173 425 133 q 496 286 496 213 l 496 667 l 649 667 l 649 279 q 612 126 649 192 q 510 23 575 60 q 358 -14 444 -14 z "},"ú":{"ha":718,"x_min":68,"x_max":649,"o":"m 358 -14 q 208 24 274 -14 q 105 127 142 61 q 68 279 68 193 l 68 667 l 221 667 l 221 286 q 237 203 221 238 q 284 151 253 169 q 358 133 315 133 q 460 173 425 133 q 496 286 496 213 l 496 667 l 649 667 l 649 279 q 612 126 649 192 q 510 23 575 60 q 358 -14 444 -14 m 281 763 l 211 832 l 389 1058 l 507 940 l 281 763 z "},"ŭ":{"ha":718,"x_min":68,"x_max":649,"o":"m 358 -14 q 208 24 274 -14 q 105 127 142 61 q 68 279 68 193 l 68 667 l 221 667 l 221 286 q 237 203 221 238 q 284 151 253 169 q 358 133 315 133 q 460 173 425 133 q 496 286 496 213 l 496 667 l 649 667 l 649 279 q 612 126 649 192 q 510 23 575 60 q 358 -14 444 -14 m 606 989 q 574 866 606 921 q 487 778 542 811 q 361 746 432 746 q 234 778 290 746 q 145 866 178 811 q 113 989 113 921 l 251 989 q 281 910 251 942 q 361 878 311 878 q 416 892 392 878 q 454 933 440 907 q 468 989 468 958 l 606 989 z "},"û":{"ha":718,"x_min":68,"x_max":649,"o":"m 358 -14 q 208 24 274 -14 q 105 127 142 61 q 68 279 68 193 l 68 667 l 221 667 l 221 286 q 237 203 221 238 q 284 151 253 169 q 358 133 315 133 q 460 173 425 133 q 496 286 496 213 l 496 667 l 649 667 l 649 279 q 612 126 649 192 q 510 23 575 60 q 358 -14 444 -14 m 182 760 l 113 829 l 301 1044 l 417 1044 l 606 829 l 536 760 l 308 944 l 411 943 l 182 760 z "},"ü":{"ha":718,"x_min":68,"x_max":649,"o":"m 358 -14 q 208 24 274 -14 q 105 127 142 61 q 68 279 68 193 l 68 667 l 221 667 l 221 286 q 237 203 221 238 q 284 151 253 169 q 358 133 315 133 q 460 173 425 133 q 496 286 496 213 l 496 667 l 649 667 l 649 279 q 612 126 649 192 q 510 23 575 60 q 358 -14 444 -14 m 214 775 q 149 801 175 775 q 124 867 124 828 q 149 932 124 906 q 214 958 175 958 q 279 932 254 958 q 304 867 304 906 q 279 801 304 828 q 214 775 254 775 m 506 775 q 441 801 467 775 q 415 867 415 828 q 441 932 415 906 q 506 958 467 958 q 571 932 546 958 q 596 867 596 906 q 571 801 596 828 q 506 775 546 775 z "},"ù":{"ha":718,"x_min":68,"x_max":649,"o":"m 358 -14 q 208 24 274 -14 q 105 127 142 61 q 68 279 68 193 l 68 667 l 221 667 l 221 286 q 237 203 221 238 q 284 151 253 169 q 358 133 315 133 q 460 173 425 133 q 496 286 496 213 l 496 667 l 649 667 l 649 279 q 612 126 649 192 q 510 23 575 60 q 358 -14 444 -14 m 415 749 l 189 926 l 307 1044 l 485 818 l 415 749 z "},"ű":{"ha":718,"x_min":68,"x_max":649,"o":"m 358 -14 q 208 24 274 -14 q 105 127 142 61 q 68 279 68 193 l 68 667 l 221 667 l 221 286 q 237 203 221 238 q 284 151 253 169 q 358 133 315 133 q 460 173 425 133 q 496 286 496 213 l 496 667 l 649 667 l 649 279 q 612 126 649 192 q 510 23 575 60 q 358 -14 444 -14 m 213 772 l 119 806 l 185 1086 l 342 1028 l 213 772 m 476 772 l 383 806 l 449 1086 l 606 1028 l 476 772 z "},"ū":{"ha":718,"x_min":68,"x_max":649,"o":"m 358 -14 q 208 24 274 -14 q 105 127 142 61 q 68 279 68 193 l 68 667 l 221 667 l 221 286 q 237 203 221 238 q 284 151 253 169 q 358 133 315 133 q 460 173 425 133 q 496 286 496 213 l 496 667 l 649 667 l 649 279 q 612 126 649 192 q 510 23 575 60 q 358 -14 444 -14 m 99 928 l 621 928 l 621 803 l 99 803 l 99 928 z "},"ų":{"ha":718,"x_min":68,"x_max":649,"o":"m 358 -14 q 208 24 274 -14 q 105 127 142 61 q 68 279 68 193 l 68 667 l 221 667 l 221 286 q 237 203 221 238 q 284 151 253 169 q 358 133 315 133 q 460 173 425 133 q 496 286 496 213 l 496 667 l 649 667 l 649 279 q 612 126 649 192 q 510 23 575 60 q 358 -14 444 -14 m 415 -278 q 308 -249 356 -278 q 261 -150 261 -221 q 297 -43 261 -92 q 410 42 333 6 l 490 14 q 409 -49 440 -14 q 378 -126 378 -83 q 392 -165 378 -150 q 433 -179 406 -179 q 470 -172 454 -179 q 497 -160 486 -165 l 536 -244 q 488 -267 517 -256 q 415 -278 460 -278 z "},"ů":{"ha":718,"x_min":68,"x_max":649,"o":"m 358 -14 q 208 24 274 -14 q 105 127 142 61 q 68 279 68 193 l 68 667 l 221 667 l 221 286 q 237 203 221 238 q 284 151 253 169 q 358 133 315 133 q 460 173 425 133 q 496 286 496 213 l 496 667 l 649 667 l 649 279 q 612 126 649 192 q 510 23 575 60 q 358 -14 444 -14 m 361 746 q 270 769 310 746 q 208 831 231 792 q 185 918 185 869 q 208 1006 185 967 q 270 1067 231 1044 q 361 1090 310 1090 q 450 1067 411 1090 q 511 1006 489 1044 q 533 918 533 967 q 511 831 533 869 q 450 769 489 792 q 361 746 411 746 m 361 854 q 404 873 386 854 q 422 918 422 892 q 404 964 422 946 q 361 982 386 982 q 315 964 332 982 q 297 918 297 946 q 315 873 297 892 q 361 854 332 854 z "},"v":{"ha":708,"x_min":6,"x_max":703,"o":"m 310 0 l 6 667 l 175 667 l 407 124 l 307 124 l 540 667 l 703 667 l 399 0 l 310 0 z "},"w":{"ha":1047,"x_min":11,"x_max":1036,"o":"m 279 0 l 11 667 l 169 667 l 350 182 l 303 181 l 479 667 l 568 667 l 744 181 l 697 182 l 878 667 l 1036 667 l 768 0 l 679 0 l 499 461 l 549 461 l 368 0 l 279 0 z "},"ẃ":{"ha":1047,"x_min":11,"x_max":1036,"o":"m 279 0 l 11 667 l 169 667 l 350 182 l 303 181 l 479 667 l 568 667 l 744 181 l 697 182 l 878 667 l 1036 667 l 768 0 l 679 0 l 499 461 l 549 461 l 368 0 l 279 0 m 444 763 l 375 832 l 553 1058 l 671 940 l 444 763 z "},"ŵ":{"ha":1047,"x_min":11,"x_max":1036,"o":"m 279 0 l 11 667 l 169 667 l 350 182 l 303 181 l 479 667 l 568 667 l 744 181 l 697 182 l 878 667 l 1036 667 l 768 0 l 679 0 l 499 461 l 549 461 l 368 0 l 279 0 m 346 760 l 276 829 l 465 1044 l 581 1044 l 769 829 l 700 760 l 472 944 l 575 943 l 346 760 z "},"ẅ":{"ha":1047,"x_min":11,"x_max":1036,"o":"m 279 0 l 11 667 l 169 667 l 350 182 l 303 181 l 479 667 l 568 667 l 744 181 l 697 182 l 878 667 l 1036 667 l 768 0 l 679 0 l 499 461 l 549 461 l 368 0 l 279 0 m 378 775 q 313 801 339 775 q 288 867 288 828 q 313 932 288 906 q 378 958 339 958 q 443 932 418 958 q 468 867 468 906 q 443 801 468 828 q 378 775 418 775 m 669 775 q 605 801 631 775 q 579 867 579 828 q 605 932 579 906 q 669 958 631 958 q 735 932 710 958 q 760 867 760 906 q 735 801 760 828 q 669 775 710 775 z "},"ẁ":{"ha":1047,"x_min":11,"x_max":1036,"o":"m 279 0 l 11 667 l 169 667 l 350 182 l 303 181 l 479 667 l 568 667 l 744 181 l 697 182 l 878 667 l 1036 667 l 768 0 l 679 0 l 499 461 l 549 461 l 368 0 l 279 0 m 579 749 l 353 926 l 471 1044 l 649 818 l 579 749 z "},"x":{"ha":707,"x_min":17,"x_max":690,"o":"m 507 0 l 315 282 l 288 307 l 29 667 l 214 667 l 385 419 l 411 396 l 690 0 l 507 0 m 17 0 l 286 374 l 375 264 l 194 0 l 17 0 m 425 310 l 335 418 l 501 667 l 678 667 l 425 310 z "},"y":{"ha":719,"x_min":15,"x_max":704,"o":"m 300 -7 l 15 667 l 183 667 l 378 172 l 329 172 l 535 667 l 704 667 l 394 -7 l 300 -7 m 101 -278 l 308 149 l 394 -7 l 271 -278 l 101 -278 z "},"ý":{"ha":719,"x_min":15,"x_max":704,"o":"m 300 -7 l 15 667 l 183 667 l 378 172 l 329 172 l 535 667 l 704 667 l 394 -7 l 300 -7 m 101 -278 l 308 149 l 394 -7 l 271 -278 l 101 -278 m 281 763 l 211 832 l 389 1058 l 507 940 l 281 763 z "},"ŷ":{"ha":719,"x_min":15,"x_max":704,"o":"m 300 -7 l 15 667 l 183 667 l 378 172 l 329 172 l 535 667 l 704 667 l 394 -7 l 300 -7 m 101 -278 l 308 149 l 394 -7 l 271 -278 l 101 -278 m 182 760 l 113 829 l 301 1044 l 417 1044 l 606 829 l 536 760 l 308 944 l 411 943 l 182 760 z "},"ÿ":{"ha":719,"x_min":15,"x_max":704,"o":"m 300 -7 l 15 667 l 183 667 l 378 172 l 329 172 l 535 667 l 704 667 l 394 -7 l 300 -7 m 101 -278 l 308 149 l 394 -7 l 271 -278 l 101 -278 m 214 775 q 149 801 175 775 q 124 867 124 828 q 149 932 124 906 q 214 958 175 958 q 279 932 254 958 q 304 867 304 906 q 279 801 304 828 q 214 775 254 775 m 506 775 q 441 801 467 775 q 415 867 415 828 q 441 932 415 906 q 506 958 467 958 q 571 932 546 958 q 596 867 596 906 q 571 801 596 828 q 506 775 546 775 z "},"ỳ":{"ha":719,"x_min":15,"x_max":704,"o":"m 300 -7 l 15 667 l 183 667 l 378 172 l 329 172 l 535 667 l 704 667 l 394 -7 l 300 -7 m 101 -278 l 308 149 l 394 -7 l 271 -278 l 101 -278 m 415 749 l 189 926 l 307 1044 l 485 818 l 415 749 z "},"z":{"ha":626,"x_min":35,"x_max":586,"o":"m 35 83 l 407 583 l 586 583 l 214 83 l 35 83 m 35 0 l 35 83 l 174 139 l 578 139 l 578 0 l 35 0 m 60 528 l 60 667 l 586 667 l 586 583 l 447 528 l 60 528 z "},"ź":{"ha":626,"x_min":35,"x_max":586,"o":"m 35 83 l 407 583 l 586 583 l 214 83 l 35 83 m 35 0 l 35 83 l 174 139 l 578 139 l 578 0 l 35 0 m 60 528 l 60 667 l 586 667 l 586 583 l 447 528 l 60 528 m 256 763 l 186 832 l 364 1058 l 482 940 l 256 763 z "},"ž":{"ha":626,"x_min":35,"x_max":586,"o":"m 35 83 l 407 583 l 586 583 l 214 83 l 35 83 m 35 0 l 35 83 l 174 139 l 578 139 l 578 0 l 35 0 m 60 528 l 60 667 l 586 667 l 586 583 l 447 528 l 60 528 m 511 1044 l 581 975 l 392 760 l 276 760 l 88 975 l 157 1044 l 385 860 l 282 861 l 511 1044 z "},"ż":{"ha":626,"x_min":35,"x_max":586,"o":"m 35 83 l 407 583 l 586 583 l 214 83 l 35 83 m 35 0 l 35 83 l 174 139 l 578 139 l 578 0 l 35 0 m 60 528 l 60 667 l 586 667 l 586 583 l 447 528 l 60 528 m 335 775 q 270 801 296 775 q 244 867 244 828 q 270 932 244 906 q 335 958 296 958 q 400 932 375 958 q 425 867 425 906 q 400 801 425 828 q 335 775 375 775 z "},"ﬁ":{"ha":818,"x_min":17,"x_max":746,"o":"m 176 0 l 176 782 q 206 901 176 849 q 289 983 236 953 q 413 1014 342 1014 q 505 997 465 1014 q 579 947 544 979 l 479 847 q 449 865 465 858 q 413 871 433 871 q 351 847 372 871 q 329 783 329 824 l 329 0 l 176 0 m 17 528 l 17 667 l 667 667 l 667 528 l 17 528 m 579 0 l 579 667 l 732 667 l 732 0 l 579 0 m 656 725 q 591 751 617 725 q 565 817 565 778 q 591 882 565 856 q 656 908 617 908 q 721 882 696 908 q 746 817 746 856 q 721 751 746 778 q 656 725 696 725 z "},"ﬂ":{"ha":817,"x_min":17,"x_max":732,"o":"m 176 0 l 176 740 q 211 875 176 813 q 310 976 246 938 q 463 1014 375 1014 l 463 871 q 363 833 396 871 q 329 742 329 794 l 329 0 l 176 0 m 17 528 l 17 667 l 643 667 l 643 528 l 17 528 m 579 0 l 579 1000 l 732 1000 l 732 0 l 579 0 z "},"ª":{"ha":493,"x_min":21,"x_max":447,"o":"m 215 560 q 116 588 160 560 q 47 663 72 615 q 21 769 21 710 q 47 878 21 831 q 116 953 72 925 q 215 981 160 981 q 322 943 279 981 q 367 853 364 906 l 367 688 q 322 598 364 636 q 215 560 281 560 m 239 669 q 307 698 281 669 q 333 771 333 726 q 307 843 333 815 q 239 871 281 871 q 171 842 197 871 q 144 771 144 814 q 172 698 144 726 q 239 669 199 669 m 328 568 l 328 676 l 346 775 l 328 872 l 328 972 l 447 972 l 447 568 l 328 568 z "},"º":{"ha":478,"x_min":19,"x_max":458,"o":"m 239 557 q 128 585 178 557 q 49 662 78 614 q 19 769 19 710 q 49 876 19 829 q 127 952 78 924 q 239 981 176 981 q 351 953 301 981 q 429 877 400 925 q 458 769 458 829 q 430 662 458 710 q 351 585 401 614 q 239 557 301 557 m 240 669 q 308 697 282 669 q 335 769 335 725 q 308 841 335 814 q 239 868 281 868 q 169 840 196 868 q 143 769 143 813 q 170 697 143 725 q 240 669 197 669 z "},"⁄":{"ha":949,"x_min":38,"x_max":893,"o":"m 397 422 l 463 360 l 164 -22 l 38 104 l 397 422 m 533 556 l 468 618 l 767 1000 l 893 874 l 533 556 z "},"½":{"ha":949,"x_min":38,"x_max":893,"o":"m 397 422 l 463 360 l 164 -22 l 38 104 l 397 422 m 533 556 l 468 618 l 767 1000 l 893 874 l 533 556 m 206 478 l 206 972 l 343 972 l 343 478 l 206 478 m 113 858 l 113 972 l 336 972 l 336 858 l 113 858 m 501 67 l 699 264 q 724 297 718 283 q 731 325 731 311 q 715 363 731 349 q 674 378 700 378 q 630 363 650 378 q 586 315 610 349 l 496 396 q 577 471 528 447 q 685 494 626 494 q 818 451 769 494 q 867 331 867 407 q 849 252 867 288 q 792 179 832 217 l 667 61 l 501 67 m 501 -8 l 501 67 l 617 106 l 876 106 l 876 -8 l 501 -8 z "},"¼":{"ha":957,"x_min":38,"x_max":904,"o":"m 397 422 l 463 360 l 164 -22 l 38 104 l 397 422 m 533 556 l 468 618 l 767 1000 l 893 874 l 533 556 m 206 478 l 206 972 l 343 972 l 343 478 l 206 478 m 113 858 l 113 972 l 336 972 l 336 858 l 113 858 m 496 158 l 644 486 l 792 486 l 640 158 l 496 158 m 496 85 l 496 158 l 533 199 l 904 199 l 904 85 l 496 85 m 728 -8 l 728 281 l 864 281 l 864 -8 l 728 -8 z "},"¾":{"ha":950,"x_min":40,"x_max":910,"o":"m 372 429 l 438 374 l 167 -22 l 40 104 l 372 429 m 578 549 l 513 604 l 783 1000 l 910 874 l 578 549 m 246 469 q 148 488 193 469 q 71 538 103 506 l 158 624 q 196 595 171 606 q 244 585 221 585 q 297 601 276 585 q 317 644 317 617 q 294 688 317 672 q 236 703 272 703 q 206 701 222 703 q 182 696 190 699 l 243 771 q 294 782 279 779 q 319 785 310 785 q 414 746 376 785 q 451 640 451 707 q 396 517 451 564 q 246 469 340 469 m 182 696 l 182 771 l 292 899 l 439 899 l 326 771 l 182 696 m 108 858 l 108 972 l 439 972 l 439 899 l 338 858 l 108 858 m 457 158 l 606 486 l 753 486 l 601 158 l 457 158 m 457 85 l 457 158 l 494 199 l 865 199 l 865 85 l 457 85 m 689 -8 l 689 281 l 825 281 l 825 -8 l 689 -8 z "},"¹":{"ha":372,"x_min":36,"x_max":267,"o":"m 129 478 l 129 972 l 267 972 l 267 478 l 129 478 m 36 858 l 36 972 l 260 972 l 260 858 l 36 858 z "},"²":{"ha":472,"x_min":39,"x_max":419,"o":"m 44 553 l 242 750 q 267 783 261 769 q 274 811 274 797 q 258 849 274 835 q 217 864 243 864 q 173 849 193 864 q 129 801 153 835 l 39 882 q 120 957 71 933 q 228 981 169 981 q 361 937 313 981 q 410 817 410 893 q 392 738 410 774 q 335 665 375 703 l 210 547 l 44 553 m 44 478 l 44 553 l 160 592 l 419 592 l 419 478 l 44 478 z "},"³":{"ha":469,"x_min":33,"x_max":414,"o":"m 208 469 q 110 488 156 469 q 33 538 65 506 l 121 624 q 158 595 133 606 q 207 585 183 585 q 259 601 239 585 q 279 644 279 617 q 257 688 279 672 q 199 703 235 703 q 169 701 185 703 q 144 696 153 699 l 206 771 q 257 782 242 779 q 282 785 272 785 q 376 746 339 785 q 414 640 414 707 q 358 517 414 564 q 208 469 303 469 m 144 696 l 144 771 l 254 899 l 401 899 l 289 771 l 144 696 m 71 858 l 71 972 l 401 972 l 401 899 l 300 858 l 71 858 z "},"⁴":{"ha":486,"x_min":39,"x_max":447,"o":"m 39 644 l 188 972 l 335 972 l 183 644 l 39 644 m 39 571 l 39 644 l 76 685 l 447 685 l 447 571 l 39 571 m 271 478 l 271 767 l 407 767 l 407 478 l 271 478 z "},"\r":{"ha":833,"x_min":0,"x_max":0,"o":""}," ":{"ha":278,"x_min":0,"x_max":0,"o":""}," ":{"ha":278,"x_min":0,"x_max":0,"o":""},".":{"ha":403,"x_min":100,"x_max":303,"o":"m 201 -14 q 128 16 157 -14 q 100 89 100 46 q 128 163 100 133 q 201 192 157 192 q 274 163 246 192 q 303 89 303 133 q 274 16 303 46 q 201 -14 246 -14 z "},",":{"ha":383,"x_min":85,"x_max":307,"o":"m 85 -162 l 179 14 l 231 28 q 211 0 222 11 q 185 -11 200 -11 q 126 16 153 -11 q 99 85 99 43 q 128 160 99 129 q 203 192 158 192 q 276 160 244 192 q 307 85 307 129 q 299 42 307 67 q 272 -19 292 18 l 169 -208 l 85 -162 z "},":":{"ha":376,"x_min":86,"x_max":289,"o":"m 188 -14 q 115 16 143 -14 q 86 89 86 46 q 115 163 86 133 q 188 192 143 192 q 260 163 232 192 q 289 89 289 133 q 260 16 289 46 q 188 -14 232 -14 m 188 415 q 115 445 143 415 q 86 518 86 475 q 115 592 86 563 q 188 621 143 621 q 260 592 232 621 q 289 518 289 563 q 260 445 289 475 q 188 415 232 415 z "},";":{"ha":374,"x_min":76,"x_max":299,"o":"m 76 -162 l 171 14 l 222 28 q 203 0 214 11 q 176 -11 192 -11 q 117 16 144 -11 q 90 85 90 43 q 121 160 90 129 q 194 192 151 192 q 267 160 236 192 q 299 85 299 129 q 291 42 299 67 q 264 -19 283 18 l 161 -208 l 76 -162 m 188 415 q 115 445 143 415 q 86 518 86 475 q 115 592 86 563 q 188 621 143 621 q 260 592 232 621 q 289 518 289 563 q 260 445 289 475 q 188 415 232 415 z "},"…":{"ha":1069,"x_min":100,"x_max":969,"o":"m 535 -14 q 462 16 490 -14 q 433 89 433 46 q 462 163 433 133 q 535 192 490 192 q 608 163 579 192 q 636 89 636 133 q 608 16 636 46 q 535 -14 579 -14 m 868 -14 q 795 16 824 -14 q 767 89 767 46 q 795 163 767 133 q 868 192 824 192 q 941 163 913 192 q 969 89 969 133 q 941 16 969 46 q 868 -14 913 -14 m 201 -14 q 128 16 157 -14 q 100 89 100 46 q 128 163 100 133 q 201 192 157 192 q 274 163 246 192 q 303 89 303 133 q 274 16 303 46 q 201 -14 246 -14 z "},"!":{"ha":364,"x_min":75,"x_max":278,"o":"m 118 322 l 97 1000 l 257 1000 l 236 322 l 118 322 m 176 -14 q 103 16 132 -14 q 75 89 75 46 q 103 163 75 133 q 176 192 132 192 q 249 163 221 192 q 278 89 278 133 q 249 16 278 46 q 176 -14 221 -14 z "},"¡":{"ha":374,"x_min":85,"x_max":288,"o":"m 107 -278 l 128 344 l 246 344 l 267 -278 l 107 -278 m 186 475 q 113 505 142 475 q 85 578 85 535 q 113 651 85 622 q 186 681 142 681 q 259 651 231 681 q 288 578 288 622 q 259 505 288 535 q 186 475 231 475 z "},"?":{"ha":703,"x_min":46,"x_max":643,"o":"m 297 322 l 297 590 l 335 590 q 415 608 381 590 q 467 656 449 625 q 486 729 486 688 q 468 801 486 771 q 417 849 450 832 q 338 865 383 865 q 231 833 278 865 q 157 736 185 800 l 46 828 q 166 966 88 918 q 346 1014 244 1014 q 501 979 433 1014 q 606 883 568 944 q 643 740 643 821 q 610 607 643 665 q 518 510 578 549 q 376 456 458 471 l 443 524 l 429 322 l 297 322 m 363 -14 q 290 16 318 -14 q 261 89 261 46 q 290 163 261 133 q 363 192 318 192 q 435 163 407 192 q 464 89 464 133 q 435 16 464 46 q 363 -14 407 -14 z "},"¿":{"ha":671,"x_min":61,"x_max":651,"o":"m 351 -292 q 202 -257 268 -292 q 99 -160 136 -222 q 61 -18 61 -99 q 94 115 61 57 q 187 213 126 174 q 328 267 247 251 l 261 199 l 275 344 l 407 344 l 407 132 l 369 132 q 260 94 301 132 q 218 -7 218 56 q 236 -78 218 -47 q 286 -126 254 -110 q 360 -143 318 -143 q 467 -110 421 -143 q 540 -14 513 -78 l 651 -106 q 532 -243 610 -194 q 351 -292 454 -292 m 342 475 q 269 505 297 475 q 240 578 240 535 q 269 651 240 622 q 342 681 297 681 q 415 651 386 681 q 443 578 443 622 q 415 505 443 535 q 342 475 386 475 z "},"·":{"ha":203,"x_min":0,"x_max":203,"o":"m 101 407 q 28 437 57 407 q 0 510 0 467 q 28 583 0 554 q 101 613 57 613 q 174 583 146 613 q 203 510 203 554 q 174 437 203 467 q 101 407 146 407 z "},"•":{"ha":475,"x_min":90,"x_max":383,"o":"m 238 364 q 161 383 194 364 q 109 437 128 403 q 90 511 90 471 q 109 585 90 551 q 161 638 128 618 q 238 658 194 658 q 313 638 281 658 q 365 585 346 618 q 383 511 383 551 q 365 437 383 471 q 313 383 346 403 q 238 364 281 364 z "},"*":{"ha":682,"x_min":58,"x_max":618,"o":"m 308 454 l 301 674 l 122 553 l 58 676 l 261 750 l 93 881 l 192 979 l 322 811 l 396 1014 l 521 950 l 399 771 l 618 764 l 596 626 l 386 688 l 447 476 l 308 454 z "},"#":{"ha":890,"x_min":60,"x_max":831,"o":"m 450 0 l 603 972 l 732 972 l 579 0 l 450 0 m 60 292 l 60 414 l 786 414 l 786 292 l 60 292 m 150 0 l 303 972 l 432 972 l 279 0 l 150 0 m 103 579 l 103 701 l 831 701 l 831 579 l 103 579 z "},"/":{"ha":557,"x_min":13,"x_max":544,"o":"m 13 -56 l 401 1028 l 544 1028 l 156 -56 l 13 -56 z "},"\\":{"ha":557,"x_min":13,"x_max":544,"o":"m 401 -56 l 13 1028 l 156 1028 l 544 -56 l 401 -56 z "},"-":{"ha":640,"x_min":85,"x_max":556,"o":"m 85 282 l 85 426 l 556 426 l 556 282 l 85 282 z "},"–":{"ha":768,"x_min":85,"x_max":683,"o":"m 85 289 l 85 419 l 683 419 l 683 289 l 85 289 z "},"—":{"ha":1196,"x_min":85,"x_max":1100,"o":"m 85 292 l 85 417 l 1100 417 l 1100 292 l 85 292 z "},"_":{"ha":668,"x_min":0,"x_max":668,"o":"m 0 -187 l 0 -56 l 668 -56 l 668 -187 l 0 -187 z "},"(":{"ha":415,"x_min":56,"x_max":382,"o":"m 294 -165 q 167 -6 221 -100 q 85 201 114 89 q 56 435 56 314 q 85 668 56 556 q 167 875 114 781 q 294 1035 221 969 l 382 957 q 240 738 290 872 q 189 435 189 604 q 240 132 189 267 q 382 -87 290 -3 l 294 -165 z "},")":{"ha":415,"x_min":33,"x_max":360,"o":"m 121 -165 l 33 -87 q 176 132 125 -3 q 226 435 226 267 q 176 738 226 604 q 33 957 125 872 l 121 1035 q 248 875 194 969 q 331 668 301 781 q 360 435 360 556 q 331 201 360 314 q 248 -6 301 89 q 121 -165 194 -100 z "},"{":{"ha":453,"x_min":35,"x_max":408,"o":"m 331 -133 q 165 -73 218 -133 q 121 103 111 -12 l 136 283 q 126 354 140 332 q 74 376 113 376 l 35 376 l 35 494 l 74 494 q 126 517 113 494 q 136 588 140 540 l 121 764 q 165 940 111 879 q 331 1000 218 1000 l 408 1000 l 408 879 l 342 879 q 263 853 283 879 q 249 769 243 828 l 261 615 q 256 517 267 557 q 213 450 246 476 q 119 407 181 424 l 119 460 q 213 420 181 446 q 256 354 246 394 q 261 256 267 314 l 249 97 q 264 13 244 39 q 342 -12 283 -12 l 408 -12 l 408 -133 l 331 -133 z "},"}":{"ha":453,"x_min":44,"x_max":418,"o":"m 122 -133 l 44 -133 l 44 -12 l 111 -12 q 189 13 169 -12 q 204 97 208 39 l 192 256 q 197 354 188 314 q 240 420 207 394 q 333 460 272 446 l 333 407 q 240 450 272 424 q 197 517 207 476 q 192 615 188 557 l 204 769 q 190 853 210 828 q 111 879 169 879 l 44 879 l 44 1000 l 122 1000 q 289 940 235 1000 q 332 764 343 879 l 317 588 q 326 517 313 540 q 379 494 340 494 l 418 494 l 418 376 l 379 376 q 326 354 340 376 q 317 283 313 332 l 332 103 q 288 -73 342 -12 q 122 -133 235 -133 z "},"[":{"ha":474,"x_min":101,"x_max":429,"o":"m 101 -133 l 101 1000 l 229 1000 l 229 -133 l 101 -133 m 164 -133 l 164 -12 l 429 -12 l 429 -133 l 164 -133 m 164 879 l 164 1000 l 429 1000 l 429 879 l 164 879 z "},"]":{"ha":474,"x_min":44,"x_max":372,"o":"m 244 -133 l 244 1000 l 372 1000 l 372 -133 l 244 -133 m 44 -133 l 44 -12 l 310 -12 l 310 -133 l 44 -133 m 44 879 l 44 1000 l 310 1000 l 310 879 l 44 879 z "},"‚":{"ha":383,"x_min":85,"x_max":307,"o":"m 85 -162 l 179 14 l 231 28 q 211 0 222 11 q 185 -11 200 -11 q 126 16 153 -11 q 99 85 99 43 q 128 160 99 129 q 203 192 158 192 q 276 160 244 192 q 307 85 307 129 q 299 42 307 67 q 272 -19 292 18 l 169 -208 l 85 -162 z "},"„":{"ha":667,"x_min":85,"x_max":590,"o":"m 368 -162 l 463 14 l 514 28 q 494 0 506 11 q 468 -11 483 -11 q 409 16 436 -11 q 382 85 382 43 q 413 160 382 129 q 486 192 443 192 q 559 160 528 192 q 590 85 590 129 q 583 42 590 67 q 556 -19 575 18 l 453 -208 l 368 -162 m 85 -162 l 179 14 l 231 28 q 211 0 222 11 q 185 -11 200 -11 q 126 16 153 -11 q 99 85 99 43 q 129 160 99 129 q 203 192 160 192 q 276 160 244 192 q 307 85 307 129 q 299 42 307 67 q 272 -19 292 18 l 169 -208 l 85 -162 z "},"“":{"ha":632,"x_min":60,"x_max":565,"o":"m 282 967 l 188 790 l 136 776 q 156 804 144 793 q 182 815 168 815 q 241 788 214 815 q 268 719 268 761 q 238 644 268 676 q 164 613 207 613 q 91 644 122 613 q 60 719 60 675 q 67 762 60 738 q 94 824 75 786 l 197 1013 l 282 967 m 565 967 l 471 790 l 419 776 q 440 804 428 793 q 465 815 451 815 q 524 788 497 815 q 551 719 551 761 q 521 644 551 676 q 447 613 490 613 q 374 644 406 613 q 343 719 343 675 q 351 762 343 738 q 378 824 358 786 l 481 1013 l 565 967 z "},"”":{"ha":633,"x_min":68,"x_max":574,"o":"m 351 632 l 446 808 l 497 822 q 478 794 489 806 q 451 783 467 783 q 392 810 419 783 q 365 879 365 838 q 396 955 365 924 q 469 986 426 986 q 542 955 511 986 q 574 879 574 924 q 566 837 574 861 q 539 775 558 813 l 436 586 l 351 632 m 68 632 l 163 808 l 214 822 q 194 794 206 806 q 168 783 183 783 q 109 810 136 783 q 82 879 82 838 q 113 955 82 924 q 186 986 143 986 q 259 955 228 986 q 290 879 290 924 q 283 837 290 861 q 256 775 275 813 l 153 586 l 68 632 z "},"‘":{"ha":349,"x_min":60,"x_max":282,"o":"m 282 967 l 188 790 l 136 776 q 156 804 144 793 q 182 815 168 815 q 241 788 214 815 q 268 719 268 761 q 238 644 268 676 q 164 613 207 613 q 91 644 122 613 q 60 719 60 675 q 67 762 60 738 q 94 824 75 786 l 197 1013 l 282 967 z "},"’":{"ha":350,"x_min":68,"x_max":290,"o":"m 68 632 l 163 808 l 214 822 q 194 794 206 806 q 168 783 183 783 q 109 810 136 783 q 82 879 82 838 q 113 955 82 924 q 186 986 143 986 q 259 955 228 986 q 290 879 290 924 q 283 837 290 861 q 256 775 275 813 l 153 586 l 68 632 z "},"«":{"ha":661,"x_min":44,"x_max":618,"o":"m 189 113 l 44 336 l 189 560 l 342 560 l 190 336 l 342 113 l 189 113 m 465 113 l 321 336 l 465 560 l 618 560 l 467 336 l 618 113 l 465 113 z "},"»":{"ha":661,"x_min":43,"x_max":617,"o":"m 319 113 l 471 336 l 319 560 l 472 560 l 617 336 l 472 113 l 319 113 m 43 113 l 194 336 l 43 560 l 196 560 l 340 336 l 196 113 l 43 113 z "},"‹":{"ha":385,"x_min":44,"x_max":342,"o":"m 189 113 l 44 336 l 189 560 l 342 560 l 190 336 l 342 113 l 189 113 z "},"›":{"ha":385,"x_min":43,"x_max":340,"o":"m 43 113 l 194 336 l 43 560 l 196 560 l 340 336 l 196 113 l 43 113 z "},"\"":{"ha":592,"x_min":85,"x_max":507,"o":"m 375 631 l 340 1000 l 507 1000 l 472 631 l 375 631 m 119 631 l 85 1000 l 251 1000 l 217 631 l 119 631 z "},"'":{"ha":336,"x_min":85,"x_max":251,"o":"m 119 631 l 85 1000 l 251 1000 l 217 631 l 119 631 z "},"✓":{"ha":1110,"x_min":26,"x_max":1083,"o":"m 364 97 l 26 435 l 124 532 l 444 208 l 378 207 l 985 882 l 1083 783 l 453 97 l 364 97 z "},"@":{"ha":1024,"x_min":58,"x_max":965,"o":"m 515 -131 q 336 -96 419 -131 q 190 1 253 -61 q 93 146 128 63 q 58 326 58 229 q 94 508 58 425 q 193 654 129 592 q 342 751 257 717 q 524 786 426 786 q 753 728 654 786 q 909 567 853 669 q 965 331 965 464 q 953 222 965 271 q 915 131 942 172 l 785 135 q 818 192 806 161 q 837 259 831 222 q 843 340 843 296 q 806 519 843 446 q 699 630 769 592 q 526 668 628 668 q 346 626 422 668 q 228 508 269 585 q 188 325 188 432 q 227 145 188 221 q 340 28 267 69 q 513 -12 414 -12 q 638 6 582 -12 q 736 63 693 25 l 819 -22 q 681 -103 758 -75 q 515 -131 604 -131 m 489 122 q 392 149 436 122 q 320 223 347 176 q 293 326 293 269 q 320 431 293 385 q 392 506 347 478 q 489 533 436 533 q 597 502 556 533 q 638 406 638 471 l 638 250 q 597 154 638 186 q 489 122 557 122 m 497 226 q 566 255 540 226 q 592 328 592 283 q 566 401 592 374 q 497 429 540 429 q 429 401 456 429 q 403 328 403 372 q 429 255 403 283 q 497 226 456 226 m 653 131 l 653 228 l 915 228 l 915 131 l 653 131 m 603 131 l 603 236 l 618 333 l 603 428 l 603 525 l 710 525 l 710 131 l 603 131 z "},"&":{"ha":929,"x_min":69,"x_max":915,"o":"m 732 0 l 271 504 q 194 613 219 561 q 168 726 168 664 q 204 859 168 800 q 303 953 240 918 q 446 988 365 988 q 557 967 507 988 q 645 915 607 947 q 708 843 683 882 l 599 746 q 533 814 568 788 q 446 840 497 840 q 357 809 393 840 q 321 731 321 778 q 340 653 321 683 q 394 582 360 622 l 915 0 l 732 0 m 400 -14 q 226 24 300 -14 q 110 130 151 63 q 69 283 69 197 q 117 440 69 371 q 258 553 165 510 l 329 460 q 250 391 278 432 q 222 288 222 350 q 245 203 222 238 q 310 149 268 168 q 406 131 351 131 q 523 160 476 131 q 593 229 569 189 l 693 113 q 618 48 664 76 q 517 3 572 19 q 400 -14 461 -14 z "},"¶":{"ha":999,"x_min":68,"x_max":939,"o":"m 532 367 l 390 367 q 226 404 299 367 q 110 510 153 442 q 68 669 68 578 q 110 829 68 761 q 226 935 153 897 q 390 972 299 972 l 939 972 l 939 833 l 399 833 q 310 813 349 833 q 250 756 272 793 q 228 669 228 719 q 250 583 228 619 q 310 526 272 546 q 399 506 349 506 l 532 506 l 532 367 m 585 -139 l 453 -139 l 453 972 l 585 972 l 585 -139 m 821 -139 l 689 -139 l 689 972 l 821 972 l 821 -139 z "},"§":{"ha":715,"x_min":78,"x_max":638,"o":"m 364 193 l 367 306 q 458 328 425 306 q 490 394 490 351 q 463 460 490 436 q 391 498 435 483 q 298 528 347 513 q 205 569 249 544 q 133 638 161 594 q 106 753 106 681 q 138 876 106 824 q 229 958 169 929 q 371 986 289 986 q 525 953 457 986 q 638 854 593 919 l 539 756 q 464 822 507 800 q 367 844 421 844 q 283 822 313 844 q 253 763 253 800 q 281 703 253 725 q 352 665 308 681 q 445 632 396 649 q 538 589 494 615 q 610 519 582 563 q 638 407 638 476 q 601 292 638 340 q 503 219 565 244 q 364 193 442 193 m 344 -168 q 190 -134 258 -168 q 78 -36 122 -100 l 176 63 q 251 -4 208 18 q 349 -26 294 -26 q 433 -4 403 -26 q 463 56 463 18 q 435 115 463 93 q 363 153 407 138 q 270 186 319 169 q 177 229 221 203 q 106 299 133 256 q 78 411 78 342 q 114 526 78 479 q 213 599 150 574 q 351 625 275 625 l 349 513 q 258 490 290 513 q 225 424 225 467 q 253 358 225 382 q 324 320 281 335 q 417 290 368 306 q 510 249 467 274 q 582 181 554 224 q 610 65 610 138 q 578 -58 610 -6 q 487 -139 546 -110 q 344 -168 428 -168 z "},"©":{"ha":1144,"x_min":78,"x_max":1067,"o":"m 574 -14 q 374 24 465 -14 q 217 131 283 63 q 114 291 150 200 q 78 488 78 382 q 114 683 78 593 q 216 842 150 774 q 372 947 282 910 q 571 985 463 985 q 772 947 681 985 q 928 841 863 908 q 1031 683 994 774 q 1067 486 1067 592 q 1031 290 1067 381 q 928 131 994 199 q 772 24 863 63 q 574 -14 682 -14 m 588 207 q 442 244 507 207 q 340 344 378 281 q 303 486 303 407 q 340 628 303 565 q 443 728 378 692 q 589 765 508 765 q 704 742 650 765 q 797 675 758 719 l 708 585 q 656 624 686 611 q 589 636 625 636 q 514 617 547 636 q 462 565 481 599 q 443 486 443 531 q 462 408 443 442 q 514 355 481 374 q 589 336 547 336 q 659 351 629 336 q 708 389 689 365 l 797 299 q 703 231 758 254 q 588 207 649 207 m 571 47 q 796 106 699 47 q 948 264 893 164 q 1003 488 1003 364 q 948 708 1003 610 q 796 865 893 807 q 571 924 699 924 q 347 866 444 924 q 196 710 250 808 q 142 488 142 611 q 197 264 142 364 q 348 106 251 164 q 571 47 444 47 z "},"®":{"ha":775,"x_min":85,"x_max":690,"o":"m 388 375 q 231 416 300 375 q 124 526 163 457 q 85 682 85 596 q 123 837 85 768 q 229 946 161 906 q 386 986 297 986 q 544 946 475 986 q 651 837 613 906 q 690 682 690 768 q 651 526 690 596 q 544 415 613 456 q 388 375 476 375 m 286 525 l 286 846 l 339 846 l 339 525 l 286 525 m 461 525 l 349 665 l 411 665 l 528 525 l 461 525 m 386 419 q 520 454 463 419 q 611 549 578 489 q 644 682 644 608 q 611 814 644 756 q 520 907 578 872 q 386 942 463 942 q 253 907 311 942 q 163 814 196 872 q 131 682 131 756 q 163 549 131 608 q 253 454 196 489 q 386 419 311 419 m 321 661 l 321 706 l 403 706 q 440 718 426 706 q 454 753 454 731 q 440 786 454 772 q 403 800 426 800 l 321 800 l 321 846 l 406 846 q 478 820 450 846 q 507 754 507 794 q 478 686 507 711 q 406 661 450 661 l 321 661 z "},"™":{"ha":975,"x_min":33,"x_max":942,"o":"m 192 443 l 192 915 l 272 915 l 272 443 l 192 443 m 33 857 l 33 929 l 431 929 l 431 857 l 33 857 m 460 443 l 460 929 l 515 929 l 719 597 l 682 597 l 886 929 l 942 929 l 942 443 l 861 443 l 861 789 l 879 785 l 729 538 l 672 538 l 522 785 l 540 789 l 540 443 l 460 443 z "},"°":{"ha":544,"x_min":50,"x_max":494,"o":"m 272 550 q 157 578 207 550 q 78 656 107 607 q 50 767 50 706 q 78 878 50 829 q 157 957 107 928 q 272 986 207 986 q 388 957 338 986 q 466 878 438 928 q 494 767 494 829 q 466 656 494 706 q 388 578 438 607 q 272 550 338 550 m 272 671 q 338 699 313 671 q 364 767 364 728 q 338 837 364 810 q 272 864 313 864 q 206 837 232 864 q 181 767 181 810 q 206 699 181 728 q 272 671 232 671 z "},"|":{"ha":392,"x_min":126,"x_max":265,"o":"m 126 -181 l 126 1069 l 265 1069 l 265 -181 l 126 -181 z "},"¦":{"ha":392,"x_min":126,"x_max":265,"o":"m 126 549 l 126 1069 l 265 1069 l 265 549 l 126 549 m 126 -181 l 126 340 l 265 340 l 265 -181 l 126 -181 z "},"℠":{"ha":939,"x_min":33,"x_max":906,"o":"m 204 436 q 106 457 146 436 q 33 518 65 478 l 88 572 q 136 527 108 543 q 207 511 164 511 q 272 528 247 511 q 296 574 296 544 q 283 613 296 597 q 250 638 271 628 q 204 656 229 647 q 155 674 179 664 q 110 699 131 683 q 76 740 89 715 q 64 801 64 764 q 85 874 64 843 q 143 920 107 904 q 224 936 179 936 q 310 917 272 936 q 371 869 347 899 l 317 815 q 273 851 296 839 q 221 863 250 863 q 165 848 185 863 q 144 807 144 833 q 157 771 144 785 q 190 747 169 757 q 235 730 210 738 q 285 711 260 722 q 330 684 310 700 q 363 642 350 668 q 375 578 375 617 q 329 474 375 513 q 204 436 283 436 m 424 443 l 424 929 l 479 929 l 683 597 l 646 597 l 850 929 l 906 929 l 906 443 l 825 443 l 825 789 l 843 785 l 693 538 l 636 538 l 486 785 l 504 789 l 504 443 l 424 443 z "},"¢":{"ha":732,"x_min":67,"x_max":676,"o":"m 417 139 q 238 185 318 139 q 113 310 158 231 q 67 486 67 389 q 113 663 67 585 q 238 788 158 742 q 417 833 318 833 q 562 803 494 833 q 676 718 629 774 l 576 617 q 506 669 547 651 q 417 686 465 686 q 316 660 360 686 q 248 590 272 635 q 224 486 224 546 q 248 383 224 428 q 316 312 272 338 q 417 286 360 286 q 506 303 465 286 q 576 356 547 321 l 676 254 q 562 169 629 199 q 417 139 494 139 m 351 14 l 351 958 l 463 958 l 463 14 l 351 14 z "},"¤":{"ha":832,"x_min":89,"x_max":742,"o":"m 415 204 q 269 242 335 204 q 165 343 203 279 q 126 486 126 407 q 165 628 126 565 q 268 729 203 692 q 415 767 333 767 q 563 730 497 767 q 667 629 629 693 q 706 486 706 565 q 667 343 706 407 q 564 242 629 279 q 415 204 499 204 m 168 160 l 89 238 l 218 368 l 297 289 l 168 160 m 415 346 q 485 364 456 346 q 533 413 515 382 q 550 486 550 444 q 533 559 550 528 q 485 608 515 590 q 415 625 456 625 q 346 607 376 625 q 299 558 315 589 q 282 486 282 526 q 299 414 282 446 q 346 364 315 382 q 415 346 376 346 m 664 160 l 533 289 l 613 368 l 742 238 l 664 160 m 218 604 l 89 733 l 168 813 l 297 683 l 218 604 m 613 604 l 533 683 l 664 813 l 742 733 l 613 604 z "},"$":{"ha":811,"x_min":67,"x_max":735,"o":"m 393 -14 q 209 28 288 -14 q 67 150 131 69 l 174 257 q 268 163 214 199 q 399 126 322 126 q 527 161 479 126 q 575 260 575 196 q 550 339 575 308 q 484 390 525 369 q 394 426 443 410 q 295 462 344 442 q 205 513 246 482 q 139 592 164 543 q 114 715 114 640 q 156 862 114 801 q 271 954 199 922 q 432 986 343 986 q 592 949 518 986 q 713 853 665 911 l 606 746 q 520 819 564 793 q 428 846 476 846 q 308 816 350 846 q 267 726 267 786 q 292 655 267 682 q 360 609 318 628 q 451 574 401 590 q 550 536 500 557 q 642 483 600 515 q 709 399 683 450 q 735 269 735 347 q 642 63 735 139 q 393 -14 550 -14 m 371 -139 l 371 1111 l 482 1111 l 482 -139 l 371 -139 z "},"€":{"ha":1000,"x_min":31,"x_max":944,"o":"m 601 -14 q 407 24 494 -14 q 256 131 319 63 q 158 291 192 200 q 124 486 124 382 q 158 681 124 590 q 256 840 192 772 q 407 947 319 908 q 601 986 494 986 q 791 947 711 986 q 938 842 871 908 l 829 733 q 729 810 786 783 q 594 838 672 838 q 430 793 500 838 q 322 669 360 749 q 283 486 283 590 q 322 303 283 382 q 433 179 361 224 q 604 135 504 135 q 737 163 681 135 q 836 240 793 190 l 944 132 q 793 25 878 64 q 601 -14 708 -14 m 31 546 l 31 671 l 699 671 l 658 546 l 31 546 m 31 303 l 31 428 l 642 428 l 601 303 l 31 303 z "},"£":{"ha":863,"x_min":86,"x_max":789,"o":"m 211 0 l 211 667 q 251 838 211 767 q 363 948 292 910 q 522 986 433 986 q 688 945 624 986 q 789 846 751 904 l 685 742 q 618 815 654 789 q 521 840 582 840 q 442 821 476 840 q 390 766 408 801 q 371 681 371 731 l 371 0 l 211 0 m 86 0 l 86 146 l 768 146 l 768 0 l 86 0 m 86 407 l 86 532 l 626 532 l 626 407 l 86 407 z "},"¥":{"ha":892,"x_min":65,"x_max":826,"o":"m 389 375 l 65 972 l 250 972 l 490 472 l 404 472 l 644 972 l 826 972 l 500 375 l 389 375 m 367 0 l 367 461 l 526 461 l 526 0 l 367 0 m 310 671 l 353 546 l 93 546 l 93 671 l 310 671 m 93 303 l 93 428 l 799 428 l 799 303 l 93 303 m 551 546 l 607 671 l 799 671 l 799 546 l 551 546 z "},"∕":{"ha":557,"x_min":13,"x_max":544,"o":"m 13 -56 l 401 1028 l 544 1028 l 156 -56 l 13 -56 z "},"+":{"ha":760,"x_min":74,"x_max":686,"o":"m 74 396 l 74 535 l 686 535 l 686 396 l 74 396 m 310 786 l 451 786 l 451 146 l 310 146 l 310 786 z "},"−":{"ha":760,"x_min":74,"x_max":686,"o":"m 74 396 l 74 535 l 686 535 l 686 396 l 74 396 z "},"×":{"ha":760,"x_min":79,"x_max":682,"o":"m 179 164 l 79 264 l 582 767 l 682 667 l 179 164 m 571 174 l 88 657 l 188 757 l 671 274 l 571 174 z "},"÷":{"ha":760,"x_min":74,"x_max":686,"o":"m 74 396 l 74 535 l 686 535 l 686 396 l 74 396 m 381 606 q 316 632 342 606 q 290 697 290 658 q 316 763 290 736 q 381 789 342 789 q 446 763 421 789 q 471 697 471 736 q 446 632 471 658 q 381 606 421 606 m 381 143 q 316 169 342 143 q 290 235 290 196 q 316 300 290 274 q 381 326 342 326 q 446 300 421 326 q 471 235 471 274 q 446 169 471 196 q 381 143 421 143 z "},"=":{"ha":760,"x_min":74,"x_max":686,"o":"m 74 556 l 74 694 l 686 694 l 686 556 l 74 556 m 74 236 l 74 375 l 686 375 l 686 236 l 74 236 z "},">":{"ha":760,"x_min":74,"x_max":686,"o":"m 74 638 l 74 792 l 686 521 l 686 410 l 74 139 l 74 293 l 558 493 l 558 438 l 74 638 z "},"<":{"ha":760,"x_min":74,"x_max":686,"o":"m 686 139 l 74 410 l 74 521 l 686 792 l 686 638 l 201 438 l 201 493 l 686 293 l 686 139 z "},"±":{"ha":760,"x_min":74,"x_max":686,"o":"m 74 493 l 74 632 l 686 632 l 686 493 l 74 493 m 310 800 l 451 800 l 451 326 l 310 326 l 310 800 m 74 132 l 74 271 l 686 271 l 686 132 l 74 132 z "},"~":{"ha":760,"x_min":68,"x_max":693,"o":"m 497 378 q 427 388 457 378 q 372 410 397 397 q 323 433 347 424 q 268 443 299 443 q 208 429 236 443 q 154 388 179 415 l 68 475 q 155 560 106 532 q 264 589 204 589 q 334 579 304 589 q 389 556 364 569 q 438 533 414 543 q 493 524 463 524 q 553 538 525 524 q 607 579 582 551 l 693 492 q 606 407 656 436 q 497 378 557 378 z "},"¬":{"ha":760,"x_min":74,"x_max":686,"o":"m 74 465 l 74 604 l 686 604 l 686 465 l 74 465 m 544 578 l 686 578 l 686 243 l 544 243 l 544 578 z "},"^":{"ha":626,"x_min":63,"x_max":564,"o":"m 438 635 l 282 918 l 346 918 l 189 635 l 63 635 l 263 1000 l 363 1000 l 564 635 l 438 635 z "},"µ":{"ha":800,"x_min":126,"x_max":707,"o":"m 126 -264 l 126 667 l 279 667 l 279 -264 l 126 -264 m 443 -14 q 266 60 326 -14 q 206 249 206 135 l 279 282 q 321 168 279 203 q 418 133 363 133 q 515 168 475 133 q 554 282 554 203 l 554 667 l 707 667 l 707 263 q 674 121 707 183 q 581 22 640 58 q 443 -14 522 -14 z "},"%":{"ha":914,"x_min":56,"x_max":858,"o":"m 69 0 l 693 972 l 844 972 l 221 0 l 69 0 m 660 -14 q 560 13 606 -14 q 489 83 515 39 q 463 183 463 128 q 489 283 463 239 q 560 353 515 326 q 660 379 604 379 q 760 353 715 379 q 832 283 806 326 q 858 183 858 239 q 832 83 858 128 q 761 13 806 39 q 660 -14 717 -14 m 660 104 q 716 126 694 104 q 738 183 738 149 q 715 239 738 217 q 660 261 693 261 q 606 239 626 261 q 585 183 585 217 q 606 126 585 149 q 660 104 626 104 m 253 593 q 153 619 199 593 q 82 690 108 646 q 56 790 56 735 q 82 890 56 846 q 153 960 108 933 q 253 986 197 986 q 353 960 308 986 q 425 890 399 933 q 451 790 451 846 q 425 690 451 735 q 354 619 399 646 q 253 593 310 593 m 253 711 q 308 733 288 711 q 329 790 329 756 q 308 847 329 825 q 253 868 286 868 q 199 847 219 868 q 178 790 178 825 q 199 733 178 756 q 253 711 219 711 z "},"↑":{"ha":914,"x_min":106,"x_max":808,"o":"m 385 711 l 529 711 l 529 49 l 385 49 l 385 711 m 808 336 l 457 688 l 106 336 l 106 539 l 457 890 l 808 539 l 808 336 z "},"↗":{"ha":914,"x_min":106,"x_max":808,"o":"m 631 744 l 732 643 l 208 118 l 106 221 l 631 744 m 665 181 l 665 678 l 168 678 l 311 821 l 808 821 l 808 324 l 665 181 z "},"→":{"ha":914,"x_min":36,"x_max":878,"o":"m 699 542 l 699 397 l 36 397 l 36 542 l 699 542 m 324 118 l 675 469 l 324 821 l 526 821 l 878 469 l 526 118 l 324 118 z "},"↘":{"ha":914,"x_min":106,"x_max":808,"o":"m 732 296 l 631 194 l 106 718 l 208 821 l 732 296 m 168 261 l 665 261 l 665 758 l 808 615 l 808 118 l 311 118 l 168 261 z "},"↓":{"ha":914,"x_min":106,"x_max":808,"o":"m 529 228 l 385 228 l 385 890 l 529 890 l 529 228 m 106 603 l 457 251 l 808 603 l 808 400 l 457 49 l 106 400 l 106 603 z "},"↙":{"ha":914,"x_min":106,"x_max":808,"o":"m 283 194 l 182 296 l 706 821 l 808 718 l 283 194 m 249 758 l 249 261 l 746 261 l 603 118 l 106 118 l 106 615 l 249 758 z "},"←":{"ha":914,"x_min":36,"x_max":878,"o":"m 215 397 l 215 542 l 878 542 l 878 397 l 215 397 m 590 821 l 239 469 l 590 118 l 388 118 l 36 469 l 388 821 l 590 821 z "},"↖":{"ha":914,"x_min":106,"x_max":808,"o":"m 182 643 l 283 744 l 808 221 l 706 118 l 182 643 m 746 678 l 249 678 l 249 181 l 106 324 l 106 821 l 603 821 l 746 678 z "},"̈":{"ha":0,"x_min":83,"x_max":556,"o":"m 174 775 q 109 801 135 775 q 83 867 83 828 q 109 932 83 906 q 174 958 135 958 q 239 932 214 958 q 264 867 264 906 q 239 801 264 828 q 174 775 214 775 m 465 775 q 401 801 426 775 q 375 867 375 828 q 401 932 375 906 q 465 958 426 958 q 531 932 506 958 q 556 867 556 906 q 531 801 556 828 q 465 775 506 775 z "},"̇":{"ha":0,"x_min":125,"x_max":306,"o":"m 215 775 q 151 801 176 775 q 125 867 125 828 q 151 932 125 906 q 215 958 176 958 q 281 932 256 958 q 306 867 306 906 q 281 801 306 828 q 215 775 256 775 z "},"̀":{"ha":0,"x_min":56,"x_max":351,"o":"m 282 749 l 56 926 l 174 1044 l 351 818 l 282 749 z "},"́":{"ha":0,"x_min":56,"x_max":351,"o":"m 125 763 l 56 832 l 233 1058 l 351 940 l 125 763 z "},"̋":{"ha":0,"x_min":56,"x_max":542,"o":"m 149 744 l 56 778 l 121 1058 l 278 1000 l 149 744 m 413 744 l 319 778 l 385 1058 l 542 1000 l 413 744 z "},"̂":{"ha":0,"x_min":56,"x_max":549,"o":"m 125 760 l 56 829 l 244 1044 l 360 1044 l 549 829 l 479 760 l 251 944 l 354 943 l 125 760 z "},"̌":{"ha":0,"x_min":56,"x_max":549,"o":"m 479 1044 l 549 975 l 360 760 l 244 760 l 56 975 l 125 1044 l 353 860 l 250 861 l 479 1044 z "},"̆":{"ha":0,"x_min":56,"x_max":549,"o":"m 549 989 q 517 866 549 921 q 430 778 485 811 q 304 746 375 746 q 177 778 233 746 q 88 866 121 811 q 56 989 56 921 l 194 989 q 224 910 194 942 q 304 878 254 878 q 359 892 335 878 q 397 933 383 907 q 411 989 411 958 l 549 989 z "},"̊":{"ha":0,"x_min":56,"x_max":404,"o":"m 232 746 q 141 769 181 746 q 78 831 101 792 q 56 918 56 869 q 78 1006 56 967 q 141 1067 101 1044 q 232 1090 181 1090 q 321 1067 282 1090 q 382 1006 360 1044 q 404 918 404 967 q 382 831 404 869 q 321 769 360 792 q 232 746 282 746 m 232 854 q 275 873 257 854 q 293 918 293 892 q 275 964 293 946 q 232 982 257 982 q 185 964 203 982 q 168 918 168 946 q 185 873 168 892 q 232 854 203 854 z "},"̃":{"ha":0,"x_min":56,"x_max":606,"o":"m 431 763 q 353 779 385 763 q 294 812 321 796 q 233 828 267 828 q 178 815 199 828 q 138 778 157 803 l 56 860 q 136 933 96 906 q 231 960 176 960 q 308 944 276 960 q 368 911 340 928 q 428 894 396 894 q 485 907 464 894 q 524 944 506 919 l 606 863 q 525 790 565 817 q 431 763 485 763 z "},"̄":{"ha":0,"x_min":56,"x_max":578,"o":"m 56 928 l 578 928 l 578 803 l 56 803 l 56 928 z "},"̒":{"ha":0,"x_min":56,"x_max":278,"o":"m 278 1072 l 183 896 l 132 882 q 152 910 140 899 q 178 921 164 921 q 237 894 210 921 q 264 825 264 867 q 234 750 264 782 q 160 718 204 718 q 87 749 118 718 q 56 825 56 781 q 63 867 56 843 q 90 929 71 892 l 193 1118 l 278 1072 z "},"̦":{"ha":0,"x_min":56,"x_max":278,"o":"m 140 -508 l 56 -462 l 150 -286 l 201 -272 q 182 -300 193 -289 q 156 -311 171 -311 q 97 -284 124 -311 q 69 -215 69 -257 q 99 -140 69 -171 q 174 -108 129 -108 q 247 -140 215 -108 q 278 -215 278 -171 q 270 -258 278 -233 q 243 -319 263 -282 l 140 -508 z "},"̧":{"ha":0,"x_min":13,"x_max":361,"o":"m 178 -292 q 88 -279 126 -292 q 13 -243 49 -267 l 75 -164 q 113 -187 90 -178 q 167 -196 135 -196 q 219 -186 203 -196 q 235 -162 235 -176 q 220 -135 235 -147 q 174 -124 206 -124 l 101 -124 l 147 19 l 258 19 l 225 -81 l 169 -39 q 308 -73 256 -36 q 361 -165 361 -110 q 310 -256 361 -219 q 178 -292 260 -292 z "},"̨":{"ha":0,"x_min":56,"x_max":331,"o":"m 210 -292 q 103 -263 150 -292 q 56 -164 56 -235 q 92 -57 56 -106 q 204 28 128 -8 l 285 0 q 203 -62 235 -28 q 172 -140 172 -97 q 186 -178 172 -164 q 228 -193 200 -193 q 265 -186 249 -193 q 292 -174 281 -179 l 331 -258 q 283 -281 311 -269 q 210 -292 254 -292 z "},"¨":{"ha":639,"x_min":83,"x_max":556,"o":"m 174 775 q 109 801 135 775 q 83 867 83 828 q 109 932 83 906 q 174 958 135 958 q 239 932 214 958 q 264 867 264 906 q 239 801 264 828 q 174 775 214 775 m 465 775 q 401 801 426 775 q 375 867 375 828 q 401 932 375 906 q 465 958 426 958 q 531 932 506 958 q 556 867 556 906 q 531 801 556 828 q 465 775 506 775 z "},"˙":{"ha":431,"x_min":125,"x_max":306,"o":"m 215 775 q 151 801 176 775 q 125 867 125 828 q 151 932 125 906 q 215 958 176 958 q 281 932 256 958 q 306 867 306 906 q 281 801 306 828 q 215 775 256 775 z "},"`":{"ha":407,"x_min":56,"x_max":351,"o":"m 282 749 l 56 926 l 174 1044 l 351 818 l 282 749 z "},"´":{"ha":407,"x_min":56,"x_max":351,"o":"m 125 763 l 56 832 l 233 1058 l 351 940 l 125 763 z "},"˝":{"ha":597,"x_min":56,"x_max":542,"o":"m 149 744 l 56 778 l 121 1058 l 278 1000 l 149 744 m 413 744 l 319 778 l 385 1058 l 542 1000 l 413 744 z "},"ˆ":{"ha":604,"x_min":56,"x_max":549,"o":"m 125 760 l 56 829 l 244 1044 l 360 1044 l 549 829 l 479 760 l 251 944 l 354 943 l 125 760 z "},"ˇ":{"ha":604,"x_min":56,"x_max":549,"o":"m 479 1044 l 549 975 l 360 760 l 244 760 l 56 975 l 125 1044 l 353 860 l 250 861 l 479 1044 z "},"˘":{"ha":604,"x_min":56,"x_max":549,"o":"m 549 989 q 517 866 549 921 q 430 778 485 811 q 304 746 375 746 q 177 778 233 746 q 88 866 121 811 q 56 989 56 921 l 194 989 q 224 910 194 942 q 304 878 254 878 q 359 892 335 878 q 397 933 383 907 q 411 989 411 958 l 549 989 z "},"˚":{"ha":460,"x_min":56,"x_max":404,"o":"m 232 746 q 141 769 181 746 q 78 831 101 792 q 56 918 56 869 q 78 1006 56 967 q 141 1067 101 1044 q 232 1090 181 1090 q 321 1067 282 1090 q 382 1006 360 1044 q 404 918 404 967 q 382 831 404 869 q 321 769 360 792 q 232 746 282 746 m 232 854 q 275 873 257 854 q 293 918 293 892 q 275 964 293 946 q 232 982 257 982 q 185 964 203 982 q 168 918 168 946 q 185 873 168 892 q 232 854 203 854 z "},"˜":{"ha":661,"x_min":56,"x_max":606,"o":"m 431 763 q 353 779 385 763 q 294 812 321 796 q 233 828 267 828 q 178 815 199 828 q 138 778 157 803 l 56 860 q 136 933 96 906 q 231 960 176 960 q 308 944 276 960 q 368 911 340 928 q 428 894 396 894 q 485 907 464 894 q 524 944 506 919 l 606 863 q 525 790 565 817 q 431 763 485 763 z "},"¯":{"ha":633,"x_min":56,"x_max":578,"o":"m 56 928 l 578 928 l 578 803 l 56 803 l 56 928 z "},"¸":{"ha":382,"x_min":13,"x_max":361,"o":"m 178 -292 q 88 -279 126 -292 q 13 -243 49 -267 l 75 -164 q 113 -187 90 -178 q 167 -196 135 -196 q 219 -186 203 -196 q 235 -162 235 -176 q 220 -135 235 -147 q 174 -124 206 -124 l 101 -124 l 147 19 l 258 19 l 225 -81 l 169 -39 q 308 -73 256 -36 q 361 -165 361 -110 q 310 -256 361 -219 q 178 -292 260 -292 z "},"˛":{"ha":386,"x_min":56,"x_max":331,"o":"m 210 -292 q 103 -263 150 -292 q 56 -164 56 -235 q 92 -57 56 -106 q 204 28 128 -8 l 285 0 q 203 -62 235 -28 q 172 -140 172 -97 q 186 -178 172 -164 q 228 -193 200 -193 q 265 -186 249 -193 q 292 -174 281 -179 l 331 -258 q 283 -281 311 -269 q 210 -292 254 -292 z "},"ʼ":{"ha":361,"x_min":53,"x_max":303,"o":"m 53 660 l 168 836 l 226 850 q 207 822 218 833 q 181 811 196 811 q 122 838 149 811 q 94 907 94 865 q 124 983 94 951 q 200 1014 154 1014 q 274 984 244 1014 q 303 910 303 954 q 294 865 303 890 q 261 803 285 839 l 138 614 l 53 660 z "}}}
